<svg xmlns="http://www.w3.org/2000/svg" xmlns:xlink="http://www.w3.org/1999/xlink" width="600" height="600"><style><![CDATA[.W{fill:#f0c7b1}.X{fill:#c27b55}.Y{fill:#2a232b}.Z{stroke:#c27b55}.a{stroke-width:1.5}]]></style><g transform="scale(3)"><path d="M225 225H-25V-25h250V225z" fill="#ecf0f1"/><g transform="matrix(.849999 0 0 .849999 15.000127 17.015024)"><path d="M100.5 100.5h-1v-1h1v1z" class="Y"/><use xlink:href="#J" class="W"/><path d="M159.156 184.058c24.342 3.542 34.586 8.708 37.794 50.72H200c0-12.5-.877-26.992-4.583-35-2.196-4.746-8.195-11.78-14.86-13.722-8.24-2.403-26.837-5.308-33.733-6.923-5.528-1.296-18.242-12.07-21.643-16.35 3.36 4.704 12.79 15.605 21.054 18.46 3.953 1.366 7.245 1.988 12.92 2.814zm-105.4-2.814c8.263-2.854 17.693-13.756 21.054-18.46-3.4 4.28-16.114 15.054-21.643 16.35-6.896 1.615-25.494 4.62-33.733 7.022-6.665 1.942-12.664 8.876-14.86 13.622-3.706 8.008-4.583 22.5-4.583 35h3.05c3.188-41.744 13.475-47.183 37.794-50.72 5.675-.825 8.968-1.447 12.92-2.813z" fill="#ffe4d6"/><path d="M95.646 197.62l-7.083-2.38c-10.45-4.01-44.395-6.607-44.395-6.607s35.754 1.42 43.644 2.78c-.458-4.767-3.017-20.004-3.017-20.004l6.41 21.057c.674 2.268 4.442 5.154 4.442 5.154zm10.8-1.342c-.09.073-.19.168-.302.268a2.27 2.27 0 0 0 .302-.268zm-10.8 1.342s2.893 2.992 4.347 3.03c1.9.05 4.828-2.9 6.15-4.104-1.265.957-4.16 1.39-5.3 1.436-1.33.05-5.188-.362-5.188-.362zm21.018-7.52c-1.545.248-4.386.79-4.386.79l2.287-14.9c-.646 3.07-4.474 16.21-8.12 20.278 1.9-1.616 6.158-2.39 8.324-2.704 10.236-1.484 10.232-1.483 41.062-4.94 0 0-29.07-.155-39.167 1.467z" fill="#e1ac8f"/><use xlink:href="#J" fill="none" class="Z a"/><path d="M100.002 170.866c11.39 0 16.63-6.36 24.218-9.638-.008-7.932 2.04-23.933 3.282-32.907-16.136-1.852-38.87-1.852-55.006.001 1.243 8.973 3.3 24.972 3.28 32.903 7.593 3.277 12.83 9.64 24.225 9.64z" fill="url(#C)"/><path d="M42.77 235.757l1.323-60.852s10.194-2.487 16.635-6.313c17.496 21.953 69.45 17.333 78.336-.62 1.49.525 2.72 1.197 4.262 1.713 5 3.386 9.213 4.494 9.213 4.494l.935 61.685c-14.286.188-110.704-.107-110.704-.107z" fill="#f5f4f5"/><path d="M154.014 177.705c-4.236-.72-7.61-1.697-9.452-3.544-5.343 10.025-26.763 16.378-33.855 17.31 20.554-6.276 29.188-10.813 32.598-21.583 2 2.383 6.522 3.55 12.313 4.538l-1.604 3.28zM52.67 174.38c1.454-.312 2.18-1.234 3.623-1.593l-1.528-1.867c-3.114 2.234-8.97 3.305-15.9 4.424l.188 3.738c3.956-.8 7.817-1.788 11.43-3.323 7.483 8.485 19.168 12.66 31.06 14.387-14.918-3.585-23.472-9.636-28.872-15.766z" fill="#fff"/><path d="M137.86 170.055c-5.93 11.36-50.74 24.595-76.01.866-1.57.615-6.27 2.085-6.27 2.085 18.406 23.08 72.345 23.227 86.702-.112-.062-.024-2.962-2.157-4.422-2.84z" fill="#dfdde2"/><path d="M139.008 167.84c-10.087 18.575-62.578 21.204-78.24.625-5.72 1.556-11.22 4.876-16.756 5.707l-1.243 61.584 110.703.107-.855-62.386c-3.37-.707-6.5-2.737-9.254-3.894-1.522-.64-2.814-1.214-4.356-1.743zM60.4 169.087c13.903 23.086 68.817 18.455 79.42.1 1.286.5 1.615.696 3.106 1.183-10.982 21.208-65.306 27.967-87.525 1.147.156-.04 3.433-1.887 5-2.43zm-6.103 3.33c17.963 27.046 77.26 22.856 89.583-1.287a20.07 20.07 0 0 0 7.936 3.735l1.66 59.08-110.377.016 1.904-58.3c2.784-1.4 7.254-2.43 9.294-3.245z" fill="#b8b6c9"/><path d="M-4.53 235.566c-2.574-13.852-2.292-47.592 9.013-47.52 13.136-5.31 29.27-11.404 42.802-15.31 6.908-7.246 13.436-14.137 26.188-21.314.39 2.6 1.874 8.54.01 11.773-1.355 2.352-5.783 5.576-9.554 8.368l-6.6 9.09c5.168 22.3 9.6 33.78 10.097 53.123 0 0-1.452.69 64.47.397 2.215-22.34 4.993-33.56 10.38-54.098 0 0-4.308-5.014-7.207-8.87-2.054-1.997-8.36-7.532-8.84-8.65-1.175-2.74-.548-6.188.1-11.367 10.793 4.873 17 12.02 26.082 21.303 7.73 2.12 30.86 9.967 42.445 15.216 3.965-.1 6.203 2 7.872 5.466 5.405 11.195 4.126 27.297 2.18 42.79-19.09.03-155.034 2.212-209.45-.392z" fill="#386e77"/><path d="M73.875 154.08l.41 3.04c-.218.266-17.212 23.353-17.336 23.525 4.176-9.5 10.15-19.342 16.925-26.566zm52.178 0c-.16 1.07-.184 2.085-.29 3.04.218.266 16.93 22.47 17.054 22.642-4.425-8.85-9.988-18.46-16.763-25.683zm38.955 31.073c-4.28 6.23-5.194 8.382-9.88 14.557 1.07 0 2.8.166 3.87.166 3.664-6.285 3.67-9.484 6.01-14.723zm4.386 45.225l10.74-25.624-1.247-2.014-9.492 27.638zM41.048 199.877c1.07 0 2.8-.166 3.87-.166-4.685-6.175-5.6-6.56-9.878-12.792 2.336 5.24 2.343 6.673 6.007 12.958zM21.16 202.74l-1.247 2.014c3.806 8.913 4.765 16.724 8.56 25.624-2.96-9.18-4.143-18.483-7.312-27.638z" fill="#265e68"/><path d="M65.638 169.283c1.18-1.646 5.237-7.272 8.6-12.56.988 5.457-.826 8.694-8.6 12.56zm60.102-12.923c2.553 4.396 5.562 8.772 8.664 12.803-8.404-3.827-8.97-7.74-8.664-12.803z" fill="#184f58"/><path d="M126.318 151.36l.023-.174c18.093 10 28.576 25.02 40.747 36.217-.448.72-1.228 1.193-1.687 1.905-12.745-9.698-18.802-24.36-39.083-37.948zm-54.582.663c-15.034 8.213-36.242 33.357-38.318 35.27.448.724.69.577 1.15 1.288 12.746-9.697 16.225-19.296 37.168-36.557zm123.133 35.682c-1-.8-24.646-10.04-42.6-14.97 33.698 16.3 45.587 18.545 51.47 24.32-.383-1-1.164-9.567-8.88-9.352zm-147.41-15.15c-13.524 3.914-30.84 10.098-42.975 15.49-5.364.106-9.208 7.93-10.03 16.084 7.462-16.813 3.775-5.5 53.006-31.575z" fill="#4d7e86"/><path d="M206.6 210.062c-.34-8.635-3.055-23.103-11.69-22.46-.714-.6-20.822-9.767-42.285-15.61-7.353-7.455-16.515-17.598-26.37-20.957-.71 6.428-1.477 10.622.216 12.714 2.24 2.44 4.93 4.88 7.568 6.522 4.616 6.136 8.14 9.778 8.14 9.778-5.43 20.703-8.815 31.314-10.973 53.688H68.798c-2.157-22.373-5.543-32.984-10.973-53.688 0 0 3.522-3.643 8.14-9.778 2.64-1.644 5.327-4.083 7.568-6.522 1.692-2.092.927-6.286.216-12.714-9.856 3.36-19.02 13.502-26.37 20.957-21.463 5.845-41.57 15-42.285 15.61-8.637-.643-11.352 13.825-11.69 22.46C-7 220.55-5.164 235-5.014 236h210.03c.15-1 1.996-15.45 1.585-25.938zM72.984 163.194c-2.258 2.233-3.658 3.18-6.473 5.282 4.83-6.27 4.34-5.433 7.708-11.23.15 2.492-.786 5.504-1.235 5.947zm-76.156 70.834c-1.082-12.844-2.916-24.4.43-36.992 1.28-4.827 2.484-8.095 7.455-8.51 1.067 5.538 8.132 28.724 14.298 44.533-6.226-24.192-5.31-18.8-8.22-28.452-.964-3.235-1.854-6.486-2.98-9.672-.783-2.214-1.65-4.387-2.262-6.653l40.433-14.865c-.28.283-12.895 13.434-13.2 13.804 1.847 3.02 7.816 7.222 10.845 11.758-12.436 1.174-18.508 3.173-23 3.84l9.976 27.656c-1.48-7.917-4.816-20.297-8.637-27.21 1.4-.18 18.077-2.492 23.393-3.477-1.476-2.854-8.043-8.437-11.56-12.62 20.646-18.162 25.422-27.402 39.593-35.454.15 1.51.443 3.01.55 4.52-15.795 23.533-17.65 23.567-17.65 23.567 4.585 17.8 10.532 35.824 10.532 54.073l-70 .154zm130.188-70.834c-.448-.443-1.386-3.455-1.235-5.947 3.367 5.797 2.88 4.958 7.708 11.23-2.815-2.1-4.216-3.048-6.473-5.282zm76.156 70.834l-70-.154c0-18.25 5.947-36.264 10.532-54.073 0 0-1.854-.034-17.65-23.567.106-1.508.4-3 .55-4.52 14.17 8.052 18.946 17.292 39.593 35.454-3.516 4.183-10.083 9.766-11.56 12.62 5.315.984 21.982 3.298 23.393 3.477-3.82 6.914-7.157 19.294-8.637 27.21.915-2.304 9.645-26.737 9.976-27.656-4.492-.667-10.564-2.666-23-3.84 3.028-4.536 8.998-8.736 10.845-11.758-.305-.37-12.92-13.52-13.2-13.804.001 0 40.433 14.865 40.433 14.865-.61 2.267-1.48 4.44-2.262 6.653-1.125 3.186-2.015 6.437-2.98 9.672-2.908 9.643-1.993 4.26-8.22 28.452 6.166-15.8 13.23-38.995 14.298-44.533 4.97.414 6.174 3.682 7.455 8.51 3.345 12.582 1.51 24.15.43 36.992z" fill="#0c4049"/><path d="M46.778 83.613c-2.623-1.48-8.575-8.52-11.138-7.517-1.655.646-2.377 5.504-2.638 7.47-.333 2.525-.93 7.71-.328 10.185.725 2.985 3.63 8.507 5.37 11.027 1.468 2.122 5.21 5.797 6.407 8.088.76 1.454 1.493 5.373 4.083 5.12 1.674-.164 5.537-3.072 5.744-4.452 1.128-7.477-2.335-27.006-7.5-29.92z" class="W Z a"/><path d="M43.313 99.76c-.125-.556.006-1.49.133-2.395.115-.824.224-1.6.158-2.15-.25-2.06-1.66-5.975-2.578-8.097-1.06-2.44-2.77-5.515-4.92-6.307a1.52 1.52 0 0 0-1.813.461c-.248.292-.305.636-.223.676s.266-.244.535-.512c.22-.22.542-.407.983-.368-.178 1.026-1.09 6.582-.696 10.37.31 2.978 1.49 5.202 1.673 5.536A8.93 8.93 0 0 0 36.705 98c.87 4.347 4.648 9.3 5.963 10.908.243.298.496.476.56.404s-.087-.368-.33-.668c-1.298-1.61-5.042-6.533-5.88-10.728-.9-4.45 2.167-11.048 2.85-12.443.348.655.643 1.285.87 1.81.18.412.378.894.58 1.414-.402.73-3.21 6.042-2.187 10.295.38 1.568 2.088 3.59 3.223 4.143.624.306.86.76 1.13 1.288.314.613.673 1.307 1.708 1.8.21.1.402.144.57.144.293 0 .515-.126.68-.28.017.268.016.61.007.928-.01.41.04.747.13.756s.182-.318.192-.726c.016-.503.013-1.125-.067-1.422-.232-.877-.942-1.867-1.694-2.915-.74-1.03-1.506-2.098-1.697-2.956zm-6.775-3.855c-2.035-6.825 0-13.093.458-14.03.795.785 2.108 2.213 2.68 3.24-.417.823-3.052 6.2-3.137 10.8zm8.78 9.986c-.938-.456-1.253-1.067-1.557-1.657-.275-.535-.56-1.087-1.28-1.44a3.11 3.11 0 0 1-.505-.328c-2.324-5.988.254-8.606.9-9.142.2.73.346 1.403.41 1.94.06.495-.05 1.28-.156 2.04-.132.942-.268 1.916-.127 2.546.21.94 1 2.038 1.76 3.1.677.943 1.373 1.915 1.61 2.708-.1.158-.422.535-1.053.23z" class="X"/><path d="M152.96 83.613c2.623-1.48 8.574-8.52 11.137-7.517 1.656.646 2.38 5.504 2.64 7.47.334 2.525.928 7.71.328 10.185-.725 2.985-3.63 8.507-5.37 11.027-1.467 2.122-5.21 5.797-6.406 8.088-.76 1.454-1.492 5.373-4.084 5.12-1.674-.164-5.535-3.072-5.744-4.452-1.128-7.477 2.335-27.006 7.5-29.92z" class="W Z a"/><path d="M154.73 102.716c-.752 1.047-1.463 2.038-1.695 2.915-.078.297-.082.92-.066 1.422.012.407.105.733.193.726s.14-.345.13-.756l.006-.928a.97.97 0 0 0 .68.281c.168 0 .36-.043.57-.144 1.035-.503 1.395-1.196 1.71-1.8.27-.527.506-.982 1.13-1.288 1.133-.554 2.842-2.575 3.223-4.143 1.023-4.253-1.785-9.566-2.188-10.295a39.18 39.18 0 0 1 .582-1.414c.225-.524.52-1.154.87-1.81.682 1.395 3.738 7.993 2.848 12.443-.838 4.195-4.582 9.118-5.88 10.728-.242.3-.393.594-.33.668s.318-.106.56-.404c1.314-1.618 5.094-6.56 5.963-10.908a8.96 8.96 0 0 0 .139-1.028c.184-.334 1.363-2.558 1.674-5.536.395-3.788-.518-9.343-.695-10.37.44-.04.764.15.982.368.268.268.453.552.535.512s.023-.384-.223-.676c-.342-.397-.926-.79-1.813-.46-2.148.792-3.86 3.867-4.92 6.307-.92 2.123-2.326 6.037-2.578 8.097-.066.55.043 1.328.158 2.15.127.904.256 1.84.133 2.395-.193.858-.958 1.925-1.698 2.956zm5.335-17.6c.57-1.026 1.883-2.455 2.678-3.24.457.936 2.494 7.204.46 14.03-.086-4.6-2.72-9.967-3.137-10.8zm-6.697 20.545c.236-.793.932-1.765 1.61-2.708.762-1.063 1.55-2.16 1.76-3.1.14-.63.006-1.604-.127-2.546-.105-.76-.217-1.546-.156-2.04.066-.54.213-1.2.412-1.94.645.536 3.223 3.154.898 9.142a3.34 3.34 0 0 1-.504.328c-.723.353-1.008.905-1.28 1.44-.305.6-.62 1.2-1.56 1.657-.63.304-.952-.073-1.052-.23z" class="X"/><use xlink:href="#K" class="W"/><path d="M140.727 16.737C151.15 27.9 157.594 43.31 157.57 60.323c-.01 5.403-.666 10.643-1.894 15.634h-.001c-.01.054-7.68 35.81-11.18 47.522-2.623 8.788-13.515 21.99-21.184 25.322-7.403 3.216-12.333 9.83-23.3 9.83s-15.908-6.613-23.31-9.83c-7.67-3.333-18.56-16.534-21.184-25.322-3.5-11.713-11.168-47.468-11.18-47.522-1.23-4.992-1.887-10.23-1.895-15.634-.025-17.01 6.418-32.42 16.84-43.583a61.72 61.72 0 0 0-20.14 45.82c.01 5.403.704 10.643 2.002 15.634.013.054 8.12 35.81 11.82 47.522 2.775 8.787 14.288 21.99 22.398 25.322 7.826 3.217 13.04 9.828 24.646 9.828s16.82-6.61 24.646-9.828c8.1-3.333 19.624-16.535 22.398-25.322 3.7-11.713 11.81-47.468 11.82-47.522h.002c1.298-4.992 1.994-10.23 2.002-15.634.03-18.182-7.757-34.53-20.14-45.823z" fill="#e8b9a0"/><use xlink:href="#K" fill="none" class="Z a"/><path d="M100.34 141.925c-1.526 0-2.998-.193-3.9-.547a.5.5 0 1 1 .365-.931c1.664.653 5.855.676 7.704-.193a.5.5 0 0 1 .665.239.5.5 0 0 1-.239.665c-1.12.526-2.89.767-4.595.767zm14.685-8.48c.398-.17.584-.632.413-1.03s-.635-.583-1.03-.413c-11.666 4.992-28.742.338-28.912.292-.417-.116-.852.127-.968.546s.128.85.546.968c.463.128 7.692 2.1 16.034 2.1 4.62-.001 9.578-.605 13.918-2.462z" class="X"/><path d="M76.732 78.383c4.587.68 7.93 3.488 10.773 7.94.025.035.04.06.044.088.255 1.007-.816 1.82-2.155 2.438-4.77.61-9.36 1.49-14.194.87-9.68-1.24-9.855-5.51-10.326-6.63-.252-1.1-.325-1.417-.31-2.473 2.332-1.366 4.043-1.647 5.854-2.005 2.124-.418 6.85-.744 10.315-.23z" fill="url(#D)"/><path d="M80.25 84a6 6 0 1 1-12 0 6 6 0 1 1 12 0z" fill="#4e60a3"/><path d="M70.762 86.805c.875-.072.1-.306.1-.306-.433-.233-1.248-.592-1.248-.92 0-1.03 1.414-1.3-.034-1.705-1.504-1.38 1.167-1.352 1.147-1.398-.975-2.376.3-1.07.835-1.773 1.988-2.6.554.267 1.633 0 .39-.096-.78-1.53.034-1.33.54.132.662.58.662.58.393-.077 1.008-.682 1.008-.682.75.226 1.275 1.3 1.043 1.09.368-.045.884-.22 1.286-.34 0 0 .07-.24.14-.033.917 2.66 3.284 2.47.56 3.24 0 0-.176 0 .382.442 2.7 2.164-2.102 1.495.45 2.5.104-.104-1.53.965-1.53 1.26 0 .5-1.042 1.818-1.946 1.3-.504-.288-.58.6-.877.2-.58-.803-1.742-.035-1.313-.773.634-.52-.654.204-.904.204-.828 0 1.083-2.783 3.894-.715.822.602-.864-1.433.625-1.433.15.05.104-.52.104-.682-.774-.15 1.4-.003 1.4-1.262.137.027.51-.35-1.635 0 0 0-.068-.75-.034-.886.1-.438 1.214-.298.904-.75 0-.001-.8-1.604-.8-1.604-2.573-.414-1.102-.672-2.71-.34-.076.378-3.445 1.984-3.338 2.73.1.702 2.115.938.208 2.182 2.858 5.472-2.1-.125-.035 1.226z" fill="#6777b2"/><path d="M74.25 78.75l.17 4.393 1.837-3.993-1.523 4.123 3.227-2.985-2.985 3.226L79.1 82l-3.992 1.84L79.5 84l-4.392.17 3.992 1.84-4.124-1.523 2.985 3.226-3.227-2.985 1.523 4.123-1.837-3.993-.17 4.393-.17-4.393-1.838 3.993 1.522-4.123-3.226 2.985 2.985-3.226-4.124 1.523 3.992-1.84L69 84l4.4-.17L69.398 82l4.124 1.523-2.985-3.226 3.226 2.985-1.522-4.123 1.838 3.993.17-4.393z" fill="#253984"/><path d="M75.046 80.067l-.54 3.315 1.98-2.71-1.766 2.857 2.87-1.748-2.725 1.964 3.32-.515-3.268.77 3.266.794-3.317-.538 2.712 1.982-2.858-1.765 1.748 2.87-1.964-2.725.516 3.32-.77-3.27-.795 3.264.54-3.315L72 87.326l1.768-2.857-2.87 1.748 2.725-1.964-3.32.516 3.27-.77-3.264-.793 3.315.537-2.712-1.982 2.858 1.765-1.747-2.87 1.964 2.725-.516-3.318.772 3.27.792-3.266z" fill="#152975"/><path d="M76.5 84a2.25 2.25 0 1 1-4.5 0 2.25 2.25 0 1 1 4.5 0z" opacity=".9"/><g fill="#fff"><path d="M71.887 88.31c-.33.332-.985.215-1.46-.26s-.593-1.13-.26-1.46.985-.214 1.46.26.593 1.13.26 1.46z" opacity=".7"/><path d="M79.056 82.818c-.496.496-1.697.1-2.682-.886s-1.382-2.187-.886-2.683 1.697-.1 2.682.886 1.382 2.187.886 2.683z" opacity=".9"/></g><path d="M55.112 83.583c3.224 11.315 7.475 23.313 17.685 23.67s22.135-7.24 22.3-22.238c.173-16.767-10.474-23.38-20.684-23.737s-24.096 5.437-19.29 22.306zm5.763-.493c-.252-1.1-.325-1.417-.31-2.473 2.027-1.2 4.04-1.547 5.85-1.905 2.123-.418 6.853-.845 10.317-.33 4.587.68 7.93 3.488 10.773 7.94.025.035.04.06.044.088.255 1.007-.816 1.82-2.155 2.438-4.77.61-9.36 1.49-14.194.87-9.68-1.24-9.855-5.51-10.325-6.63z" class="W"/><path d="M74.225 95.17c9.256 1.4 17.847-3 19.186-9.86s-5.072-13.537-14.33-14.94-17.845 3.012-19.185 9.862 5.07 13.532 14.328 14.937zM60.563 80.617c2.125-1.14 4.04-1.547 5.85-1.905 2.123-.418 6.853-.845 10.317-.33 4.587.68 7.93 3.488 10.773 7.94.025.035.04.06.044.088.255 1.007-.816 1.82-2.155 2.438-4.77.61-9.36 1.49-14.194.87-9.68-1.24-9.855-5.51-10.326-6.63-.25-1.1-.323-1.418-.3-2.473z" fill="url(#F)"/><path d="M60.875 83.1c-.252-1.1-.325-1.417-.31-2.473 2.092-1.175 4.04-1.547 5.85-1.905 2.123-.418 6.853-.845 10.317-.33 4.587.68 7.93 3.488 10.773 7.94.025.035.04.06.044.088.255 1.007-.816 1.82-2.155 2.438-4.77.61-9.36 1.49-14.194.87-9.68-1.24-9.855-5.51-10.325-6.63z" fill="url(#G)"/><path d="M76.327 75.748c3.294.54 6.505 2.054 9.48 3.945.637.404 1.366.865 2.52 1.45-.828-.188-1.594-.617-2.31-1.01.736.698 1.422 1.53 1.982 2.334-2.52-3.16-7.297-5.538-11.36-6.35-3.902-.78-10.99-.264-16.25 2.042 4.818-2.71 11.847-3.08 15.937-2.412z" class="X"/><path d="M87.508 86.277c-2.847-4.34-6.193-7.082-10.78-7.747-4.833-.705-11.27-.22-15.034 1.843-.308.17-1.607 1.25-1.4.117.874-1.167 4.322-2.523 5.993-2.928 18.745-4.543 22.297 10.292 21.223 8.715zM60.646 82.84c-.716 2.063.86 6.654 10.145 7.503 6.595.602 15.767-1.75 14.634-1.613-4.78.59-9.375 1.45-14.22.84-10.982-1.38-9.738-6.547-10.56-6.73z"/><path d="M122.867 78.383c-4.586.68-7.93 3.488-10.773 7.94-.024.035-.038.06-.043.088-.256 1.007.815 1.82 2.154 2.438 4.77.61 9.36 1.49 14.194.87 9.68-1.24 9.855-5.51 10.325-6.63.253-1.1.325-1.417.312-2.473-2.33-1.366-4.043-1.647-5.854-2.005-2.123-.418-6.85-.744-10.315-.23z" fill="url(#E)"/><path d="M131.75 84a6 6 0 1 1-12 0 6 6 0 1 1 12 0z" fill="#4e60a3"/><path d="M122.258 86.806c.88-.076.105-.305.105-.305-.434-.234-1.254-.592-1.254-.926 0-1.03 1.418-1.295-.023-1.705-1.512-1.377 1.16-1.348 1.137-1.395-.973-2.38.305-1.072.844-1.775 1.98-2.596.55.27 1.63 0 .387-.094-.785-1.53.035-1.33.54.135.656.58.656.58.398-.076 1.008-.68 1.008-.68.75.223 1.277 1.29 1.043 1.1.375-.047.89-.223 1.29-.34 0 0 .07-.24.14-.035.914 2.66 3.28 2.473.563 3.24 0 0-.176 0 .375.44 2.707 2.168-2.098 1.494.457 2.5.105-.1-1.535.967-1.535 1.266 0 .498-1.043 1.816-1.945 1.295-.504-.287-.586.604-.88.193-.574-.803-1.746-.035-1.313-.773.633-.52-.656.205-.902.205-.832 0 1.078-2.783 3.89-.715.82.598-.867-1.436.633-1.436.14.047.105-.52.105-.68-.785-.152 1.383-.006 1.383-1.266.14.03.516-.346-1.63 0 0 0-.07-.75-.035-.885.105-.44 1.207-.3.902-.75l-.797-1.605c-2.578-.4-1.102-.668-2.72-.34-.07.38-3.445 1.986-3.34 2.73.105.703 2.12.938.21 2.18 2.858 5.48-2.1-.12-.036 1.233z" fill="#6777b2"/><path d="M125.75 78.75l.176 4.395 1.828-3.996-1.523 4.125 3.234-2.988-2.988 3.23 4.125-1.523-3.996 1.84L131 84l-4.395.17 3.996 1.84-4.125-1.523 2.988 3.23-3.234-2.988 1.523 4.125-1.828-3.996-.176 4.39-.176-4.395-1.84 3.996 1.523-4.125-3.223 2.988 2.988-3.23-4.125 1.523 3.996-1.84-4.395-.17 4.395-.17-3.996-1.84 4.125 1.523-2.988-3.23 3.223 2.988-1.523-4.125 1.84 3.996.176-4.39z" fill="#253984"/><path d="M126.547 80.067l-.54 3.316 1.98-2.713-1.77 2.86 2.87-1.752-2.72 1.97 3.316-.516-3.27.768 3.27.797-3.316-.54 2.707 1.98-2.86-1.764 1.746 2.87-1.957-2.725.516 3.316-.773-3.267-.797 3.264.54-3.316-1.98 2.713 1.77-2.86-2.87 1.752 2.72-1.97-3.316.516 3.27-.768-3.27-.797 3.316.54-2.707-1.98 2.86 1.764-1.746-2.87 1.957 2.725-.516-3.316.773 3.27.797-3.267z" fill="#152975"/><path d="M128 84a2.25 2.25 0 1 1-4.5 0 2.25 2.25 0 1 1 4.5 0z" opacity=".9"/><g fill="#fff"><path d="M123.383 88.312c-.328.328-.984.217-1.453-.264-.48-.475-.598-1.125-.258-1.46.328-.328.984-.21 1.453.264.48.474.598 1.125.258 1.46z" opacity=".7"/><path d="M130.555 82.815c-.492.498-1.7.105-2.684-.885-.984-.984-1.383-2.186-.88-2.678.492-.498 1.688-.105 2.672.885.996.985 1.383 2.186.89 2.678z" opacity=".9"/></g><path d="M125.197 61.277c-10.21.356-20.857 6.97-20.685 23.737.154 15 12.08 22.595 22.3 22.238s16.187-17.323 17.685-23.67c4.03-17.07-9.08-22.662-19.3-22.306zM128.4 89.72c-4.835.62-9.423-.26-14.194-.87-1.34-.618-2.4-1.43-2.154-2.438.006-.027.02-.053.025-.08 2.86-4.46 6.206-7.27 10.79-7.948 3.465-.516 8.195-.09 10.318.33 1.81.357 3.824.694 5.85 1.905.014 1.055-.06 1.372-.312 2.473-.47 1.12-.644 5.388-10.325 6.63z" class="W"/><path d="M139.703 80.234c-1.34-6.85-9.928-11.26-19.186-9.862s-15.67 8.09-14.328 14.94 9.93 11.26 19.186 9.86 15.668-8.09 14.328-14.937zm-.978 2.856c-.47 1.12-.645 5.388-10.325 6.63-4.835.62-9.423-.26-14.194-.87-1.34-.618-2.4-1.43-2.154-2.438.006-.027.02-.053.025-.08 2.86-4.46 6.206-7.27 10.79-7.948 3.465-.516 8.195-.09 10.318.33 1.81.357 3.727.764 5.85 1.905.013 1.055-.06 1.372-.312 2.473z" fill="url(#H)"/><path d="M138.725 83.1c.253-1.1.325-1.417.312-2.473-2.092-1.175-4.04-1.547-5.85-1.905-2.123-.418-6.854-.845-10.318-.33-4.586.68-7.93 3.488-10.773 7.94-.024.035-.038.06-.043.088-.256 1.007.815 1.82 2.154 2.438 4.77.61 9.36 1.49 14.194.87 9.68-1.24 9.855-5.51 10.325-6.63z" fill="url(#I)"/><path d="M123.273 75.748c-3.295.54-6.506 2.054-9.48 3.945-.637.404-1.367.865-2.52 1.45.828-.188 1.594-.617 2.31-1.01-.736.698-1.422 1.53-1.982 2.334 2.52-3.16 7.297-5.538 11.36-6.35 3.902-.78 10.99-.264 16.252 2.042-4.82-2.71-11.848-3.08-15.937-2.412z" class="X"/><path d="M133.314 77.563c1.672.405 5.12 1.76 5.994 2.928.205 1.132-1.094.052-1.402-.117-3.764-2.064-10.2-2.548-15.033-1.843-4.588.665-7.936 3.407-10.78 7.747-1.074 1.576 2.478-13.26 21.222-8.715zm-4.92 12.007c-4.844.6-9.44-.25-14.22-.84-1.134-.137 8.038 2.215 14.633 1.613 9.284-.85 10.86-5.44 10.145-7.503-.823.182.422 5.35-10.56 6.73z"/><path d="M141 113.974c.035 22.622-18.292 40.994-40.938 41.025-22.642.037-41.028-18.273-41.063-40.9C58.964 91.48 77.29 73.035 99.936 73s41.03 18.35 41.064 40.975z" fill="url(#A)"/><path d="M137.5 54c0 20.71-16.79 37.5-37.5 37.5S62.5 74.7 62.5 54 79.3 16.5 100 16.5s37.5 16.79 37.5 37.5z" fill="url(#B)"/><path d="M53.15 74.996c9.743-15.115 36.5 5.148 38.018-1.2.3-1.27-.407-2.015-1.564-2.492-13.62-5.506-31.648-10.133-36.454 3.683zm93.7 0c-9.743-15.115-36.5 5.148-38.018-1.2-.3-1.27.407-2.015 1.564-2.492 13.62-5.506 31.648-10.133 36.454 3.683z" class="Y"/><path d="M100.73 120.838c-.354.16-1.185.16-1.448-.103 0 0-6.296-2.153-5.498-4.215 1.264-3.262 12.727-.76 12.717 0-.025 1.942-5.77 4.318-5.77 4.318z" fill="#e1ac8f"/><path d="M92.215 113.61s5.448-18.624 6.008-22.6c1.063 6.47-1.503 20.873-1.774 23.812-.33 3.57 3.455 5.688 3.455 5.688.293.37-.06.602-.516.456l-6.63-2.56c-1.57-1.335-1.57-2.606-.542-4.787zm10.96 3.302c.915.207 1.106.576 1.035.957s-.462.91-1.288.43c-.907-.526-2.62-.767-2.62-.767s1.957-.83 2.872-.62z" class="X"/><g class="Y"><path d="M100 18.13z"/><path d="M152.176 96.02c-4.33-11.45-2.396-20.042-3.227-37.2-1.283-26.428-7.483-23.18-21.75-24.214C105.156 33 97.497 22.794 81.063 22.794c-8.887 0-19.24 4.048-27.173 11-6.378 43.485 2.638 39.87-6.744 61.845-5.953-6.247-6.72-15.865-11.134-28.495-3.52-10.45-2.658-11.01-6.527-16.05 2.484.45 2.734.43 3.842.43-1.97-4.306-4.48-11.95-5.43-15.273 2.33-1.116 4.84-3.91 6.47-5.92-.93-2.128-1.646-4.554-2.08-6.625.077-.026.438-.16.438-.16l.004-.017c5.68-2.417 6.84-15.944 10.785-19.39 1.94-1.814 3.806-2.53 5.534-3.446.204-1.895.295-2.277.575-3.63 9.402-2.52 12.254-1.2 25.53-4.893 4.564-1.27 7.71-2.153 17.317-1.75 3.525 1.78 16.06 10.48 25.484 1.602C125.2-3.448 131.53-2.87 140.58 2.277c15.18 8.9 17.244 15.147 16.352 29.56 10.493 13.965 8.167 30.567 3.577 47.23-2.87 10.316-5.623 13.694-8.333 16.954z"/></g><path d="M152 82c-1-8 3-15 4-22-1 2-3 3-3 5 0-7 3-13 2-20-1 2-2 3-4 4 3-7 0-15-5-21 1 3 2 5 2 8-6-9-20-10-30-15 2 3 6 5 9 7-14-5-27-11-40-17 2.206 2.206 3.875 6.024 6.59 7.5 1.143.163.978.53 0 0C81.58 16.8 68.958 15.48 58 10c0 4 3 7 6 9-3 0-6-3-8-2-3 2 3 4 2 6-3 2-6-1-9-1 2 3 0 8 2 11-2-1-4-3-4-2-1 4-3 5-3 8 0 5 3 10 3 15 0-1.608-1.938-1.28-2.697-2.127 5.01 13.975 4.782 28.692 2.606 43.497.082.09.154.184.237.27 9.382-21.975.366-18.36 6.744-61.845 7.933-6.953 18.286-11 27.173-11 16.435 0 24.094 10.207 46.138 11.802 14.266 1.036 20.466-2.214 21.75 24.214.83 17.168-1.104 25.76 3.227 37.2.005-.005.01-.01.014-.016.65-7.4 2.81-14.21 2.81-21.005-1 2-2 4-3 7z" fill="#0c080c"/><path d="M159.263 71.488c-.31.657-2.263.855-2.263 1.512 0-3 3.516-5.243 2.924-10.264 0 .396-3.158 2.95-3.475 3.346-.206 1 4.288-10.68 4.288-14.542C159.263 54 158 54 158 56l-.006-13.854c0 2-1.994 4.95-1.994 6.95.933-7.464-3.404-16.095-4.28-23.5-.51 1.795-1.48 3.89-.72 5.406-3-4-2-11-7-14-1 2-1 4-2 6-3-4-7-7-9-11v5c-5-4-12-6-15-12v7c-4-1-10.495-4.596-12.495-7.596C105.505 7.404 109 12 109 15c-8-4-14-10-22-14 0 2 2 4 1 6-4-2-11.77-2-13.77-6 0 3 3.1 6 3.1 9-9-1-11.01-3.822-19.242-7.596C57.097 4.404 56 7 55 9c-2-2-3-4-6-4 0 3 3 7 1 10-1 1-5-3-5-2-2 4 0 10-2 14 0 1-3-2-5-1 3.872 5.807 1.202 12.548 3.745 18.416.098.182.185.374.255.584-.096-.193-.17-.39-.255-.584C40.452 41.988 36.93 41.8 36 39c0 7.303 4.157 13.774 5.645 20.932.505.3.76.856.355 2.068a26.41 26.41 0 0 0-.355-2.068c-.748-.446-2.05-.336-2.645-.932 4.728 9.455 6.19 25.673 7.91 36.37 3.545-15.374 1.71-31.456-2.606-43.497-.185-.206-.303-.48-.303-.872.11.3.198.582.303.873.76.848 2.697.52 2.697 2.127 0-5-3-10-3-15 0-3 2-4 3-8 0-1 2 1 4 2-2-3 0-8-2-11 3 0 6 3 9 1 1-2-5-4-2-6 2-1 5 2 8 2-3-2-6-5-6-9 10.958 5.48 23.58 6.8 35.59 8.5-2.714-1.475-4.383-5.293-6.59-7.5 13 6 26 12 40 17-3-2-7-4-9-7 10 5 24 6 30 15 0-3-1-5-2-8 5 6 8 14 5 21 2-1 3-2 4-4 1 7-2 13-2 20 0-2 2-3 3-5-1 7-5 14-4 22 1-3 2-5 3-7 0 6.796-2.16 13.595-2.81 21.004.814-.98 1.633-1.975 2.457-3.163-.1-7.412 2.833-13.503 4.617-21.353z" fill="#1b141c"/><path d="M93.12 18.235c-1.128.09-2.468.28-4.94-.096-6.698-.927-28.617-1.793-29.8-8.654 1.055 3.353 7.405 4.3 12.204 5.198 0 0 3.382.65 8.723 1.25 9.995 1.167 7.883 1.954 13.823 2.3zm22.778 5.51C92 13.39 93.7 14.53 88.12 10.985c7.333 6.156 9.84 6.172 22.62 12.018 5.92 2.667 7.078 2.56 15.13 4.482-5.645-2.244-6.3-2.198-9.972-3.74zm2.722-3.01c9.914 8.153 22.008 6.125 29.75 15-6.205-9.817-19.85-8.827-29.75-15zM59.905 17.33c-2.668-.805-3.997-.43-5.286.404 4.225-1.99 8.65 2.923 13.75 1.5-2.363.288-8.464-1.705-8.464-1.904zm-2.854 6.6c-2.328-.734-5.203-1.98-7.15-1.927-1.03.024-1.28.48-1.28.48.975-1.14 5.61 1.1 8.396 1.626.766.16 1.354.123 1.354.123s-.586-.058-1.318-.302zm-11.4 11.746c.687-1.892 1.46-3.75 1.256-5.482-.104-.627-.31-.955-.29-.96.464 1.973-.313 3.175-1.68 6.136-3.015 6.453.924 11.484 2.43 18.364-.51-7.87-4.203-11.347-1.717-18.058zM154.37 45.985c.32 2.168.225 3.63-.154 7.075 0 0-.695 5.78-2.096 11.425 2.08-4.847 3.82-13.096 2.25-18.5zm1.5 15.5c-3.387 9.387-3.936 12.846-4.5 20.25l4.5-20.25z" class="Y"/><path d="M114.87-1.765c-6.126.965-12.52 1.734-24-5.25 11.08 5.016 16.465 5.498 24 5.25zM128.4.2c-6.076-2.194-6.475-4.768-11.032-6.205 4.16 1.884 4.127 4.303 9.56 6.76 2.642 1.25 11.822 3.782 17.44 7.44C139.405 3.794 136.066 3.06 128.4.2zM60.62-2.015c11.593.24 13.44-2.72 26.75-4.25-11.966-.15-13.233 2.704-26.75 4.25zm30.25.25c4.67.56 11.405 4.746 13.5 9.5-1.53-5.33-8.168-9.47-13.5-9.5zm26 1.5c4.652 2.475 6.308 7.7 12 8.75-5.585-1.848-6.69-6.682-12-8.75zm-8 1c1.193 2.033 2.93 4.107 7.5 7-5.333-4.382-6.248-5.304-7.5-7zm23.25 4.75c5.115.627 10.45 5.663 11 11.25.256-5.506-4.69-11.154-11-11.25zm17.34 8.522c-2.307-2.946-4.34-3.642-5.34-4.022 1.428.74 2.997 1.725 4.866 4.386 0 0 3.437 4.57 4.884 9.614-.998-6.078-4.41-9.978-4.41-9.978zM54.37-.265c.185-.39 5.324 1.866 5.73 2.03 1.23.48 7.383 2.967 9.52 3.22-1-.268-15.196-6.4-15.25-5.25zm-8.5 6.25c.682.896 1.458 2.263 2 3.245 0 0 .296.523.57 1.06a25.56 25.56 0 0 1 .51 1.086c.674 1.537.995 2.486 1.04 3.625.252-2.98-2.298-7.128-4.13-9.015zm-3 3c-2.517 6.15-2.49 9.708 0 16-1.563-6.304-1.883-9.288 0-16z" fill="#3a353a"/><path d="M157.24 31.745c.228-3.5.323-5.684.02-9.14-1.138-10.13-7.217-15.136-16.53-20.6-9.158-5.208-15.513-5.75-22.81-10.37-9.334 9.042-21.935.184-25.37-1.52-16.776-.716-14.19 2.518-32.75 4.78-6.844.773-9.67 1.72-9.67 1.72l-.76.2c-.2 1-.38 1.616-.6 3.68-1.516.8-3.484 1.572-5.45 3.4-4.048 3.536-5.212 17.195-10.83 19.4v.01c-.118.043-.428.163-.55.18.42 2.096 1.188 4.75 2.08 6.8-1.594 1.96-4.17 4.807-6.48 5.8.546 1.98 3.313 10.75 5.32 15.14-1.1 0-2.003-.194-4.1-.56 4.388 5.578 3.28 5.653 6.96 16.58 4.48 12.826 5.208 22.595 11.5 28.9 5.633-10.646 5.146-15.583 5.2-19.4.123-5.265-2.433-18.462 1.935-42.798 9.262-8.105 22.378-12.754 34.815-9.932 13 2.94 19.525 9.55 38.02 10.9 14.4 1.046 20.2-2.213 21.47 23.93.84 17.373-1.163 26.023 3.43 37.78 2.67-3.22 5.645-6.408 8.72-17.46 4.5-16.338 7.016-33.206-3.56-47.4zm3.78 38.98c-3.468 16.597-5.49 19.61-9.06 24.96-2.882-8.88-2.093-17.47-1.8-26.6 1.486-39.246-8.424-34.825-22.86-35.92-17.688-1.192-24.622-7.896-37.76-10.54-11.972-2.45-25.25.755-36.35 11.16-6.045 27.128.578 41.608-4.78 55.37-1.162 2.943-.43 3.694-1.28 5.84-4.636-6.978-5.874-16.832-7.4-21.8-4.784-12.176-4.632-16.17-9.84-21.97 1.27.277 2.9.457 4.2.24-.01-.01-.01-.01-.01-.02-.332-1-4.524-12.47-5.75-15.33 2.387-1.152 4.73-3.746 6.35-5.83-1.292-4.088.314 1.902-2.1-6.66 7.366-2.215 6.6-16.125 14.1-21.2.997-.665 1.88-1.213 2.86-1.83.22-1.88.07-.77.52-3.63 8.803-1.813 12.4-.024 25.18-4.05 9.68-2.356 16.636-2.27 17.64-2.16 6.167 3.862 9.656 6.038 16.9 5.53 3.323-.272 5.966-1.878 8.28-4.24 4 3.008 8.485 4.83 14 7.35 22.244 10.18 24.23 18.46 24.23 32.18 1.398 1.975 2.938 5.1 3.7 7.2 4.595 11.34 3.098 22.26 1.022 31.95z"/><path d="M100 18.13z" fill="#26120b"/></g></g><defs><radialGradient id="A" cx="100" cy="114" r="41" xlink:href="#L"><stop stop-opacity=".5" stop-color="#ffe4d6" offset="0"/><stop stop-opacity="0" stop-color="#f0c7b1" offset=".9"/></radialGradient><radialGradient id="B" cx="100" cy="54" r="37" xlink:href="#L"><stop stop-opacity=".5" stop-color="#ffe4d6" offset="0"/><stop stop-opacity="0" stop-color="#f0c7b1" offset=".9"/></radialGradient><linearGradient id="C" x1="100" y1="171" x2="100" y2="127" xlink:href="#L"><stop stop-opacity=".8" stop-color="#e1ac8f" offset="0"/><stop stop-color="#c27b55" offset=".7"/></linearGradient><radialGradient id="D" cx="125.903" cy="85.096" r="13.25" gradientTransform="matrix(-1.0996 0.0423 0.0635 0.9207 206.5488 0.5932)" xlink:href="#L"><stop stop-color="#fff" offset="0"/><stop stop-color="#fdfefe" offset=".544"/><stop stop-color="#f6f8f9" offset=".74"/><stop stop-color="#eaeff2" offset=".879"/><stop stop-color="#d9e3e8" offset=".992"/><stop stop-color="#d8e2e7" offset="1"/></radialGradient><radialGradient id="E" cx="125.541" cy="85.113" r="13.249" gradientTransform="matrix(1.0996 0.0423 -0.0635 0.9207 -6.5488 0.5932)" xlink:href="#L"><stop stop-color="#fff" offset="0"/><stop stop-color="#fdfefe" offset=".544"/><stop stop-color="#f6f8f9" offset=".74"/><stop stop-color="#eaeff2" offset=".879"/><stop stop-color="#d9e3e8" offset=".992"/><stop stop-color="#d8e2e7" offset="1"/></radialGradient><radialGradient id="F" cx="123.371" cy="81.442" fx="136.805" fy="80.36" r="17.038" gradientTransform="matrix(0.9884 0.1367 0.1336 -0.7354 -56.0677 125.3)" xlink:href="#L"><stop stop-color="#e1ac8f" offset="0"/><stop stop-opacity=".3" stop-color="#e1ac8f" offset=".7"/><stop stop-opacity="0" stop-color="#f0c7b1" offset="1"/></radialGradient><radialGradient id="G" cx="78.965" cy="81.143" r="26.237" gradientTransform="matrix(0.7183 -0.06 0.0803 0.6143 8.7915 49.2595)" xlink:href="#L"><stop stop-opacity="0" offset=".95"/><stop stop-opacity=".2" offset="1"/></radialGradient><radialGradient id="H" cx="122.972" cy="81.425" fx="136.406" fy="80.344" r="17.037" gradientTransform="matrix(-0.9884 0.1367 -0.1336 -0.7354 255.271 125.3424)" xlink:href="#L"><stop stop-color="#e1ac8f" offset="0"/><stop stop-opacity=".3" stop-color="#e1ac8f" offset=".7"/><stop stop-opacity="0" stop-color="#f0c7b1" offset="1"/></radialGradient><radialGradient id="I" cx="79.515" cy="81.186" r="26.237" gradientTransform="matrix(-0.7183 -0.06 -0.0803 0.6143 191.2076 49.2665)" xlink:href="#L"><stop stop-opacity="0" offset=".95"/><stop stop-opacity=".2" offset="1"/></radialGradient><path id="J" d="M195.417 199.778c-2.196-4.746-8.195-11.78-14.86-13.722-8.24-2.403-26.837-5.308-33.733-6.923-5.528-1.296-16.662-11.294-20.564-14.65-.7-.6-1.273-1.84-1.287-2.76-.14-10.864 4.195-39.724 4.195-39.724H70.833s4.334 28.86 4.193 39.724c-.01.92-.587 2.16-1.285 2.76-3.902 3.356-15.036 13.354-20.564 14.65-6.897 1.615-25.495 4.62-33.733 7.022-6.667 1.942-12.664 8.876-14.86 13.622-3.708 8.008-4.584 22.5-4.584 35h200c0-12.5-.877-26.99-4.583-35z"/><path id="K" d="M100.002.867C66.384.92 39.082 28.536 39.134 62.56c.01 5.403.704 10.643 2.002 15.634.013.054 8.12 35.81 11.82 47.522 2.775 8.787 14.288 21.99 22.398 25.322 7.826 3.217 13.04 9.828 24.646 9.828s16.82-6.61 24.646-9.828c8.1-3.333 19.624-16.535 22.398-25.322 3.7-11.713 11.81-47.468 11.82-47.522h.002c1.298-4.992 1.994-10.23 2.002-15.634C160.923 28.536 133.62.92 100.002.867z"/><linearGradient id="L" gradientUnits="userSpaceOnUse"/></defs></svg>