<svg xmlns="http://www.w3.org/2000/svg" xmlns:xlink="http://www.w3.org/1999/xlink" width="600" height="600"><style><![CDATA[.W{fill:#f0c7b1}.X{fill:#c27b55}.Y{stroke:#c27b55}.Z{stroke-width:1.5}.a{fill:#2a232b}]]></style><g transform="scale(3)"><path d="M225 225H-25V-25h250V225z" fill="#594f4f"/><g transform="matrix(.849999 0 0 .849999 15.000127 17.015024)"><path d="M155.728 11.564H44.272C28.49 30.7 21.813 58.32 32.46 90.745c8.95 28.09 13.512 36.882 21.14 58.24 0 0 .003-4.164-.1-6.5 3.068 7.797 1.906 5.192 4.19 9.28.064-3.704-.192-7.47-.55-11.13 2.294 9.156 3.72 11.162 6.37 16.48.48-3.005.55-5.6.55-8.3.006.022 5.33 16.002 5.33 16.02l.73 2.15c.284-3.106.558-7.202.773-11.023l2.445 7.11 1.15 8.02c.15-1.35 50.867-1.35 51.018 0l1.15-8.023 2.445-7.11.773 11.023.73-2.15c0-.018 5.324-15.997 5.33-16.02 0 2.69.068 5.295.55 8.3 2.65-5.318 4.076-7.324 6.37-16.48-.357 3.66-.614 7.426-.55 11.13 2.283-4.087 1.12-1.482 4.19-9.28-.103 2.346-.1 6.5-.1 6.5 7.628-21.358 12.2-30.15 21.14-58.24 10.652-32.426 3.974-60.035-11.807-79.18z"/><path d="M155.73 11.562l1.15 5.18c13.415 18.712 18.158 44.437 8.958 73.864-7.896 26.51-10.606 31.566-18.6 55.4.228-8.06-.25-4.342 3.07-16 5.598-19.24 8.217-21.63 8.96-32.1-1.767 11.506-7.022 17.952-10.37 31.68l-1.58 5.44c0 .564-3.993 12.566-4.45 13.58 2.057-30.407 12.97-43.777 18.92-67.34 3.275-14.07 1.713-20.565-.2-34.17-.978-6.89-2.307-14.72-5.38-17.2 3.303 3.303 4.087 11.762 4.66 17.22.404 3.898 2.475 15.697.93 26.87-3.525 20.76-15.2 39.243-17.8 57.66-2.935 11.257-3.17 13.833-7.04 23.04-.176-4.356-.183-7.088.03-10.836 5.97-15.562 4.394-10.082 8-29.964-.22.598-3.94 11.747-7.424 22.354l.902-10.704s0 .01-.01.03c-3.08 20.755-1.168 10.467-6.48 28.02-1.796-14.726 2.294-35.978 2.7-39.28-3.055 12.144-4.802 21.952-4.28 33.93l-.678 2.22-.795-13.94c-.376 17.315.313 1.76-2.906 25.07l-.7 2.038c-.74-5.766-1.127-13.335-1.42-16.19-2.11-.395-4.52-.5-6.55-.5-9.976.257-3.828.93-17.36 1.256-13.532-.327-7.385-1-17.36-1.256-2.03 0-4.438.115-6.55.5-.294 2.854-.68 10.424-1.42 16.19l-.7-2.038c-3.21-23.254-2.532-7.84-2.906-25.07-.004.305-.08 2.204-.795 13.94l-.678-2.22c.52-11.978-1.225-21.786-4.28-33.93.416 3.302 4.506 24.554 2.7 39.28-5.323-17.587-3.395-7.268-6.48-28.02-.01-.02-.01-.03-.01-.03l.902 10.705-7.424-22.354c3.596 19.873 2.02 14.4 7.99 29.965.214 3.747.207 6.48.03 10.835-3.87-9.208-4.105-11.783-7.04-23.02-2.6-18.437-14.265-36.92-17.8-57.68-1.545-11.173.525-22.972.93-26.87.573-5.458 1.357-13.917 4.66-17.22-3.073 2.47-4.402 10.3-5.38 17.2-1.923 13.605-3.485 20.1-.2 34.17 5.95 23.563 16.863 36.933 18.92 67.34-.457-1.014-4.45-13.016-4.45-13.58-.143-.37-1.468-5.054-1.58-5.44-3.348-13.728-8.604-20.174-10.37-31.68.743 10.46 3.362 12.85 8.96 32.1 3.32 11.648 2.843 7.93 3.07 16-7.993-23.844-10.703-28.9-18.6-55.4-9.2-29.427-4.457-55.152 8.958-73.864l1.15-5.18C28.488 30.708 21.813 58.32 32.46 90.745c8.95 28.09 13.512 36.882 21.14 58.24 0 0 .003-4.164-.1-6.5 3.068 7.797 1.906 5.192 4.19 9.28.064-3.704-.192-7.47-.55-11.13 2.294 9.156 3.72 11.162 6.37 16.48.48-3.005.55-5.6.55-8.3.006.022 5.33 16.002 5.33 16.02l.73 2.15c.284-3.106.558-7.202.773-11.023 2.884 8.8 2.18 4.808 3.597 15.133l.458-3.707.06.157c2.23-14.414 2.258-12.435 3.01-18.76 19.125 1.023 24.68 1.032 43.96 0 .757 6.367.762 4.2 3.01 18.76l.06-.158.458 3.708c1.42-10.337.714-6.334 3.597-15.133l.773 11.023.73-2.15c0-.018 5.324-15.997 5.33-16.02 0 2.69.068 5.295.55 8.3 2.65-5.318 4.076-7.324 6.37-16.48-.357 3.66-.614 7.426-.55 11.13 2.283-4.087 1.12-1.482 4.19-9.28-.103 2.346-.1 6.5-.1 6.5 7.628-21.358 12.2-30.15 21.14-58.24 10.65-32.425 3.974-60.037-11.807-79.183zM69.49 163.165c-1.323-5.24-2.458-8.576-3.365-11.2l2.233 5.77c.5-2.595.93-5.54 1.05-6.54a99.19 99.19 0 0 0 .686 2.266l-.604 9.703zm1.56-10.15l.16-3.38c.122.597.6 3.492 1.213 7.415l-1.372-4.036zm6.58-4.6c-.097.384-.678 3.295-1.32 6.632.183-2.98.253-5.58.21-7.292 1.364-.173 5.7-.332 12.026.63l-10.914.03zm44.738 0c-4.185 0-7.79-.01-10.915-.03 5.565-.845 10.097-.874 12.026-.63-.044 1.71.026 4.312.2 7.3l-1.32-6.63zm5.207 8.646l1.213-7.415.16 3.38-1.372 4.036zm2.933 6.114l-.604-9.704.686-2.266c.12 1 .55 3.945 1.05 6.54l2.234-5.776c-.907 2.625-2.042 5.962-3.366 11.206z"/><use xlink:href="#K" class="W"/><path d="M159.156 184.058c24.342 3.542 34.586 8.708 37.794 50.72H200c0-12.5-.877-26.992-4.583-35-2.196-4.746-8.195-11.78-14.86-13.722-8.24-2.403-26.837-5.308-33.733-6.923-5.528-1.296-18.242-12.07-21.643-16.35 3.36 4.704 12.79 15.605 21.054 18.46 3.953 1.366 7.245 1.988 12.92 2.814zm-105.4-2.814c8.263-2.854 17.693-13.756 21.054-18.46-3.4 4.28-16.114 15.054-21.643 16.35-6.896 1.615-25.494 4.62-33.733 7.022-6.665 1.942-12.664 8.876-14.86 13.622-3.706 8.008-4.583 22.5-4.583 35h3.05c3.188-41.744 13.475-47.183 37.794-50.72 5.675-.825 8.968-1.447 12.92-2.813z" fill="#ffe4d6"/><path d="M95.646 197.62l-7.083-2.38c-10.45-4.01-44.395-6.607-44.395-6.607s35.754 1.42 43.644 2.78c-.458-4.767-3.017-20.004-3.017-20.004l6.41 21.057c.674 2.268 4.442 5.154 4.442 5.154zm10.8-1.342c-.09.073-.19.168-.302.268a2.27 2.27 0 0 0 .302-.268zm-10.8 1.342s2.893 2.992 4.347 3.03c1.9.05 4.828-2.9 6.15-4.104-1.265.957-4.16 1.39-5.3 1.436-1.33.05-5.188-.362-5.188-.362zm21.018-7.52c-1.545.248-4.386.79-4.386.79l2.287-14.9c-.646 3.07-4.474 16.21-8.12 20.278 1.9-1.616 6.158-2.39 8.324-2.704 10.236-1.484 10.232-1.483 41.062-4.94 0 0-29.07-.155-39.167 1.467z" fill="#e1ac8f"/><use xlink:href="#K" fill="none" class="Y Z"/><path d="M117.136 169.742c2.515-1.07 5.217-3.028 7.927-5.52-.494-.746-.828-1.684-.84-2.5-.093-7.296 1.775-22.37 3.054-31.753-15.78-1.925-38.77-1.917-54.55.014 1.278 9.384 3.145 24.446 3.05 31.738-.01.79-.348 1.735-.84 2.485 2.712 2.493 5.416 4.454 7.932 5.524 7.443 3.166 26.824 3.166 34.267.001z" fill="url(#C)"/><path d="M100.15 235.5c-36.446 0-72.93-.368-108.45-1.096.12-20.336 7.704-44.37 28.687-51.396 4.938-1.846 16.188-3.148 24.4-4.1l.71-.083.07-.36a.49.49 0 0 1 .274-.269c1.715-.198 2.97-.433 4.08-.64l.728-.135a.9.9 0 0 1 .171-.016.99.99 0 0 1 .728.322c11.402 12.56 25.347 19.213 37.65 25.084l9.567 4.704c.528.276 1.03.565 1.512.844a31.35 31.35 0 0 0 1.534.85l.253.128.24-.15c14.96-9.438 31.82-20.638 43.447-32.137a.8.8 0 0 1 .566-.232.81.81 0 0 1 .184.021c.888.21 1.764.37 2.652.535 1.105.205 2.248.416 3.44.727.023.008.107.068.137.18l.086.326.335.042c2.063.258 4.156.465 6.372.685 9.7.96 20.673 2.045 29.422 8.015 12.045 7.94 17.59 29.405 18.79 47.052l-5.166.096-102.415 1.005z" fill="#cbe9ee"/><path d="M207.736 234.4l-1.725.028c-3.04-16.858-6.315-31.74-17.834-43.4-10.54-8.782-28.915-5.96-42.535-10.97-12.926 14.626-29.187 23.197-43.576 29.28 14.264-9.024 36.136-23.3 43.687-32.288 5.783 1.338 33.56 3.724 43.194 10.297 12.045 7.94 17.59 29.406 18.79 47.052zM51.55 177.73c-.023-.025-26.38 3.49-31.163 5.278C-.596 190.035-8.18 214.07-8.3 234.404l.824.016c1.106-15.27 5.857-28.244 16.094-39.27 10.32-11.26 29.183-10.47 43.568-13.49 15.293 15.293 35.334 23.124 49.88 27.68-22.166-11.21-37.432-17.2-50.515-31.61z" fill="#f1fcfd"/><path d="M189.23 186.936c-10.788-7.36-24.537-7.347-36.014-8.782-.075-.285-.297-.483-.494-.535-2.157-.563-4.103-.794-6.104-1.265-.438-.103-.896.027-1.216.343-12.013 11.882-29.564 23.364-43.362 32.07-.95-.48-1.936-1.113-3.04-1.7-14.32-7.485-32.7-13.834-47.08-29.68a1.48 1.48 0 0 0-1.357-.463c-1.256.227-2.682.527-4.793.772-.207.024-.62.292-.69.67-8.18.947-19.8 2.273-24.85 4.162-20.823 6.974-29.03 30.73-29.03 52.36 120.98 2.487 212.138 0 217.07 0-.97-15.288-5.795-39.23-19.04-47.96zm-43.64-9.022c1.88.592 3.384 1.044 5.9 1.58-2.104 1.75-1.066.36-7.82 6.67-13.685 12.477-36.478 27.873-40.103 30.926-.008-.003-4.283-2.62-5.545-3.133 8.657-8.14 30.58-16.81 47.558-36.044zm-93.9.54c9.43 13.735 30.987 22.687 46.8 29.723.95.42 1.86.82 2.72 1.15-.704.48-4.058 3.3-4.647 3.874-31.748-13.89-41.13-22.162-50.322-33.566l5.45-1.18zm-59.83 56.103c1.432-12.942 3.708-24.542 11.97-36.52 9.405-13.872 22.03-15.55 41.8-18.282 12.18 14.89 15.774 17.207 27.37 23.183 17.2 8.864 23.096 11.082 30.617 14.896 7.062-5.305 27.974-17.45 44.293-34.058 2.604-2.647 2.32-2.323 4.27-4.13 30.93 5.092 45.37-.38 55.44 54.742-74.084-1.467-142.612-1.308-215.76.17z" fill="#6ab4c0"/><path d="M47 83.23c-1.376-2.453-5.638-8.48-9.98-7.003-2.75.935-3.293 3.993-3.735 6.693-.588 3.59.47 10.694 1.39 13.26.88 2.467 3.533 7.23 5.264 9.045 2.13 2.225 4.775 9.324 5.194 10.06.66 1.162 1.536 2.91 4.122 2.692 2.853-.244 4.584-1.85 5.856-2.12 3.142-.666-4.53-26.242-8.1-32.627z" class="W Y Z"/><path d="M44.197 98.104c-.132-.58.007-1.56.142-2.504.124-.86.24-1.675.17-2.25-.267-2.154-1.773-6.25-2.757-8.467-1.132-2.554-2.963-5.77-5.262-6.6-.95-.343-1.575.067-1.938.484-.266.305-.325.665-.238.707s.285-.254.572-.535a1.3 1.3 0 0 1 1.051-.385c-.2 1.073-1.167 6.883-.744 10.845.333 3.115 1.593 5.442 1.8 5.79.03.367.077.726.148 1.075.93 4.547 4.97 9.717 6.378 11.41.26.313.53.497.598.423s-.094-.387-.353-.7c-1.388-1.68-5.39-6.83-6.29-11.218-.952-4.656 2.318-11.556 3.048-13.017.37.685.687 1.344.93 1.893a46.61 46.61 0 0 1 .619 1.479c-.43.762-3.434 6.32-2.338 10.767.406 1.64 2.235 3.755 3.447 4.333.667.32.92.797 1.21 1.35.336.64.718 1.365 1.828 1.892.225.108.43.15.6.15a1.06 1.06 0 0 0 .725-.293 11.84 11.84 0 0 1 .009.97c-.012.43.042.783.137.79s.196-.332.207-.76c.016-.526.013-1.177-.072-1.488-.248-.917-1.008-1.953-1.813-3.048-.79-1.082-1.607-2.195-1.813-3.094zm-7.247-4.03c-2.177-7.14.656-13.3 1.144-14.28.85.822 1.6 1.92 2.2 2.995-.444.858-3.263 6.483-3.354 11.285zm9.39 10.442c-1.004-.475-1.34-1.115-1.666-1.733-.293-.56-.598-1.136-1.37-1.505-.168-.08-.352-.203-.542-.343-2.486-6.263.272-9 .963-9.562.21.766.37 1.468.44 2.03.063.517-.052 1.34-.167 2.134-.142.985-.286 2.004-.137 2.664.226.982 1.07 2.13 1.884 3.242.723.986 1.466 2.003 1.72 2.832-.108.164-.45.56-1.126.24z" class="X"/><path d="M152.736 83.23c1.377-2.453 5.64-8.48 9.98-7.003 2.75.935 3.293 3.993 3.736 6.693.588 3.59-.47 10.694-1.39 13.26-.88 2.467-3.533 7.23-5.266 9.045-2.13 2.225-4.775 9.324-5.193 10.06-.658 1.162-1.535 2.91-4.12 2.692-2.854-.244-4.584-1.85-5.857-2.12-3.142-.666 4.53-26.242 8.1-32.627z" class="W Y Z"/><path d="M153.727 101.196c-.805 1.096-1.564 2.13-1.813 3.048-.086.31-.088.962-.072 1.488.012.428.113.768.207.76s.148-.36.137-.79l.01-.97a1.06 1.06 0 0 0 .725.293c.182 0 .385-.043.61-.15 1.11-.526 1.492-1.252 1.828-1.892.29-.552.543-1.028 1.21-1.35 1.213-.578 3.04-2.692 3.447-4.333 1.096-4.447-1.908-10.005-2.338-10.767a46.99 46.99 0 0 1 .619-1.479 27.35 27.35 0 0 1 .93-1.893c.73 1.46 4 8.36 3.05 13.017-.896 4.387-4.9 9.54-6.29 11.218-.258.313-.418.624-.352.7s.338-.11.598-.423c1.406-1.692 5.45-6.862 6.38-11.41a9.15 9.15 0 0 0 .146-1.075c.197-.35 1.46-2.676 1.79-5.79.422-3.96-.555-9.772-.744-10.845.473-.042.814.156 1.05.385.287.28.486.577.572.535s.027-.402-.238-.707c-.363-.417-.988-.827-1.938-.484-2.3.83-4.13 4.045-5.262 6.6-.984 2.218-2.5 6.313-2.758 8.467-.072.576.045 1.4.17 2.25.135.945.273 1.924.14 2.504-.205.9-1.023 2.014-1.814 3.094zm5.707-18.41c.61-1.075 1.36-2.173 2.21-2.995.488.98 3.32 7.14 1.145 14.28-.093-4.8-2.91-10.426-3.356-11.285zm-7.164 21.488c.254-.83.998-1.846 1.72-2.832.816-1.11 1.658-2.26 1.885-3.242.148-.66.004-1.68-.137-2.664-.115-.795-.23-1.617-.166-2.134.068-.563.227-1.266.438-2.03.69.56 3.45 3.3.965 9.562a3.57 3.57 0 0 1-.543.343c-.77.37-1.074.946-1.37 1.505-.326.618-.662 1.258-1.666 1.733-.677.32-1.02-.076-1.128-.24z" class="X"/><use xlink:href="#L" class="W"/><path d="M110.152 1.984c26.994 6.347 47.097 30.857 47.052 60.124-.01 5.407-.704 10.65-2.004 15.646-.012.054-9.158 37.218-14.396 48.677-4.417 9.66-16.244 27.27-25.867 31.82-3.17 1.5-11.44 1.855-14.935 1.855s-11.765-.356-14.933-1.855c-9.623-4.55-21.45-22.162-25.867-31.82-5.24-11.46-14.385-48.623-14.396-48.677a62.42 62.42 0 0 1-2.004-15.646C42.756 32.84 62.857 8.33 89.853 1.984c-28.823 4.9-50.766 30.292-50.72 60.87.008 5.406.704 10.65 2.004 15.645.012.054 8.78 37.213 14.13 48.677 4.602 9.862 17.738 27.917 27.6 32.566 3.67 1.732 13.088 2.374 17.134 2.374s13.464-.643 17.133-2.374c9.862-4.65 23-22.704 27.6-32.566 5.35-11.464 14.12-48.623 14.13-48.677 1.3-4.996 1.996-10.24 2.004-15.645.047-30.578-21.896-55.97-50.72-60.87z" fill="#e8b9a0"/><use xlink:href="#L" fill="none" class="Y Z"/><path d="M100.39 141.808c-3.458 0-4.907-2.678-4.907-2.678l9.74-.188c0-.001-1.79 2.866-4.833 2.866z" fill="url(#D)"/><path d="M98.82 139.206c-1.78 0-3.136-.17-3.23-.184-.146-.02-.248-.146-.228-.282s.157-.227.3-.214c.04.006 6.084.5 9.357-.195.156-.03.29.057.32.19s-.06.27-.202.3c-1.41.3-5.042.387-6.318.387zm-14.43-5.382c-.365-.663 4.097.11 6.8-.55 2.98-.732 6.1.208 9.133.48 2.382.213 4.838-.975 7.19-.436 3.26.747 8.236-.196 7.843.594-.273.548-4.893 1.05-7.524.604-2.3-.4-4.683.556-7.006.73-2.885.217-5.767-1.385-8.614-.933-3.282.52-7.503.077-7.813-.487z" class="X"/><path d="M78.863 89.23c-4.3.755-7.656.7-10.688-.204-3.127-.943-7.188-4.825-8.596-8.495 3.715-.277 11.35-.597 14.9-.154 4.688.586 9.474 2.406 12.305 5.236-.016.294-.053.583-.087.872-2.286 1.547-5.52 2.34-7.824 2.745z" fill="url(#E)"/><path d="M80.038 85.838c-.87 3.192-4.162 5.073-7.36 4.196s-5.084-4.178-4.214-7.37 4.168-5.076 7.365-4.198 5.08 4.177 4.2 7.373z" fill="#4e60a3" stroke="#152975" stroke-width=".5"/><path d="M79.105 85.912c-.85 2.452-3.407 3.88-5.9 3.2-2.3-.63-3.752-2.838-3.563-5.17.853-.067 1.787-.087 2.756-.04-.01.033-.027.062-.036.096-.306 1.125.407 2.305 1.592 2.63s2.4-.326 2.707-1.45c.04-.147.06-.294.065-.44a11.73 11.73 0 0 1 2.378 1.176z" fill="#6777b2"/><path d="M75.063 82.46c-1.203-.344-2.43.342-2.74 1.54-.31 1.19.412 2.438 1.614 2.783s2.43-.342 2.74-1.534c.313-1.198-.413-2.444-1.616-2.79zm.262 4.232c-.5.156-1.017-.05-1.154-.462s.163-.867.667-1.02 1.02.05 1.157.46-.163.867-.67 1.022z" opacity=".9"/><g fill="#fff"><path d="M71.06 87.41c-.37.222-.922.023-1.238-.447s-.27-1.024.102-1.247.925-.02 1.24.446.267 1.027-.103 1.248z" opacity=".6"/><path d="M78.96 84c-.846.507-2.117.05-2.837-1.02s-.612-2.352.234-2.857 2.118-.053 2.834 1.02.615 2.35-.23 2.858z" opacity=".8"/></g><path d="M55.8 85c0 13.808 8.06 25 18 25s18-11.19 18-25-8.06-25-18-25-18 11.192-18 25zm3.78-4.47c3.715-.277 11.35-.597 14.9-.154 4.952.62 10.04 2.6 12.788 5.7-2.29 1.82-5.897 2.705-8.395 3.143-4.3.755-7.656.7-10.688-.204-3.126-.943-7.187-4.825-8.595-8.495z" class="W"/><path d="M55.942 83.916c.027 8.284 8.484 14.962 18.902 14.92s18.836-6.796 18.813-15.08-8.486-14.963-18.902-14.92-18.836 6.796-18.813 15.08zm3.638-3.385c3.715-.277 11.35-.597 14.9-.154 4.952.62 10.04 2.6 12.788 5.7-2.29 1.82-5.897 2.705-8.395 3.143-4.3.755-7.656.7-10.688-.204-3.126-.943-7.187-4.825-8.595-8.495z" fill="url(#G)"/><path d="M59.58 80.53c3.715-.277 11.35-.597 14.9-.154 4.952.62 10.04 2.6 12.788 5.7-2.29 1.82-5.897 2.705-8.395 3.143-4.3.755-7.656.7-10.688-.204-3.126-.943-7.187-4.825-8.595-8.495z" fill="url(#H)"/><path d="M67.563 77.096c10.603-.48 13.85 1.478 18.34 4.3-7.46-4.373-16.872-4.354-18.34-4.3zm-7.966 7.057c2.854 5.494 4.797 4.894 7.53 6.058.025.01-1.5-.58-2.664-1.196-3-1.72-3.356-2.45-4.867-4.862z" class="X"/><path d="M58.468 79.966c2.857 5.992 4.76 9.926 14.332 10.07 7.283.11 11.794-.564 15.584-3.374-3.395-5.194-7.754-6.77-13.57-7.358-5.9-.596-16.346.66-16.346.66zm2.037.86c3.467-.258 10.6-.557 13.895-.144 4.62.577 9.37 2.426 11.934 5.328-2.137 1.7-5.504 2.524-7.834 2.933-4.02.705-7.145.663-9.973-.2-2.92-.88-6.708-4.502-8.022-7.927z"/><path d="M120.737 89.23c4.3.755 7.656.7 10.688-.204 3.127-.943 7.188-4.825 8.596-8.495-3.715-.277-11.35-.597-14.9-.154-4.688.586-9.474 2.406-12.305 5.236.016.294.053.583.087.872 2.286 1.547 5.522 2.34 7.824 2.745z" fill="url(#F)"/><path d="M131.538 85.838c-.87 3.192-4.162 5.073-7.362 4.196s-5.084-4.178-4.214-7.37a5.99 5.99 0 0 1 7.365-4.198c3.195.875 5.08 4.177 4.21 7.373z" fill="#4e60a3" stroke="#152975" stroke-width=".5"/><path d="M130.605 85.912c-.85 2.452-3.408 3.88-5.9 3.2-2.3-.63-3.753-2.838-3.563-5.17a21.91 21.91 0 0 1 2.756-.04c-.01.033-.027.062-.036.096-.306 1.125.407 2.305 1.593 2.63s2.4-.326 2.707-1.45c.038-.147.06-.294.065-.44.812.296 1.61.68 2.377 1.176z" fill="#6777b2"/><path d="M126.563 82.46c-1.202-.344-2.43.342-2.738 1.54-.312 1.19.412 2.438 1.613 2.783s2.43-.342 2.742-1.534c.31-1.198-.414-2.444-1.617-2.79zm.262 4.232c-.5.156-1.018-.05-1.154-.462s.163-.867.667-1.02 1.02.05 1.157.46-.163.867-.67 1.022z" opacity=".9"/><g fill="#fff"><path d="M122.562 87.41c-.37.222-.923.023-1.238-.447s-.27-1.024.102-1.247c.367-.22.926-.02 1.24.446s.266 1.027-.103 1.248z" opacity=".6"/><path d="M130.46 84c-.846.507-2.116.05-2.837-1.02s-.612-2.352.234-2.857 2.117-.053 2.834 1.02.616 2.35-.23 2.858z" opacity=".8"/></g><path d="M125.8 60c-9.94 0-18 11.193-18 25s8.06 25 18 25 18-11.19 18-25-8.06-25-18-25zm5.624 29.026c-3.03.914-6.378.96-10.688.204-2.497-.438-6.105-1.323-8.395-3.143 2.748-3.1 7.836-5.09 12.788-5.7 3.54-.443 11.175-.123 14.9.154-1.408 3.67-5.468 7.552-8.595 8.495z" class="W"/><path d="M124.846 68.835c-10.416-.043-18.875 6.635-18.902 14.92s8.398 15.033 18.813 15.08 18.875-6.635 18.902-14.92-8.397-15.034-18.813-15.08zm6.58 20.19c-3.03.914-6.378.96-10.688.204-2.497-.438-6.105-1.323-8.395-3.143 2.748-3.1 7.836-5.09 12.788-5.7 3.54-.443 11.175-.123 14.9.154-1.408 3.67-5.468 7.552-8.595 8.495z" fill="url(#I)"/><path d="M140.02 80.53c-3.715-.277-11.35-.597-14.9-.154-4.952.62-10.04 2.6-12.788 5.7 2.29 1.82 5.897 2.705 8.395 3.143 4.3.755 7.656.7 10.688-.204 3.126-.943 7.186-4.825 8.595-8.495z" fill="url(#J)"/><path d="M113.697 81.396c4.49-2.822 7.736-4.78 18.34-4.3-1.467-.054-10.88-.073-18.34 4.3zm21.44 7.62c-1.154.617-2.69 1.205-2.664 1.196 2.734-1.164 4.678-.564 7.53-6.058-1.512 2.4-1.877 3.142-4.867 4.862z" class="X"/><path d="M124.787 79.305c-5.816.587-10.176 2.165-13.57 7.358 3.8 2.81 8.3 3.483 15.584 3.374 9.57-.145 11.474-4.08 14.33-10.07 0 0-10.446-1.257-16.345-.66zm6.287 9.45c-2.828.853-5.95.895-9.973.2-2.33-.41-5.697-1.234-7.834-2.933 2.564-2.902 7.313-4.75 11.934-5.328 3.305-.413 10.428-.114 13.895.144-1.315 3.425-5.104 7.048-8.022 7.927z"/><path d="M141 113.974c.035 22.622-18.292 40.994-40.938 41.025-22.642.037-41.028-18.273-41.063-40.9C58.964 91.48 77.29 73.035 99.936 73s41.03 18.35 41.064 40.975z" fill="url(#A)"/><path d="M137.5 54c0 20.71-16.79 37.5-37.5 37.5S62.5 74.7 62.5 54 79.3 16.5 100 16.5s37.5 16.79 37.5 37.5z" fill="url(#B)"/><path d="M74.8 71.28c-4.425-.475-21.252 3.714-21.252 3.714s16.8-6.74 23.757-5.667c5.188.798 14.397 5.077 12.706 7.34-1.36 1.82-5.602-4.354-15.2-5.386zm34.93 5.118c-1.713-2.292 7.592-6.3 13.546-6.804 7.117-.6 22.914 4.085 22.914 4.085s-15.9-2.628-20.377-2.106c-9.816 1.145-14.704 6.67-16.083 4.825z" class="a"/><path d="M95.993 113.767c-.22 2.28.695 4.137 1.688 4.51 2.534.95 2.097-.253 2.327-4.16.493-8.37-.306-28.12-.306-28.12l-3.71 27.768z" fill="#fff5ef" opacity=".2"/><path d="M96.658 109.854s-2.25 4.36-1.897 5.857c.458 1.947 2.677 3.5 6.516 3.265-3.965-.567-4.42-1.79-4.82-3.392-.35-1.396.2-5.73.2-5.73z" class="X"/><path d="M100 151c-2-.86-3.7-1.78-4.6-4.15-4.7-12.4 13.98-12.07 9.2 0-.94 2.4-2.57 3.26-4.6 4.15z" class="a"/><path d="M99.12 148.32c-.98-1.33-1.2-1.6-1.7-3-.03.01-.1-.55-.2-1.1-.01-1.48-.1-1.92 1.3-4.3-.6 1.8-.58 1.8-.78 3.24-.1 0 .1 2.05.18 2.04.53 1.72.6 1.82 1.18 3.13zm1.92-8.42c1.58 2.3 1.6 4.8.92 7.67 1.37-2.75 1.35-5.52-.92-7.67zm0 2.34c-.13 2.04-1.12 3.83-.33 6.08-.27-2.1.56-4.1.33-6.08zm-2.1-.75l.42 6.25c.3-2.65.36-3.75-.42-6.25z" fill="#1b141c"/><path d="M95.3 146.9c.9 2.33 2.53 3.28 4.7 4.22 2.26-.98 3.77-1.88 4.7-4.22 4.84-12.25-14.16-12.57-9.4 0zm8.8-.65c-1.05 2.3-2.24 3.52-4.1 4.66-3.47-2.23-4.7-5.1-4.5-7.15.64-9.9 11.12-5.96 8.6 2.5z" fill="#0c080c"/><path d="M123.28 136.02c-4-.95-13-5.9-17.78-5.9-1.46 0-3.16.28-5.5.9-7-1.53-4.96-1.42-13.25 1.06-3.17.95-4.9 2.5-9.78 3.8.85-1.83.7-5.82 5.76-13.44.03-.05.06-.1.1-.17 5.35 5.23 10.14-1.65 12.58-3.25 1.05.78 3.15 3.73 5.08 3.4 2 0 3.58-1.77 4.72-3.4 1.35.83 3.82 5.57 6.6 5.57 1.75 0 3.42-1.4 4.82-2.72 1.72 1.83 5.62 8.84 6.67 14.15z" class="a"/><path d="M116.6 121.74l-.6.56c-1.9 1.55-2.92 2.42-4.87 2.16-2.4-.66-4.84-5-5.97-5.56-.9 1.3-2.55 3.43-4.7 3.43-1.9.33-4.06-2.72-5.06-3.4-.9.52-5 5.12-8.08 5.2-1.24.04-3.05-.5-4.53-2v.01l-.15.27c-5.27 7.94-4.9 11.9-5.87 13.65 5.06-1.34 6.8-2.9 10-3.87 8.58-2.56 6.12-2.52 13.25-1.06 6.94-1.82 7.83-.54 13.24 1.06 2.8.84 6.16 3.06 10.16 3.97-1.06-5.58-5.18-12.78-6.8-14.4zm-3.04 9.4c-7.1-2.1-6.73-2.83-13.57-.22-6.77-2.63-6.5-1.87-13.55.22-3.2.94-5.9 2.82-8.82 4.02 2.18-4.04.9-5.13 5.3-12.38.01.02.03.03.04.05 5.17 4.48 8.6-.28 11.4-2.7.2-.17.87-.84.96-.95 2.5 2.82 4.16 4.7 7.16 3.12 1.23-.74 2.2-1.73 2.8-3 1.88 2.16 3.34 5.74 6.5 5.9 1.33-.18 2.42-.22 4.83-3.1 2.2 3.83 5.2 9.23 6.34 13.37-5.9-2.6-7.1-3.66-9.37-4.33z" fill="#1b141c"/><path d="M81.23 37.267c12.868-1.984 19.27-3.835 26.7-2.01 17.444-4.256 44.396 12.82 44.058 12.472L141.505 9.063 88.143 6.88 81.23 37.267z"/><path d="M50.214 85.807c2.957 4.436 8.314 11.276 12.34 14.71-2.166-5.2-11.455-39.957-5.884-58.116 6.415 19.058 17.9 30.843 28.96 35.166 4.524 6.434 11.05 13.318 16.96 17.638-3.693-7.418-14.39-22.06-13.44-31.808 6.02 10.762 17.187 23.032 22.754 24.513-17.154-28.85-24.745-57.414-13.65-68.47 3.388 2.466 7.684 11.057 9.76 16.067 3.816-6.81 15.5-21.19 21.898-17.104 3.72.333 4.728 10.728 7.586 22.708 4.045 16.953 10.875 32.875-4.194 59.398 11.12-7.51 12.444-18.398 15.07-22.8 5 10.392-18.126 49.618-21 53.267C141.62 122.75 151.022 102.456 154 95c13.552-33.93 9.558-52.597 1.728-83.436-7.896-9.58-18.07-17.045-29.498-21.93-19.196-8.478-46.62-8.02-66.12-.95-23.24 8.537-45.426 35.3-44.1 59.82.534-2.312 1.69-7.77 3.347-10.7 4.4-7.42 7.084-12.414 19.143-22.31-4.31 7.94-9.086 17.787-11.97 26.22-.38 1.2-.1-.002-.92 3.2-4.83 19.6-4.502 36.043 4.05 57.6 0-.617-.12-5.095-.2-6.84-.83-30.82-3.078-26.765 4.546-46.484-1.788 11.785-5.23 15.16 3.954 54.514 2.67 11.057 7.916 20.03 9.1 21.63l14.5 20.58c-.205-.998-3.327-14.442-3.46-15l.224.6c-3.956-14.167-9.11-30.12-8.1-45.687z" fill="#080806"/><path d="M155.728 11.564c-1.65-2-3.403-3.904-5.24-5.716 11.457 21.016 11.06 63.695.934 85.15 7.038-29.28 4.398-51.764-3.538-68.978 1.987 16.464 2.237 31.978-1.7 49.464-1.172-27.563-6.817-57.424-16.322-59.923-10.977-2.886-15.54 8.058-20.77 13.673-.173-8.436-7.063-13.397-11.004-11.64-9.89 4.408-8.668 29.14-6.553 40.405-8.174-20.514-3.4-27.292-2.115-43.828-13 15-12.09 31.694-7.428 48.83-11-19-8-43 7-59C67.23 10.592 59.735 34.63 70.185 59.893 58.097 42.44 64.788 21.3 67.23 3.625 52.156 34.975 45.806 45.856 50.778 77c-13.436-30.542 1.965-56.832 9.727-69.15-6 4-13.52 12.6-17.765 22.646C44.692 23.606 51.123 11.063 59 6c-13.274 4.286-19.292 15.97-22.46 23.692C41.606 7.936 59.577 3.01 66.338-2.24 46.903-.25 37.683 11.52 30.683 17.52c8.842-14.47 20.325-21.704 38.333-31.46-3.097.738-6.09 1.604-8.907 2.624-23.24 8.537-45.426 35.3-44.1 59.82.534-2.312 1.69-7.77 3.347-10.7 4.4-7.42 7.084-12.414 19.143-22.31-4.31 7.94-9.086 17.787-11.97 26.22-.38 1.2-.1-.002-.92 3.2-4.83 19.6-4.502 36.043 4.05 57.6 0-.617-.12-5.095-.2-6.84-.83-30.82-3.078-26.765 4.546-46.484-1.788 11.785-5.23 15.16 3.954 54.514 2.67 11.057 7.916 20.03 9.1 21.63l14.5 20.58c-.205-.998-3.327-14.442-3.46-15l.224.6c-3.956-14.168-9.1-30.122-8.1-45.688 2.957 4.436 8.314 11.276 12.34 14.71-2.166-5.2-11.455-39.957-5.884-58.116 6.415 19.058 17.9 30.843 28.96 35.166 4.525 6.434 11.05 13.318 16.96 17.638-3.693-7.418-14.39-22.06-13.44-31.808 6.02 10.762 17.187 23.032 22.754 24.513-17.154-28.85-24.745-57.414-13.65-68.47 3.165 2.303 7.12 9.95 9.32 15.03.018-1.067.018-1.067 0 0l.44 1.036c3.816-6.81 15.5-21.19 21.898-17.104 3.72.333 4.728 10.728 7.586 22.708 4.045 16.953 10.875 32.875-4.194 59.398 11.12-7.51 12.444-18.398 15.07-22.8 5 10.392-18.126 49.618-21 53.267C141.62 122.75 151.022 102.456 154 95c13.552-33.93 9.558-52.597 1.728-83.436z"/><path d="M54.62 131.235c-4.236-6.19-8.827-15.104-12.867-30.5l-.8-3.182c-4.715-19.148-7.16-35.212-2.584-50.318-2.627 11.9-1.206 21.003.692 32.688 2.087 12.705 7.72 37.278 15.558 51.312zm-21-94.75c-5.395 14.443-7.984 24.807-7.5 39 .504-10.11 1.39-18.327 7.5-39zm22 2.5c-2.777 13.875-4.327 20.93-1.716 33.45 1.867 9.42 3.447 14.162 6.216 23.3-7.462-34.216-7.615-31.35-4.5-56.75zm17.25 2.75c1.788 20.072 12.1 36.972 27.25 50.5-13.57-14.238-24.14-31.3-27.25-50.5zm12.75 5.5c5.267 19.48 9.782 27.643 25.6 39.93-14.708-13.427-18.402-19.485-25.6-39.93zm80.185-14.496C165.2 30.92 159.382 18.767 152 10.714c5.357 6.684 9.14 14.642 12.457 21.823.001 0 .112.22.25.63 4.96 13.976 5.6 33.072 5.09 39.832 1.51-9.67.907-26.54-3.98-40.26zM152.88 94.235l-7.598 14.196a3.15 3.15 0 0 1-.216.378c-7.072 11.362-8.508 11.86-15.897 20.216 11.51-11.104 14.506-13.565 23.71-34.8zM143.3 68c.153 13.452-2.03 20.352-9.018 31.167 7.1-9.32 10.17-16.986 9.018-31.167zm-89.93 49.343s-.196-.748-.432-1.883c-3.218-15.218-3.527-22.92-3.817-29.715-.43 13.946.793 27.354 8.5 50.75l-4.25-19.152zM28.804 16.08c3.802-5.144 5.058-6.782 9.815-11.093-8.532 6.663-14.775 14.633-19.724 29.688-.392 1.132-.346 1.07-.776 3.062 2.85-9.275 10.685-22.263 10.685-21.657zM57.43 41.485c4.052 13.7 12.798 26.843 25.67 34-12.003-8.066-20.84-21.406-25.67-34zm77.124-26.903c-1.265-1.483-2.858-2.238-4.327-2.826 1 .48 1.648.748 2.607 1.548 1.106 1.053 2.36 2.36 3.324 4.244 5.606 10.22 9.457 41.92 10.297 52.955-.033-10.903-2.88-46.483-11.9-55.92zM97.77 13.216c4.98.07 8.812.213 12.01 12.17-2.4-13.053-8.2-12.38-12.01-12.17zM89.335-.068C80.56 6.535 75.98 18.66 75.792 29.408c1.04-10.47 5.662-22.547 13.543-29.476z" fill="#171714"/><path d="M155.83 11.662C147.935 2.08 137.657-5.48 126.23-10.365c-19.196-8.478-46.62-8.02-66.12-.95-23.24 8.537-45.426 35.3-44.1 59.82 2.566-11.025 8.714-20.72 22.5-33-4.31 7.94-9.086 17.787-11.97 26.22-.38 1.2-.1-.002-.92 3.2-4.83 19.6-4.502 36.043 4.05 57.6 0-.617-.12-5.095-.2-6.84-.83-30.82.813-32.675 5.837-51.16-3.8 12.478-6.52 19.835 2.663 59.2 2.67 11.057 7.916 20.03 9.1 21.63l14.5 20.58c-.206-1-11.993-45.903-11.3-58.2 3.365 4.433 9.484 11.38 13.86 14.88-2.168-6.38-5.93-23.423-6.5-27.07l-.38-2.68c-1.19-7.29-1.932-21.02-.26-29.18 1.48 5.06 4.965 13.05 8.2 17.43 6.745 9.38 9.956 11.43 19.7 16.9 6.016 8.228 11.756 13.338 19.13 18.68-11.845-20.01-13.297-24.944-14.5-32.12 5.456 11.223 12.598 19.667 23.69 24.6-8.703-17.044-22.838-44.488-17.46-62.38.946-3.08 2.045-5.154 2.57-5.85v-.02c.068-.147.06-.13.1-.2 1.688 1.205 7.787 9.563 9.5 15.56.01-.01.01-.02.02-.03 1.267-2.533 4.484-7.17 7.73-10.56 16.615-16.613 16.758-2.04 18.72 7.4 8.082 32.594 11.446 46.342-3.43 69.58 8.596-3.947 15.656-15.09 17.52-24.45-3.16 23.102-11.22 34.676-23.7 55.74l3.6-2.6c32.326-22.212 42.264-80.4 30.242-102.902 8.775 19.99.51 75.588-29.77 101.052 19.955-29.485 20.537-43.486 22.56-65.62 1.35-14.31.45-18.735-.48-23.47.543 4.677.84 7.448-.26 17.42-1.973 15.043-4.987 31.514-16.69 41.8 13.733-20.855 10.343-35.993 2.68-65.98-1.98-7.784-2.434-23.397-15.47-14.3-5.16 3.425-10.166 10.124-13 15.68-1.562-5.65-4.792-11.777-9.97-17.24-.02-.02-.05-.07-.07-.06-1.822 2.912-10.67 11.246-2.6 37.07 3.86 12.465 9.448 22.083 15.67 32.4-13.746-7.828-28.114-32.458-26.79-51.62.313-5.36 1.382-12.417 1.22-17.9-.807 13.3-5.346 21.354-.98 34.6a96.5 96.5 0 0 0 3.15 8.55c.56 13.1 6.94 22.296 13.94 33.65-17.286-15.125-27.847-36.655-30.3-57.9-.6-8.8 3.465-23.018 7.2-25.15-3.907 2.627-8.805 12.24-9.3 23.48-.385 10.926 6.498 30.484 14.2 41.27-9.374-6.058-18.5-12.9-26.13-34.66 1.9-8.935 4.806-14.084 5.6-25.9-1.883 12.57-4.897 15.59-8.03 28.1-2.01 7.073-2.438 30.36 6.75 55.33-5.463-6.07-14.528-19.557-16.93-27.3-8.496-22.848 3.52-47.84 6.52-51.8 1.66-2.32 4.09-4.836 5.07-7.43-3.984 6.947-6.792 4.377-14.27 24.56-4 11.964-3.175 25.464.46 35.44 1.32 3.516 4.86 9.505 6.88 14.2-1.688 13.47 5.97 41.852 9.82 54.5-10.324-16.373-17.78-24.85-22.22-53.02-3.586-22.754-7.284-36.62 11.98-75.14-3.442 6.136-5.164 9.043-9.13 17.13l-.01.01c-9.9 20.647-13.65 35.24-12.38 60.03-6.982-29.604.523-49.203 13.14-76.3C42.383 11.562 54.786 3.262 59.63 0c-4.802 2.877-35.973 19.182-42.84 43.215 2.334-20.755 21.345-44.678 43.8-52.7 18.812-6.53 46.02-7.1 64.75 1.18 12.79 5.48 23.954 14.45 31.83 25.437l-1.348-5.48z"/><g fill="#fff"><path d="M91.7 89.23c-3.7 7.46-14.12 8.15-17.78 8.15H61.8c-5.75 0-10.86-8-10.86-14.3v-6.16c0-.23.1-.46.3-.7l40.47 13zm18.68-12.58c-2.07 1.43-3.4 3.35-3.4 5.92v.5c0 2.44.5 4.47 1.34 6.15 3.7 7.46 14.12 8.15 17.78 8.15h12.12c4.1 0 7.85-4.05 9.68-8.66l-37.53-12.06z" opacity=".2"/><path d="M91.7 89.23l-40.48-13c1-1.32 4.4-2.7 6.15-2.9 2.18-.26 6.63-.7 11.94-.7 8.86 0 23.72 1.3 23.72 9.96v.5c0 2.44-.5 4.47-1.33 6.15zm57.38-6.15v-6.16c0-.23-.1-.46-.3-.7-1-1.32-4.4-2.7-6.15-2.9-2.18-.26-6.63-.7-11.94-.7-6.23 0-15.4.64-20.33 4.03L147.9 88.7c.75-1.86 1.18-3.8 1.18-5.63z" opacity=".4"/></g><path d="M149.73 78.68v-1.76c0-2.1-4.9-4-7-4.25-9.42-1.12-31.52-2.02-35.7 6.76-2.78-.92-5.88-1.28-7.02-1.3-1.14.01-4.24.37-7.02 1.3-4.17-8.77-26.27-7.88-35.7-6.76-2.1.25-7 2.14-7 4.25v1.76H45.5v2.36h4.77v2.04c0 6.3 5.15 14.94 11.5 14.94H73.9c8.33 0 19.76-3.13 19.76-14.94v-.5c0-.76-.1-1.46-.3-2.12 3.46-1.07 5.55-1.3 6.62-1.3 1.07.01 3.16.24 6.62 1.3-.2.66-.3 1.36-.3 2.12v.5c0 11.8 11.44 14.94 19.76 14.94h12.12c6.36 0 11.5-8.64 11.5-14.94v-2.04h4.77v-2.36h-4.75zm-56.87 4.4c0 13.1-14.5 14.13-18.95 14.13H61.8c-5.66 0-10.7-7.9-10.7-14.13v-6.16c0-1.3 4.1-3.18 6.3-3.44 2.17-.26 6.62-.7 11.92-.7 8.8 0 23.55 1.27 23.55 9.8v.5zm56.05 0c0 6.23-5.04 14.13-10.7 14.13H126.1c-4.45 0-18.95-1.02-18.95-14.13v-.5c0-8.52 14.76-9.8 23.55-9.8 5.3 0 9.75.43 11.92.7 2.2.26 6.3 2.13 6.3 3.44v6.16z" fill="#26120b"/></g></g><defs><radialGradient id="A" cx="100" cy="114" r="41" xlink:href="#M"><stop stop-opacity=".5" stop-color="#ffe4d6" offset="0"/><stop stop-opacity="0" stop-color="#f0c7b1" offset=".9"/></radialGradient><radialGradient id="B" cx="100" cy="54" r="37" xlink:href="#M"><stop stop-opacity=".5" stop-color="#ffe4d6" offset="0"/><stop stop-opacity="0" stop-color="#f0c7b1" offset=".9"/></radialGradient><linearGradient id="C" x1="100" y1="172" x2="100" y2="128.5" xlink:href="#M"><stop stop-opacity=".8" stop-color="#e1ac8f" offset="0"/><stop stop-color="#c27b55" offset=".7"/></linearGradient><linearGradient id="D" x1="100" y1="142" x2="100" y2="139" xlink:href="#M"><stop stop-color="#e8b9a0" offset=".1"/><stop stop-color="#e1ac8f" offset="1"/></linearGradient><radialGradient id="E" cx="127.199" cy="84.835" r="14" gradientTransform="matrix(-1 0 0 1 200 0)" xlink:href="#M"><stop stop-color="#fff" offset="0"/><stop stop-color="#fdfefe" offset=".544"/><stop stop-color="#f6f8f9" offset=".74"/><stop stop-color="#eaeff2" offset=".879"/><stop stop-color="#d9e3e8" offset=".992"/><stop stop-color="#d8e2e7" offset="1"/></radialGradient><radialGradient id="F" cx="126.801" cy="84.835" r="14" xlink:href="#M"><stop stop-color="#fff" offset="0"/><stop stop-color="#fdfefe" offset=".544"/><stop stop-color="#f6f8f9" offset=".74"/><stop stop-color="#eaeff2" offset=".879"/><stop stop-color="#d9e3e8" offset=".992"/><stop stop-color="#d8e2e7" offset="1"/></radialGradient><radialGradient id="G" cx="125.36" cy="83.943" fx="138.934" fy="82.45" r="18.705" gradientTransform="matrix(0.9998 0.0208 0.0131 -0.6281 -51.791 134.0611)" xlink:href="#M"><stop stop-color="#e1ac8f" offset="0"/><stop stop-opacity=".3" stop-color="#e1ac8f" offset=".7"/><stop stop-opacity="0" stop-color="#f0c7b1" offset="1"/></radialGradient><radialGradient id="H" cx="67.679" cy="106.859" r="29.505" gradientTransform="matrix(1.0322 -0.0541 0.0541 1.0322 -5.894 5.3941)" xlink:href="#M"><stop stop-opacity="0" offset=".95"/><stop stop-opacity=".2" offset="1"/></radialGradient><radialGradient id="I" cx="124.961" cy="83.943" fx="138.535" fy="82.45" r="18.705" gradientTransform="matrix(-0.9998 0.0208 -0.0131 -0.6281 250.9922 134.0695)" xlink:href="#M"><stop stop-color="#e1ac8f" offset="0"/><stop stop-opacity=".3" stop-color="#e1ac8f" offset=".7"/><stop stop-opacity="0" stop-color="#f0c7b1" offset="1"/></radialGradient><radialGradient id="J" cx="68.065" cy="106.876" r="29.506" gradientTransform="matrix(-1.0322 -0.0541 -0.0541 1.0322 205.8938 5.3986)" xlink:href="#M"><stop stop-opacity="0" offset=".95"/><stop stop-opacity=".2" offset="1"/></radialGradient><path id="K" d="M195.417 199.778c-2.196-4.746-8.195-11.78-14.86-13.722-8.24-2.403-26.837-5.308-33.733-6.923-5.528-1.296-16.662-11.294-20.564-14.65-.7-.6-1.273-1.84-1.287-2.76-.14-10.864 4.195-39.724 4.195-39.724H70.833s4.334 28.86 4.193 39.724c-.01.92-.587 2.16-1.285 2.76-3.902 3.356-15.036 13.354-20.564 14.65-6.897 1.615-25.495 4.62-33.733 7.022-6.667 1.942-12.664 8.876-14.86 13.622-3.708 8.008-4.584 22.5-4.584 35h200c0-12.5-.877-26.99-4.583-35z"/><path id="L" d="M144.736 127.176c-4.55 9.887-17.57 28.302-27.6 32.566-7.442 3.165-26.824 3.165-34.267 0-10.03-4.265-23.05-22.68-27.6-32.566-5.3-11.49-14.118-48.623-14.13-48.677-1.3-4.996-1.996-10.24-2.004-15.645C39.082 28.806 66.29 1.17 99.907 1.116S160.82 28.61 160.87 62.66c.01 5.408-.67 10.653-1.952 15.653-.017.053-8.873 37.33-14.182 48.864z"/><linearGradient id="M" gradientUnits="userSpaceOnUse"/></defs></svg>