<svg xmlns="http://www.w3.org/2000/svg" xmlns:xlink="http://www.w3.org/1999/xlink" width="600" height="600"><style><![CDATA[.W{fill:#f0c7b1}.X{fill:#c27b55}.Y{stroke:#c27b55}.Z{stroke-width:1.5}]]></style><g transform="scale(3)"><path d="M225 225H-25V-25h250V225z" fill="#9de0ad"/><g transform="matrix(.849999 0 0 .849999 15.000127 17.015024)"><path d="M100.5 100.5h-1v-1h1v1z" fill="#080806"/><use xlink:href="#K" class="W"/><path d="M159.156 184.058c24.342 3.542 34.586 8.708 37.794 50.72H200c0-12.5-.877-26.992-4.583-35-2.196-4.746-8.195-11.78-14.86-13.722-8.24-2.403-26.837-5.308-33.733-6.923-5.528-1.296-18.242-12.07-21.643-16.35 3.36 4.704 12.79 15.605 21.054 18.46 3.953 1.366 7.245 1.988 12.92 2.814zm-105.4-2.814c8.263-2.854 17.693-13.756 21.054-18.46-3.4 4.28-16.114 15.054-21.643 16.35-6.896 1.615-25.494 4.62-33.733 7.022-6.665 1.942-12.664 8.876-14.86 13.622-3.706 8.008-4.583 22.5-4.583 35h3.05c3.188-41.744 13.475-47.183 37.794-50.72 5.675-.825 8.968-1.447 12.92-2.813z" fill="#ffe4d6"/><path d="M95.646 197.62l-7.083-2.38c-10.45-4.01-44.395-6.607-44.395-6.607s35.754 1.42 43.644 2.78c-.458-4.767-3.017-20.004-3.017-20.004l6.41 21.057c.674 2.268 4.442 5.154 4.442 5.154zm10.8-1.342c-.09.073-.19.168-.302.268a2.27 2.27 0 0 0 .302-.268zm-10.8 1.342s2.893 2.992 4.347 3.03c1.9.05 4.828-2.9 6.15-4.104-1.265.957-4.16 1.39-5.3 1.436-1.33.05-5.188-.362-5.188-.362zm21.018-7.52c-1.545.248-4.386.79-4.386.79l2.287-14.9c-.646 3.07-4.474 16.21-8.12 20.278 1.9-1.616 6.158-2.39 8.324-2.704 10.236-1.484 10.232-1.483 41.062-4.94 0 0-29.07-.155-39.167 1.467z" fill="#e1ac8f"/><use xlink:href="#K" fill="none" class="Y Z"/><path d="M75.464 163.188c5.276 4.256 10.716 8.678 24.538 8.678 13.815 0 19.256-4.418 24.53-8.672-.188-.5-.305-.997-.312-1.46-.088-6.89 1.573-20.71 2.835-30.13-15.695-2.2-38.418-2.2-54.113 0 1.26 9.42 2.922 23.242 2.833 30.13-.005.456-.122.963-.312 1.456z" fill="url(#C)"/><path d="M128.857 237.978H70.72v-56.183c22.25 4.7 36.88 4.337 58.138 0v56.183z" fill="#f3f1f3"/><path d="M107.44 237.71c-2.775 0-10.727.208-16.512-.23l-.01-.17c-.818-18.658 1.13-30.72 4.537-39.288l.048-.123-.093-.093c-.905-.904-2.425-1.935-4.034-3.025s-3.275-2.22-4.336-3.246c.625-.732 1.395-1.454 2.348-2.2.245-.125 1.162-.843 5.974-4.97l.362-.3c.818-.178 2.138-.293 3.738-.293 2.183 0 4.73.22 6.512.563 1.56 1.458 3.45 5.33 4.158 7.17-.976 2.29-2.128 3.13-3.717 4.284-.774.563-1.652 1.2-2.652 2.112l-.083.075.02.11c4.026 20.3 4.027 25.054 4.027 29.642.001 2.02.001 6.61.34 9.985a14.9 14.9 0 0 1-.627.009z" fill="#131111"/><path d="M110.35 191.495c-.754-1.995-2.7-5.93-4.28-7.36-2.876-.563-7.983-.843-10.47-.24-.108.088-6.248 5.383-6.3 5.26-.906.708-1.788 1.504-2.52 2.4 2.06 2.076 6.655 4.556 8.5 6.4-3.65 9.18-5.33 21.6-4.55 39.38.01.1.01.23.02.34 6.756.52 16.55.33 17.55.223-1.16-11.307 1.438-10.455-4.4-39.853 3.068-2.795 4.965-2.996 6.45-6.54zm-5.25 19.04c-.02-.05-.04-.1-.05-.13 2 10.55 1.38 18.632 2.89 26.972-4.736-.318-12.014-.052-16.77-.052.37-7.198 1.188-31.684 4.74-39.74.17-.046.34-.084.51-.125l-1.032 34.736 2.747-35.066c.02-.002.04-.005.06-.008l1.8 32.605.417-32.734c.026.001.05-.001.077 0l4.2 36.355-2.3-36.137a11.06 11.06 0 0 1 .942.233c.03 0 .07.01.1.03.104 1.002.936 8.402 1.67 13.06zm-.88-13.81c-2.774-1.25-6.363-1.026-9.13.24-1.68-1.813-4.08-3.077-7.53-5.39a51.98 51.98 0 0 1 2.21-1.81c.08 0 3.48-2.77 3.54-2.83.92-.84 1.74-1.8 2.52-2.62 2.93-.12 7.23.02 9.82.14 1.5 1.876 2.93 4.696 4 6.94-1.96 2.87-3.9 4.15-5.44 5.33z"/><path d="M78.196 213.077c-11.534-40.07-6.325-29.58-9.4-45.32 2.028-4.813 3.958-10.44 5.042-11.598l.08-.086c2.292 24.007 8.958 13.636 23.784 27.722-8.475 5.654-16.33 20.332-19.507 29.282zm52.997-45.32c-1.448-3.702-4.077-9.127-5.215-10.33 1.424 20.678-15.146 16.55-24.35 26.2 8.812 5.713 17.173 20.66 20.172 29.455 13.12-43.514 6.05-24.41 9.393-45.324z" fill="#f3f1f4"/><path d="M125.8 156.967c0 5.137-.42 9.162-1.262 10.34-2.443 5.81-13.103 9.853-16.4 11.5-2.495 1.227-4.942 2.81-6.83 4.85 3.813 2.476 5.705 3.383 12.93 14.44 4.246 7.11 6.54 12.448 7.56 15.64 13.378-44.33 6.222-24.978 9.6-46-1.586-4.086-4.6-9.85-5.6-10.77zm3.648 19.528c-1.957 18.078-3.49 14.485-7.74 34.18-2.716-8.644-11.075-22.913-19.43-27.09 3.937-2.957 5.03-3.13 9.73-5.28 14.396-6.42 14.985-12.385 14.138-20.27 1.207 1.423 3.125 6.16 4.692 9.52-.86 3.146-1.25 7.638-1.39 8.94zm-50.25-4.6c-4.408-3.65-3.16-8.162-5.19-16.215-.902 1-3.146 6.632-5.42 12.055.557 2.796.68 7.39.76 8.84.56 12.202 1.75 12.765 8.83 37.16 3.03-8.905 11.558-24.37 20.24-30.01-6.93-6.326-15.655-8.728-19.22-11.83zm5.46 25.51c-2.22 3.666-4.517 7.48-6.37 13.28-4.442-20.27-6-16.964-7.73-34.16-.32-2.97-.617-6.027-1.4-8.96 1.638-3.588 3.98-10.28 4.73-10.995 1.366 7.078.066 13.462 5.67 16.995 2.62 1.996 11.104 5.32 17.52 10.36-3.89 2.3-5.985 3.67-12.42 13.48z" fill="#cfc8d7"/><path d="M120.32 209.824l-1.21-2.654s9.148-28.175 10.743-36.225c.912 8.354-9.534 38.88-9.534 38.88zm-41.44-1.103l1.436-3.26s-8.573-26.467-10.168-34.517c-.912 8.354 8.732 37.776 8.732 37.776z" fill="#e1e0e1"/><path d="M124.787 195.605c7.065-20.834 2.756-22.55 6.305-29.47.134-.26 1.396 1.046 1.533 1.64 1.306 5.658 53.35 17.338 54.994 18.598 1.456 1.058 5.65 3.137 5.65 3.137 4.937 9.07 7.762 10.698 9.15 34.984.13 3.083-.06 11.8-.06 14.14l-85.56-.676c.205-7.79 1.2-21.8 7.988-42.355zm-49.574 0c-7.065-20.834-2.756-22.55-6.305-29.47-.134-.26-1.396 1.046-1.533 1.64-1.306 5.658-53.35 17.338-54.994 18.598-1.456 1.058-5.65 3.137-5.65 3.137-4.937 9.07-7.762 10.698-9.15 34.984-.13 3.083.06 11.8.06 14.14l85.56-.676c-.205-7.79-1.2-21.8-7.988-42.355z" fill="#1d282e"/><path d="M130.307 190c-4.552 16.387-10.77 31.116-13.506 47.96-.9-.007 1.49-22.695 7.986-42.354 7.065-20.834 2.756-22.55 6.305-29.47.077-.15-.62 1.976-.223 2.432-.146 7.727 1.756 13.703-.562 21.43zm-60.614 0c4.552 16.387 10.77 31.116 13.506 47.96.9-.007-1.49-22.695-7.986-42.354-7.065-20.834-2.756-22.55-6.305-29.47-.077-.15.62 1.976.223 2.432.146 7.727-1.756 13.703.562 21.43z" fill="#101a1f"/><path d="M152.436 186.03s-2.284 2.56-8.636 6.923c5.313-5.885 7.76-8.25 7.76-8.25l.875 1.326zm2.175 11.875l-1.528-1.367c-4.538 13.78-7.57 20.587-12.828 36.618 7.544-14.326 9.344-19.412 14.356-35.25zm-106.172-13.2s2.447 2.364 7.76 8.25c-6.352-4.362-8.636-6.923-8.636-6.923l.875-1.326zm11.306 48.452c-5.257-16.03-8.3-22.837-12.828-36.618l-1.528 1.367c5.012 15.84 6.812 20.925 14.356 35.25z" fill="#070c0f"/><path d="M179.41 219.335c0-11.596 3.1-18.35 9.615-28.142.608.372.93.543 1.345.875-6.917 8.583-8.29 16.59-10.96 27.267zm-38.097 11.368l12.107-34.388c-1.15-.35-8.67-2.985-9.82-3.346.4 1 3.113 1.822 7.822 4.71 0 .001-5.09 15.404-10.1 33.025zm8.22-46.126l-6.664 8.328c3.388-2.67 5.748-5.644 8.69-8.2l-14.72-12.09c3.324 3.572 12.694 11.96 12.694 11.96zm52.54 54.057l.286.002.06-14.14c-1.39-24.286-4.214-25.914-9.15-34.984 0 0-4.194-2.08-5.65-3.137-1.334-1.02-38.794-9.922-52.5-15.88 16.01 10.97 46.282 15.027 55.24 21.574 4.332 3.167 10.165 30.27 11.703 46.566zM9.613 192.037c.542-.383.62-.366 1.168-.73 6.505 9.79 9.81 16.43 9.81 28.026-2.668-10.675-4.5-19.016-10.977-27.297zm38.965 5.642c4.71-2.887 7.412-3.71 7.822-4.71-1.148.36-8.67 2.995-9.82 3.346l12.107 34.388c-5.02-17.622-10.1-33.025-10.1-33.025zm14.582-25.063c-4.2 3.564-10.727 8.72-14.72 12.09 2.943 2.557 5.304 5.53 8.69 8.2l-6.664-8.328s9.37-8.39 12.694-11.96zM9.63 192.068c8.958-6.547 39.23-10.604 55.24-21.574-13.696 5.958-51.156 14.858-52.5 15.88-1.456 1.058-5.65 3.137-5.65 3.137-4.937 9.07-7.762 10.698-9.15 34.984-.13 3.083.06 11.8.06 14.14l.286-.002c1.537-16.297 7.37-43.4 11.703-46.566z" fill="#2d373d"/><path d="M132.246 166.374c-.05-.293-.443-.634-.738-.657s-.432.458-.567.722c-3.55 6.918.414 8.333-6.65 29.167-6.788 20.545-7.584 34.862-7.787 42.653l85.857.377c0-2.34.49-11.058.36-14.14-1.39-24.286-4.313-26.113-9.25-35.184 0 0-4.394-2.18-5.85-3.236-4.89-3.742-.6.023-22.03-6-17.576-5.135-18.525-6.577-24.9-8.35-1.288-.37-4.057-.822-6.95-2.85-.265-.185-1.4-1.93-1.494-2.5zM116.974 237.3c3.73-23.564 6.085-29.73 11.296-47.274 3.522-11.104 1.576-17.408 3.254-22.54.088-.268.467-.282.57-.017 2.434 6.214 9.238 7.656 18.834 17.047-5.813 5.813-7.31 7.38-8.06 8.38.864.438 5.582 2.23 9.9 3.9-.245.767-13.415 38.02-13.57 38.52 10-21.578 11.292-28.21 14.22-39-.812-.612-7.892-3.212-9.1-3.64 4.274-4.424 5.5-5.396 7.53-7.97 1.622 0-15.874-13.318-16.73-14.21.462.364 2.752 1.39 3 1.49 14.682 5.166 3.065 2.83 35.2 12 3.072.78 7.355 1.567 10.53 1.88.218.02 5.395 2.727 8.35 3.97-7.19 7.475-11.797 17.133-12.8 29.5 3.22-12.666 4.95-19.3 13.14-28.82 7.62 15.422 6.755 13.195 9.23 47.7-20.612-.813-52.22-1-84.805-.916zM66.26 168.875c-2.894 2.028-5.662 2.48-6.95 2.85-6.374 1.772-7.323 3.215-24.9 8.35-21.44 6.023-17.142 2.258-22.03 6-1.456 1.058-5.85 3.236-5.85 3.236-4.937 9.07-7.86 10.897-9.25 35.184-.13 3.083.36 11.8.36 14.14l85.857-.377c-.203-7.79-1-22.108-7.787-42.653-7.065-20.834-3.103-22.25-6.65-29.167-.136-.264-.27-.745-.567-.722s-.69.364-.738.657c-.096.57-1.23 2.314-1.494 2.5zm-68.04 69.35c2.476-34.515 1.6-32.288 9.23-47.7 8.188 9.53 9.92 16.153 13.14 28.82-1.013-12.367-5.62-22.025-12.8-29.5 2.955-1.243 8.132-3.95 8.35-3.97 3.175-.312 7.458-1.098 10.53-1.88 32.135-9.172 20.52-6.835 35.2-12 .258-.1 2.548-1.127 3-1.49-.856.893-18.353 14.21-16.73 14.21 2.02 2.575 3.256 3.547 7.53 7.97-1.198.428-8.278 3.027-9.1 3.64 2.928 10.8 4.22 17.432 14.22 39-.155-.5-13.325-37.753-13.57-38.52l9.9-3.9c-.75-1-2.247-2.567-8.06-8.38 9.596-9.39 16.4-10.833 18.834-17.047.104-.266.483-.25.57.017 1.678 5.132-.27 11.436 3.254 22.54 5.21 17.544 7.567 23.7 11.296 47.274-32.585-.083-64.193.103-84.805.916z"/><path d="M47.218 81.505c-.967-2.487-8.082-6.002-11.2-5.447-3.538.627-4.838 4.356-4.37 7.12 1.103 6.487 3.996 9.22 5.296 14.286 1.096 4.273 3.433 6.732 4.588 8.548 1.42 2.228 2.73 7.34 3.023 8.087.463 1.18 2.103 4.043 5.002 3.896 3.333-.172 7.545-6.688 7.614-8.135.382-7.85-7.43-21.88-9.944-28.354z" class="W Y Z"/><path d="M47.953 107.96s.43-1.07-.094-2.022c-.672-1.223-2.423-3.468-2.82-4.81-.325-1.098-.16-3.445-.213-4.593-.094-2.03-1.492-3.42-1.927-4.585-2.914-7.793-6.792-12.623-9-13.626-1.633 3.99-.34 6.907 1.94 13.045-1.375-8.342-.054-10.95-.054-10.95s4.018 3.465 6 11.172c.36 1.39-1.11 4.294-.83 5.705.352 1.772 4.184 5.2 5.257 6.635.837 1.117 1.74 4.03 1.74 4.03z" class="X"/><path d="M152.52 81.505c.967-2.487 8.082-6.002 11.21-5.447 3.54.627 4.838 4.356 4.37 7.12-1.104 6.487-3.996 9.22-5.297 14.286-1.096 4.273-3.434 6.732-4.588 8.548-1.42 2.228-2.73 7.34-3.023 8.087-.463 1.18-2.104 4.043-5.002 3.896-3.332-.172-7.545-6.688-7.613-8.135-.384-7.85 7.43-21.88 9.943-28.354z" class="W Y Z"/><path d="M151.785 107.96s-.43-1.07.094-2.022c.672-1.223 2.424-3.468 2.82-4.81.324-1.098.16-3.445.215-4.593.094-2.03 1.5-3.42 1.926-4.585 2.914-7.793 6.793-12.623 9-13.626 1.633 3.99.338 6.907-1.94 13.045 1.375-8.342.053-10.95.053-10.95s-4.018 3.465-6.002 11.172c-.357 1.39 1.11 4.294.83 5.705-.352 1.772-4.184 5.2-5.256 6.635-.837 1.117-1.74 4.03-1.74 4.03z" class="X"/><use xlink:href="#L" class="W"/><path d="M146.772 23.096c7.478 10.35 11.917 23.245 11.898 37.227-.01 5.403-.68 10.643-1.93 15.634h-.002c-.01.054-11.124 38.59-13.512 51.25-1.335 7.06-8.737 15.656-15.935 20.85-6.718 4.845-10.854 11.575-27.29 11.575s-20.575-6.73-27.29-11.575c-7.197-5.192-14.602-13.79-15.93-20.85-2.39-12.658-13.504-51.195-13.515-51.25-1.252-4.992-1.922-10.23-1.93-15.634-.02-13.978 4.416-26.868 11.89-37.217-8.812 10.697-14.112 24.45-14.09 39.453.008 5.403.704 10.643 2.002 15.634.013.054 11.543 38.59 14.02 51.25 1.382 7.06 9.063 15.656 16.53 20.85 6.967 4.845 11.263 11.574 28.313 11.574s21.346-6.73 28.313-11.574c7.468-5.192 15.15-13.79 16.53-20.85 2.48-12.658 14.01-51.196 14.02-51.25h.002c1.298-4.992 1.994-10.23 2.002-15.634.027-15.007-5.278-28.764-14.095-39.463z" fill="#e8b9a0"/><use xlink:href="#L" fill="none" class="Y Z"/><path d="M100.39 141.808c-3.458 0-4.907-2.678-4.907-2.678l9.74-.188c0-.001-1.79 2.866-4.833 2.866z" fill="url(#D)"/><path d="M98.82 139.206c-1.78 0-3.136-.17-3.23-.184-.146-.02-.248-.146-.228-.282s.157-.227.3-.214c.04.006 6.084.5 9.357-.195.156-.03.29.057.32.19s-.06.27-.202.3c-1.41.3-5.042.387-6.318.387zm-14.43-5.382c-.365-.663 4.097.11 6.8-.55 2.98-.732 6.1.208 9.133.48 2.382.213 4.838-.975 7.19-.436 3.26.747 8.236-.196 7.843.594-.273.548-4.893 1.05-7.524.604-2.3-.4-4.683.556-7.006.73-2.885.217-5.767-1.385-8.614-.933-3.282.52-7.503.077-7.813-.487z" class="X"/><path d="M76.732 78.383c4.587.68 7.93 3.488 10.773 7.94.025.035.04.06.044.088.255 1.007-.816 1.82-2.155 2.438-4.77.61-9.36 1.49-14.194.87-9.68-1.24-9.855-5.51-10.326-6.63-.252-1.1-.325-1.417-.31-2.473 2.332-1.366 4.043-1.647 5.854-2.005 2.124-.418 6.85-.744 10.315-.23z" fill="url(#E)"/><path d="M80.25 84a6 6 0 1 1-12 0 6 6 0 1 1 12 0z" fill="#4e60a3"/><path d="M70.762 86.805c.875-.072.1-.306.1-.306-.433-.233-1.248-.592-1.248-.92 0-1.03 1.414-1.3-.034-1.705-1.504-1.38 1.167-1.352 1.147-1.398-.975-2.376.3-1.07.835-1.773 1.988-2.6.554.267 1.633 0 .39-.096-.78-1.53.034-1.33.54.132.662.58.662.58.393-.077 1.008-.682 1.008-.682.75.226 1.275 1.3 1.043 1.09.368-.045.884-.22 1.286-.34 0 0 .07-.24.14-.033.917 2.66 3.284 2.47.56 3.24 0 0-.176 0 .382.442 2.7 2.164-2.102 1.495.45 2.5.104-.104-1.53.965-1.53 1.26 0 .5-1.042 1.818-1.946 1.3-.504-.288-.58.6-.877.2-.58-.803-1.742-.035-1.313-.773.634-.52-.654.204-.904.204-.828 0 1.083-2.783 3.894-.715.822.602-.864-1.433.625-1.433.15.05.104-.52.104-.682-.774-.15 1.4-.003 1.4-1.262.137.027.51-.35-1.635 0 0 0-.068-.75-.034-.886.1-.438 1.214-.298.904-.75 0-.001-.8-1.604-.8-1.604-2.573-.414-1.102-.672-2.71-.34-.076.378-3.445 1.984-3.338 2.73.1.702 2.115.938.208 2.182 2.858 5.472-2.1-.125-.035 1.226z" fill="#6777b2"/><path d="M74.25 78.75l.17 4.393 1.837-3.993-1.523 4.123 3.227-2.985-2.985 3.226L79.1 82l-3.992 1.84L79.5 84l-4.392.17 3.992 1.84-4.124-1.523 2.985 3.226-3.227-2.985 1.523 4.123-1.837-3.993-.17 4.393-.17-4.393-1.838 3.993 1.522-4.123-3.226 2.985 2.985-3.226-4.124 1.523 3.992-1.84L69 84l4.4-.17L69.398 82l4.124 1.523-2.985-3.226 3.226 2.985-1.522-4.123 1.838 3.993.17-4.393z" fill="#253984"/><path d="M75.046 80.067l-.54 3.315 1.98-2.71-1.766 2.857 2.87-1.748-2.725 1.964 3.32-.515-3.268.77 3.266.794-3.317-.538 2.712 1.982-2.858-1.765 1.748 2.87-1.964-2.725.516 3.32-.77-3.27-.795 3.264.54-3.315L72 87.326l1.768-2.857-2.87 1.748 2.725-1.964-3.32.516 3.27-.77-3.264-.793 3.315.537-2.712-1.982 2.858 1.765-1.747-2.87 1.964 2.725-.516-3.318.772 3.27.792-3.266z" fill="#152975"/><path d="M76.5 84a2.25 2.25 0 1 1-4.5 0 2.25 2.25 0 1 1 4.5 0z" opacity=".9"/><g fill="#fff"><path d="M71.887 88.31c-.33.332-.985.215-1.46-.26s-.593-1.13-.26-1.46.985-.214 1.46.26.593 1.13.26 1.46z" opacity=".7"/><path d="M79.056 82.818c-.496.496-1.697.1-2.682-.886s-1.382-2.187-.886-2.683 1.697-.1 2.682.886 1.382 2.187.886 2.683z" opacity=".9"/></g><path d="M55.112 83.583c3.224 11.315 7.475 23.313 17.685 23.67s22.135-7.24 22.3-22.238c.173-16.767-10.474-23.38-20.684-23.737s-24.096 5.437-19.29 22.306zm5.763-.493c-.252-1.1-.325-1.417-.31-2.473 2.027-1.2 4.04-1.547 5.85-1.905 2.123-.418 6.853-.845 10.317-.33 4.587.68 7.93 3.488 10.773 7.94.025.035.04.06.044.088.255 1.007-.816 1.82-2.155 2.438-4.77.61-9.36 1.49-14.194.87-9.68-1.24-9.855-5.51-10.325-6.63z" class="W"/><path d="M74.225 95.17c9.256 1.4 17.847-3 19.186-9.86s-5.072-13.537-14.33-14.94-17.845 3.012-19.185 9.862 5.07 13.532 14.328 14.937zM60.563 80.617c2.125-1.14 4.04-1.547 5.85-1.905 2.123-.418 6.853-.845 10.317-.33 4.587.68 7.93 3.488 10.773 7.94.025.035.04.06.044.088.255 1.007-.816 1.82-2.155 2.438-4.77.61-9.36 1.49-14.194.87-9.68-1.24-9.855-5.51-10.326-6.63-.25-1.1-.323-1.418-.3-2.473z" fill="url(#G)"/><path d="M60.875 83.1c-.252-1.1-.325-1.417-.31-2.473 2.092-1.175 4.04-1.547 5.85-1.905 2.123-.418 6.853-.845 10.317-.33 4.587.68 7.93 3.488 10.773 7.94.025.035.04.06.044.088.255 1.007-.816 1.82-2.155 2.438-4.77.61-9.36 1.49-14.194.87-9.68-1.24-9.855-5.51-10.325-6.63z" fill="url(#H)"/><path d="M76.327 75.748c3.294.54 6.505 2.054 9.48 3.945.637.404 1.366.865 2.52 1.45-.828-.188-1.594-.617-2.31-1.01.736.698 1.422 1.53 1.982 2.334-2.52-3.16-7.297-5.538-11.36-6.35-3.902-.78-10.99-.264-16.25 2.042 4.818-2.71 11.847-3.08 15.937-2.412z" class="X"/><path d="M87.508 86.277c-2.847-4.34-6.193-7.082-10.78-7.747-4.833-.705-11.27-.22-15.034 1.843-.308.17-1.607 1.25-1.4.117.874-1.167 4.322-2.523 5.993-2.928 18.745-4.543 22.297 10.292 21.223 8.715zM60.646 82.84c-.716 2.063.86 6.654 10.145 7.503 6.595.602 15.767-1.75 14.634-1.613-4.78.59-9.375 1.45-14.22.84-10.982-1.38-9.738-6.547-10.56-6.73z"/><path d="M122.867 78.383c-4.586.68-7.93 3.488-10.773 7.94-.024.035-.038.06-.043.088-.256 1.007.815 1.82 2.154 2.438 4.77.61 9.36 1.49 14.194.87 9.68-1.24 9.855-5.51 10.325-6.63.253-1.1.325-1.417.312-2.473-2.33-1.366-4.043-1.647-5.854-2.005-2.123-.418-6.85-.744-10.315-.23z" fill="url(#F)"/><path d="M131.75 84a6 6 0 1 1-12 0 6 6 0 1 1 12 0z" fill="#4e60a3"/><path d="M122.258 86.806c.88-.076.105-.305.105-.305-.434-.234-1.254-.592-1.254-.926 0-1.03 1.418-1.295-.023-1.705-1.512-1.377 1.16-1.348 1.137-1.395-.973-2.38.305-1.072.844-1.775 1.98-2.596.55.27 1.63 0 .387-.094-.785-1.53.035-1.33.54.135.656.58.656.58.398-.076 1.008-.68 1.008-.68.75.223 1.277 1.29 1.043 1.1.375-.047.89-.223 1.29-.34 0 0 .07-.24.14-.035.914 2.66 3.28 2.473.563 3.24 0 0-.176 0 .375.44 2.707 2.168-2.098 1.494.457 2.5.105-.1-1.535.967-1.535 1.266 0 .498-1.043 1.816-1.945 1.295-.504-.287-.586.604-.88.193-.574-.803-1.746-.035-1.313-.773.633-.52-.656.205-.902.205-.832 0 1.078-2.783 3.89-.715.82.598-.867-1.436.633-1.436.14.047.105-.52.105-.68-.785-.152 1.383-.006 1.383-1.266.14.03.516-.346-1.63 0 0 0-.07-.75-.035-.885.105-.44 1.207-.3.902-.75l-.797-1.605c-2.578-.4-1.102-.668-2.72-.34-.07.38-3.445 1.986-3.34 2.73.105.703 2.12.938.21 2.18 2.858 5.48-2.1-.12-.036 1.233z" fill="#6777b2"/><path d="M125.75 78.75l.176 4.395 1.828-3.996-1.523 4.125 3.234-2.988-2.988 3.23 4.125-1.523-3.996 1.84L131 84l-4.395.17 3.996 1.84-4.125-1.523 2.988 3.23-3.234-2.988 1.523 4.125-1.828-3.996-.176 4.39-.176-4.395-1.84 3.996 1.523-4.125-3.223 2.988 2.988-3.23-4.125 1.523 3.996-1.84-4.395-.17 4.395-.17-3.996-1.84 4.125 1.523-2.988-3.23 3.223 2.988-1.523-4.125 1.84 3.996.176-4.39z" fill="#253984"/><path d="M126.547 80.067l-.54 3.316 1.98-2.713-1.77 2.86 2.87-1.752-2.72 1.97 3.316-.516-3.27.768 3.27.797-3.316-.54 2.707 1.98-2.86-1.764 1.746 2.87-1.957-2.725.516 3.316-.773-3.267-.797 3.264.54-3.316-1.98 2.713 1.77-2.86-2.87 1.752 2.72-1.97-3.316.516 3.27-.768-3.27-.797 3.316.54-2.707-1.98 2.86 1.764-1.746-2.87 1.957 2.725-.516-3.316.773 3.27.797-3.267z" fill="#152975"/><path d="M128 84a2.25 2.25 0 1 1-4.5 0 2.25 2.25 0 1 1 4.5 0z" opacity=".9"/><g fill="#fff"><path d="M123.383 88.312c-.328.328-.984.217-1.453-.264-.48-.475-.598-1.125-.258-1.46.328-.328.984-.21 1.453.264.48.474.598 1.125.258 1.46z" opacity=".7"/><path d="M130.555 82.815c-.492.498-1.7.105-2.684-.885-.984-.984-1.383-2.186-.88-2.678.492-.498 1.688-.105 2.672.885.996.985 1.383 2.186.89 2.678z" opacity=".9"/></g><path d="M125.197 61.277c-10.21.356-20.857 6.97-20.685 23.737.154 15 12.08 22.595 22.3 22.238s16.187-17.323 17.685-23.67c4.03-17.07-9.08-22.662-19.3-22.306zM128.4 89.72c-4.835.62-9.423-.26-14.194-.87-1.34-.618-2.4-1.43-2.154-2.438.006-.027.02-.053.025-.08 2.86-4.46 6.206-7.27 10.79-7.948 3.465-.516 8.195-.09 10.318.33 1.81.357 3.824.694 5.85 1.905.014 1.055-.06 1.372-.312 2.473-.47 1.12-.644 5.388-10.325 6.63z" class="W"/><path d="M139.703 80.234c-1.34-6.85-9.928-11.26-19.186-9.862s-15.67 8.09-14.328 14.94 9.93 11.26 19.186 9.86 15.668-8.09 14.328-14.937zm-.978 2.856c-.47 1.12-.645 5.388-10.325 6.63-4.835.62-9.423-.26-14.194-.87-1.34-.618-2.4-1.43-2.154-2.438.006-.027.02-.053.025-.08 2.86-4.46 6.206-7.27 10.79-7.948 3.465-.516 8.195-.09 10.318.33 1.81.357 3.727.764 5.85 1.905.013 1.055-.06 1.372-.312 2.473z" fill="url(#I)"/><path d="M138.725 83.1c.253-1.1.325-1.417.312-2.473-2.092-1.175-4.04-1.547-5.85-1.905-2.123-.418-6.854-.845-10.318-.33-4.586.68-7.93 3.488-10.773 7.94-.024.035-.038.06-.043.088-.256 1.007.815 1.82 2.154 2.438 4.77.61 9.36 1.49 14.194.87 9.68-1.24 9.855-5.51 10.325-6.63z" fill="url(#J)"/><path d="M123.273 75.748c-3.295.54-6.506 2.054-9.48 3.945-.637.404-1.367.865-2.52 1.45.828-.188 1.594-.617 2.31-1.01-.736.698-1.422 1.53-1.982 2.334 2.52-3.16 7.297-5.538 11.36-6.35 3.902-.78 10.99-.264 16.252 2.042-4.82-2.71-11.848-3.08-15.937-2.412z" class="X"/><path d="M133.314 77.563c1.672.405 5.12 1.76 5.994 2.928.205 1.132-1.094.052-1.402-.117-3.764-2.064-10.2-2.548-15.033-1.843-4.588.665-7.936 3.407-10.78 7.747-1.074 1.576 2.478-13.26 21.222-8.715zm-4.92 12.007c-4.844.6-9.44-.25-14.22-.84-1.134-.137 8.038 2.215 14.633 1.613 9.284-.85 10.86-5.44 10.145-7.503-.823.182.422 5.35-10.56 6.73z"/><path d="M141 113.974c.035 22.622-18.292 40.994-40.938 41.025-22.642.037-41.028-18.273-41.063-40.9C58.964 91.48 77.29 73.035 99.936 73s41.03 18.35 41.064 40.975z" fill="url(#A)"/><path d="M137.5 54c0 20.71-16.79 37.5-37.5 37.5S62.5 74.7 62.5 54 79.3 16.5 100 16.5s37.5 16.79 37.5 37.5z" fill="url(#B)"/><path d="M59.396 71.48c16.138-1.7 18.92 1.72 27.556 5.214.474.186 1.583.4 1.88-.098.787-1.312-2.444-3.68-3.84-4.295-9.14-4.248-21.03-4.042-25.596-.82zm81.208 0c-16.14-1.7-18.92 1.72-27.556 5.214-.474.186-1.583.4-1.88-.098-.787-1.312 2.443-3.68 3.84-4.295 9.14-4.248 21.03-4.042 25.596-.82z" fill="#2a232b"/><path d="M94.796 90s.662 2.24.68 2.916c.032 1.147-.103 2.045-.19 2.927-.58 5.758-3.586 14.1-3.425 18.067.07 1.712 1.128 4.2 1.128 4.2s-2.542-.7-3.1-5.553c-.23-2.002 1.72-5.877 2.403-7.755.647-1.785 1.9-7.57 2.353-9.437.187-.78.52-1.724.516-2.533-.004-.72-.364-2.842-.364-2.842zm-.3 28.603a4.05 4.05 0 0 0 3.245 3.315c2.763.612 4.313-2.404 4.313-2.404s-2.296 1.547-4.06.99c-.93-.29-3.498-1.902-3.498-1.902zm10.592-5.735c-.02.64-.2 2.485-.2 2.485s.906-1.484.964-2.07c.104-1.052-1.065-4.084-1.065-4.084s.327 2.742.3 3.67z" fill="#e1ac8f"/><path d="M92.478 108.46c-1.227 4.164-2.094 8.57 1.484 10.533a5.42 5.42 0 0 0 1.479.554c.277.058.48.3.723.474.558.384 1.478.438 2.117.555 2.458.455 4.94-.61 5.55-3.155-1.53 2.193-2.884 2.8-4.966 2.624-2.498-.21-4.583-2.446-5.237-5.07-.4-1.56-.542-3.127-.425-4.754.108-1.396.488-2.78.708-4.164.413-2.495 1.41-7.713 1.404-10.318-.4 1.816-1.12 6.1-1.395 7.145l-.813 3.146a49.07 49.07 0 0 1-.628 2.429zm-.284 6.943c-.163-1.227.045-2.518.295-3.708.088 2.364.7 5.117 2.126 6.864-1.223-.522-2.213-1.604-2.42-3.156-.146-1.097.252 1.886 0 0z" class="X"/><path d="M95.565 113.18c.158.764.032 1.453-.282 1.542s-.636-.376-.793-1.14-.1-1.535.222-1.623.695.458.853 1.22z" fill="#ffe4d6"/><path d="M100 18.13z" fill="#2a232b"/><path d="M45.777 90.313c-2.998-2.502-6.75-8.94-8.423-17.962-.356-1.85-.6-3.75-.88-5.763-1.13-8.446-3.555-18.29-1.878-28.373 2.013-12.337 11.27-25.693 23.036-33.237 18.19-11.772 64.17-17.033 73.754-1.537 5.56-.203 11.557 1.25 15.7 4.47 13.71 10.284 19 45.21 15.21 62.56-2.528 11.847-3.19 14.954-8.264 19.6 1.812-54.323-1-39.665-3.306-54.253-2.715-2-3.727-1.168-7.91-3.542-8.318-6.142-7.915-8.602-11.683-12.898-3.356 3.97-8.18 7.463-11.907 9.077.944-1.547 1.75-3.282 2.282-4.398l-.446-.373c-3.13 2.262-9.45 5.478-13.336 5.823 2.087-2.565 1.843-2.242 2.677-3.805-3.116 1.916-6.427 3.217-10.604 3.583 3.935-1.944 5.7-3.274 8.75-5.817l-.28-.518c-21.19 6.437-26.218 7.895-41.755 10.65-13.012 1.627-8.248.252-12.968.252-7.593 0-8.798 22.79-8.47 30.387.846 21.24-.242 17.104.698 26.074z" fill="#080806"/><path d="M162.296 70.47c-2.528 11.847-3.19 14.954-8.264 19.6 1.812-54.323-1-39.665-3.306-54.253-2.715-2-3.727-1.168-7.91-3.542-8.318-6.142-7.915-8.602-11.683-12.898-3.356 3.97-8.18 7.463-11.907 9.077.944-1.547 1.75-3.282 2.282-4.398l-.446-.373c-3.13 2.262-9.45 5.478-13.336 5.823 2.087-2.565 1.843-2.242 2.677-3.805-3.116 1.916-6.427 3.217-10.604 3.583 3.935-1.944 5.7-3.274 8.75-5.817l-.28-.518c-21.19 6.437-26.218 7.895-41.755 10.65-13.012 1.627-8.248.252-12.968.252-7.593 0-8.798 22.79-8.47 30.387.846 21.24-.242 17.104.698 26.075-2.998-2.502-6.75-8.94-8.423-17.962-.356-1.85-.6-3.75-.88-5.763-1.13-8.446-3.555-18.29-1.878-28.373 1.6-9.746 13.727-24.08 22.024-31.73-25.5 23.75-18 50.252-13.75 71.5C41.62 59.235 38 29 55 28c23 0 48.87-3.265 64.87-19.265-1 7-1.87 8.265-6.87 13.265 4-3 9-5 11-10-1 4-1 7-4 10 3-2 6-5 9-8 0 3-2 6-3 9 2-5 8-8 9-13-3 13 12.37 19.985 17.12 22.735 6.5 9 6.75 28 5.25 43.75 5.5-18 3-48.75-13.25-70 17.75 13 21.48 48.9 18.177 63.986zM60.37 19.985c12.207-.36 21.165-2.337 34.25-9.75-12.587 5.516-20.552 8.148-34.25 9.75zm33.25-4.25c6.46-2.68 10.955-8.497 18.25-10.25-6.723 2.333-11.398 8.185-18.25 10.25zm-38.75 3.75c4.63-8.324 14.52-15.222 27-16.25-10.156 1.888-21.032 7.718-27 16.25z"/><path d="M86.62 0c13.085-5.594 24.996-5.023 37.5 1.985-13.123-5.605-23.154-4.532-23.154-4.532C98.577-2.36 94.76-2.452 86.62 0zm51.5 7.985c4.14 1.594 5.866 4.016 8.383 7.51 3.685 5.954 4.716 8.533 6.863 14.49-2.085-8.554-6.762-19.693-15.246-22zm-23.5-.25c-7.115 6.003-12.274 9.237-26.5 14 11.242-2.67 18.407-5.82 26.5-14zm23 6.25c2.067 7.036 5.876 10.957 11.75 14.5-5.46-4.107-9.03-7.92-11.75-14.5zm-79-3.75l-1.287.952c-9.145 6.48-16.294 18.86-16.463 34.548 1.995-15.608 8.18-26.592 17.75-35.5zm4.75 4.5c7.757-4.055 11.34-4.087 24.25-6.25-11.143.777-16.655 1.308-24.25 6.25zm21.048 4.23c-4.565 2.3-15.277 4.855-15.277 4.74l-10.27 2.28c2.522-.32 6.85-.825 10.418-1.59 0 .135 8.796-1.985 11.38-3.32 2.836-1.338 1.875-.813 4.703-2.6-.001 0-.362.182-.953.48z" fill="#171714"/><path d="M147.27 7.675c-4.23-3.29-10.323-4.74-15.72-4.54-4.61-7.454-19.15-9.598-27.97-9.7-13.304-.138-34.324 3.653-46.1 11.28C46.5 11.757 36.446 25.01 34.3 38.165c-1.284 7.72-.178 15.72 1.13 23.38.64 3.7.97 7.43 1.63 10.86 1.897 10.227 6.295 16.626 9.1 18.57-1.065-9.855.097-4.998-.77-26.75-.403-9.33 1.305-30.714 8.5-30.06 4.883.345 1.014 1.19 12.7-.27 15.347-2.722 20.366-4.152 41.8-10.66-3.357 2.798-5.103 4.068-9.6 6.22l-.44.2c3.72-.024 8.346-1.305 11.3-3.12-.407.762-1.632 2.147-2.54 3.3 3.844 0 10.74-3.438 14.16-5.9-.48 1-1.603 3.462-2.81 5.2 1.14-.57 3.874-1.313 9.33-5.93 1.1-.93 2.38-2.2 3.38-3.37 3.35 3.818 3.148 6.516 11.53 12.7 4.158 2.36 5.282 1.625 7.78 3.45 2.206 14.448 5.134-.795 3.26 54.78 5.6-4.96 6.275-8.026 8.88-20.23 3.71-16.933-1.34-52.372-15.318-62.86zm13.68 62.65c-2.216 12.286-2.402 14.36-6.88 19.22.814-10.8 1.53-20.46 1.32-31.34-.444-16.06-2.58-13.048-4.1-22.72-2.878-2.02-4.273-1.655-6.92-2.85-.46-.17-.84-.46-1.27-.68-8.392-5.824-8.398-8.604-11.83-12.27.97-1.114 1.813-2.39 2.1-2.94-1.51 2.264-7.977 8.24-14.1 11.63 1.06-1.676 1.864-3.305 2.44-4.78 1.735-1.212 2.92-2.358 3.92-3.35-3.42 2.84-12.225 7.96-17.75 9.07.174-.18 1.875-1.826 2.516-3.074 1.355-.542 5.016-2.78 6.304-4.203-6.304 4.203-13.475 6.72-15.98 7.136 3.064-1.15 7.04-4.73 9.08-6.36 1.97-1.574 2.353-2.206 4.4-4.28-1.344.938-3.44 2.993-6.056 4.097-1.547.653-43.9 12.498-51.254 10.574-1.478-.37-3.15-.818-4.62-.4-11.8 5.076-7.46 37.634-7.3 47.63.136 8.423.74 9.9.74 9.9-7.75-7.36-8.09-23.554-8.9-29.18-1.028-7.456-1.923-15.37-.55-22.77 2.24-12.64 11.912-25.407 22.26-32.06 15.47-10.04 61.594-18.533 73.04-2.83 28.416 0 32.402 46.776 29.41 66.83z"/><path d="M100 18.13z" fill="#26120b"/></g></g><defs><radialGradient id="A" cx="100" cy="114" r="41" xlink:href="#M"><stop stop-opacity=".5" stop-color="#ffe4d6" offset="0"/><stop stop-opacity="0" stop-color="#f0c7b1" offset=".9"/></radialGradient><radialGradient id="B" cx="100" cy="54" r="37" xlink:href="#M"><stop stop-opacity=".5" stop-color="#ffe4d6" offset="0"/><stop stop-opacity="0" stop-color="#f0c7b1" offset=".9"/></radialGradient><linearGradient id="C" x1="100" y1="172" x2="100" y2="130" xlink:href="#M"><stop stop-opacity=".8" stop-color="#e1ac8f" offset="0"/><stop stop-color="#c27b55" offset=".7"/></linearGradient><linearGradient id="D" x1="100" y1="142" x2="100" y2="139" xlink:href="#M"><stop stop-color="#e8b9a0" offset=".1"/><stop stop-color="#e1ac8f" offset="1"/></linearGradient><radialGradient id="E" cx="125.903" cy="85.096" r="13.25" gradientTransform="matrix(-1.0996 0.0423 0.0635 0.9207 206.5488 0.5932)" xlink:href="#M"><stop stop-color="#fff" offset="0"/><stop stop-color="#fdfefe" offset=".544"/><stop stop-color="#f6f8f9" offset=".74"/><stop stop-color="#eaeff2" offset=".879"/><stop stop-color="#d9e3e8" offset=".992"/><stop stop-color="#d8e2e7" offset="1"/></radialGradient><radialGradient id="F" cx="125.541" cy="85.113" r="13.249" gradientTransform="matrix(1.0996 0.0423 -0.0635 0.9207 -6.5488 0.5932)" xlink:href="#M"><stop stop-color="#fff" offset="0"/><stop stop-color="#fdfefe" offset=".544"/><stop stop-color="#f6f8f9" offset=".74"/><stop stop-color="#eaeff2" offset=".879"/><stop stop-color="#d9e3e8" offset=".992"/><stop stop-color="#d8e2e7" offset="1"/></radialGradient><radialGradient id="G" cx="123.371" cy="81.442" fx="136.805" fy="80.36" r="17.038" gradientTransform="matrix(0.9884 0.1367 0.1336 -0.7354 -56.0677 125.3)" xlink:href="#M"><stop stop-color="#e1ac8f" offset="0"/><stop stop-opacity=".3" stop-color="#e1ac8f" offset=".7"/><stop stop-opacity="0" stop-color="#f0c7b1" offset="1"/></radialGradient><radialGradient id="H" cx="78.965" cy="81.143" r="26.237" gradientTransform="matrix(0.7183 -0.06 0.0803 0.6143 8.7915 49.2595)" xlink:href="#M"><stop stop-opacity="0" offset=".95"/><stop stop-opacity=".2" offset="1"/></radialGradient><radialGradient id="I" cx="122.972" cy="81.425" fx="136.406" fy="80.344" r="17.037" gradientTransform="matrix(-0.9884 0.1367 -0.1336 -0.7354 255.271 125.3424)" xlink:href="#M"><stop stop-color="#e1ac8f" offset="0"/><stop stop-opacity=".3" stop-color="#e1ac8f" offset=".7"/><stop stop-opacity="0" stop-color="#f0c7b1" offset="1"/></radialGradient><radialGradient id="J" cx="79.515" cy="81.186" r="26.237" gradientTransform="matrix(-0.7183 -0.06 -0.0803 0.6143 191.2076 49.2665)" xlink:href="#M"><stop stop-opacity="0" offset=".95"/><stop stop-opacity=".2" offset="1"/></radialGradient><path id="K" d="M195.417 199.778c-2.196-4.746-8.195-11.78-14.86-13.722-8.24-2.403-26.837-5.308-33.733-6.923-5.528-1.296-16.662-11.294-20.564-14.65-.7-.6-1.273-1.84-1.287-2.76-.14-10.864 4.195-39.724 4.195-39.724H70.833s4.334 28.86 4.193 39.724c-.01.92-.587 2.16-1.285 2.76-3.902 3.356-15.036 13.354-20.564 14.65-6.897 1.615-25.495 4.62-33.733 7.022-6.667 1.942-12.664 8.876-14.86 13.622-3.708 8.008-4.584 22.5-4.584 35h200c0-12.5-.877-26.99-4.583-35z"/><path id="L" d="M100.002.867C66.384.92 39.082 28.536 39.134 62.56c.008 5.403.704 10.643 2.002 15.634.013.054 11.543 38.59 14.02 51.25 1.382 7.06 9.063 15.656 16.53 20.85 6.967 4.845 11.263 11.574 28.313 11.574s21.346-6.73 28.313-11.574c7.468-5.192 15.15-13.79 16.53-20.85 2.48-12.658 14.01-51.196 14.02-51.25h.002c1.298-4.992 1.994-10.23 2.002-15.634.054-34.024-27.25-61.64-60.867-61.693z"/><linearGradient id="M" gradientUnits="userSpaceOnUse"/></defs></svg>