<svg xmlns="http://www.w3.org/2000/svg" xmlns:xlink="http://www.w3.org/1999/xlink" width="600" height="600"><style><![CDATA[.W{fill:#f0c7b1}.X{fill:#c27b55}.Y{stroke:#c27b55}.Z{stroke-width:1.5}]]></style><g transform="scale(3)"><path d="M225 225H-25V-25h250V225z" fill="#aee239"/><g transform="matrix(.849999 0 0 .849999 15.000127 17.015024)"><path d="M100.5 100.5h-1v-1h1v1z" fill="#080806"/><use xlink:href="#K" class="W"/><path d="M159.156 184.058c24.342 3.542 34.586 8.708 37.794 50.72H200c0-12.5-.877-26.992-4.583-35-2.196-4.746-8.195-11.78-14.86-13.722-8.24-2.403-26.837-5.308-33.733-6.923-5.528-1.296-18.242-12.07-21.643-16.35 3.36 4.704 12.79 15.605 21.054 18.46 3.953 1.366 7.245 1.988 12.92 2.814zm-105.4-2.814c8.263-2.854 17.693-13.756 21.054-18.46-3.4 4.28-16.114 15.054-21.643 16.35-6.896 1.615-25.494 4.62-33.733 7.022-6.665 1.942-12.664 8.876-14.86 13.622-3.706 8.008-4.583 22.5-4.583 35h3.05c3.188-41.744 13.475-47.183 37.794-50.72 5.675-.825 8.968-1.447 12.92-2.813z" fill="#ffe4d6"/><path d="M95.646 197.62l-7.083-2.38c-10.45-4.01-44.395-6.607-44.395-6.607s35.754 1.42 43.644 2.78c-.458-4.767-3.017-20.004-3.017-20.004l6.41 21.057c.674 2.268 4.442 5.154 4.442 5.154zm10.8-1.342c-.09.073-.19.168-.302.268a2.27 2.27 0 0 0 .302-.268zm-10.8 1.342s2.893 2.992 4.347 3.03c1.9.05 4.828-2.9 6.15-4.104-1.265.957-4.16 1.39-5.3 1.436-1.33.05-5.188-.362-5.188-.362zm21.018-7.52c-1.545.248-4.386.79-4.386.79l2.287-14.9c-.646 3.07-4.474 16.21-8.12 20.278 1.9-1.616 6.158-2.39 8.324-2.704 10.236-1.484 10.232-1.483 41.062-4.94 0 0-29.07-.155-39.167 1.467z" fill="#e1ac8f"/><use xlink:href="#K" fill="none" class="Y Z"/><path d="M75.085 163.986c6.598 3.574 14.825 5.886 25.017 5.88 10.183.006 18.332-2.283 24.84-5.83-.428-.713-.708-1.563-.72-2.304-.126-9.877 3.345-34.02 4.076-38.983H71.703c.73 4.963 4.202 29.106 4.074 38.982-.01.71-.28 1.547-.692 2.254z" fill="url(#I)"/><path d="M111.806 235.888c-19.135 0-41.455-.074-68.233-.23l-40.566-.222-4.9.007c-4.57-41.875 14.4-52.87 43.762-56.708 7.79-1.097 15.45-3.097 21.46-6.972 16.327 22.243 64.81 17.562 73.103-.63 1.4.53 2.54 1.215 3.977 1.734 4.666 3.433 11.072 5.836 17.628 6.2 26.008 1.44 44.42 12.996 44.057 54.64.003.165.004 1.175-.013 1.5l-27.034.262-63.23.427z" fill="#82cbe2"/><path d="M201.055 234.64c-.4-7.385-4.064-28.058-10.36-37.54-12.482-18.805-42.26-12.206-49.132-19.693-4.986 10.16-24.975 16.595-31.594 17.54 19.18-6.36 27.237-10.96 30.42-21.87 6.405 8.33 41.074 1.97 54.717 24.33 3.995 6.547 7.794 27.386 5.95 37.233zM55.81 177.628c1.357-.315 2.034-1.25 3.38-1.614l-1.426-1.89c-9.05 7.052-42.91 2.645-54.52 24.036-3.66 6.74-6.127 22.788-4.192 36.44.537-8.384.8-26.314 7.095-35.798 11.324-17.06 31.974-12.553 47.62-19.775 6.983 8.6 17.888 12.828 28.984 14.577-13.92-3.63-21.903-9.762-26.942-15.974z" fill="#a3dff1"/><path d="M135.3 173.244c-5.532 11.514-47.35 24.923-70.93.88-1.466.622-5.852 2.112-5.852 2.112 17.176 23.386 67.51 23.534 80.91-.114-.06-.023-2.765-2.185-4.127-2.877z" fill="#64b8d3"/><path d="M136.38 171.002c-9.413 18.822-58.397 21.485-73.012.632-5.337 1.578-10.47 4.94-15.636 5.782-30.92 4.605-53.778 6.92-49.732 58.136 9.94 0-6.61-.065 45.57.215l158.606-.46c.03-.14.015-1.452.02-1.596 2.096-56.436-30.852-53.104-53.12-56.995-3.144-.718-6.066-2.773-8.635-3.945-1.42-.65-2.625-1.232-4.063-1.768zm-73.366 1.263c12.974 23.392 64.22 18.7 74.113.1 1.2.504 1.507.704 2.898 1.197-10.248 21.49-60.942 28.337-81.677 1.163.146-.04 3.204-1.913 4.666-2.46zm-63.86 62.513c-2.42-26.43 1.797-48.043 32.78-53.345 10.276-1.896 16.557-1.962 25.384-5.794 16.763 27.405 72.098 23.158 83.598-1.305 1.652 1.41 4.228 3.03 7.405 3.785 18.098 4.3 54.838-.894 52.898 56.658-54.057-.702-98.865-2.344-202.065.001z" fill="#3295b4"/><path d="M47.218 81.505c-.967-2.487-8.082-6.002-11.2-5.447-3.538.627-4.838 4.356-4.37 7.12 1.103 6.487 3.996 9.22 5.296 14.286 1.096 4.273 3.433 6.732 4.588 8.548 1.42 2.228 2.73 7.34 3.023 8.087.463 1.18 2.103 4.043 5.002 3.896 3.333-.172 7.545-6.688 7.614-8.135.382-7.85-7.43-21.88-9.944-28.354z" class="W Y Z"/><path d="M47.953 107.96s.43-1.07-.094-2.022c-.672-1.223-2.423-3.468-2.82-4.81-.325-1.098-.16-3.445-.213-4.593-.094-2.03-1.492-3.42-1.927-4.585-2.914-7.793-6.792-12.623-9-13.626-1.633 3.99-.34 6.907 1.94 13.045-1.375-8.342-.054-10.95-.054-10.95s4.018 3.465 6 11.172c.36 1.39-1.11 4.294-.83 5.705.352 1.772 4.184 5.2 5.257 6.635.837 1.117 1.74 4.03 1.74 4.03z" class="X"/><path d="M152.52 81.505c.967-2.487 8.082-6.002 11.21-5.447 3.54.627 4.838 4.356 4.37 7.12-1.104 6.487-3.996 9.22-5.297 14.286-1.096 4.273-3.434 6.732-4.588 8.548-1.42 2.228-2.73 7.34-3.023 8.087-.463 1.18-2.104 4.043-5.002 3.896-3.332-.172-7.545-6.688-7.613-8.135-.384-7.85 7.43-21.88 9.943-28.354z" class="W Y Z"/><path d="M151.785 107.96s-.43-1.07.094-2.022c.672-1.223 2.424-3.468 2.82-4.81.324-1.098.16-3.445.215-4.593.094-2.03 1.5-3.42 1.926-4.585 2.914-7.793 6.793-12.623 9-13.626 1.633 3.99.338 6.907-1.94 13.045 1.375-8.342.053-10.95.053-10.95s-4.018 3.465-6.002 11.172c-.357 1.39 1.11 4.294.83 5.705-.352 1.772-4.184 5.2-5.256 6.635-.837 1.117-1.74 4.03-1.74 4.03z" class="X"/><use xlink:href="#L" class="W"/><path d="M135.855 12.494c11.76 11.195 19.223 27.82 19.246 46.408.008 5.365-.602 10.57-1.76 15.53h-.005c-.01.054-6.717 28.706-9.05 43.634-1.77 11.343-11.19 40.795-44.184 40.773-32.996.02-43.246-29.672-44.37-40.773-1.526-15.06-8.853-43.58-8.863-43.634h-.004c-1.162-4.96-1.772-10.165-1.765-15.53.026-18.6 7.49-35.215 19.25-46.4-15.2 11.093-25.086 29.1-25.117 49.438-.008 5.365.67 10.57 1.953 15.53h.004c.01.054 8.12 28.575 9.808 43.634 1.244 11.102 12.587 40.796 49.103 40.773 36.515.022 46.938-29.43 48.897-40.773 2.58-14.93 10-43.58 10.013-43.634h.005c1.283-4.96 1.96-10.165 1.952-15.53-.03-20.347-9.915-38.343-25.113-49.436z" fill="#e8b9a0"/><use xlink:href="#L" fill="none" class="Y Z"/><path d="M99.825 142.068c-3.24 0-4.753-2.802-4.753-2.802s4.797.78 9.28-.064c.001 0-1.676 2.866-4.526 2.866z" fill="url(#J)"/><path d="M95.21 139.35c-.132-.04-.23-.15-.208-.285s.15-.224.286-.21c3.612.857 5.963.66 8.766-.043.145-.035.27.062.297.195s-.063.256-.193.296c-3.06.904-6.017.938-8.948.046zm-9.764-5.39c.313-.144.582-.086 1.073-.115l4.54-.61c1.348-.274 2.774-.662 4.158-.597 1.488.07 2.88.67 4.353.83 1.4.15 2.708-.23 4.053-.557 1.542-.376 3-.287 4.56.006l5.69 1.038c.582.055.365.413.032.454-1.713.205-3.43-.068-5.194-.25-1.425-.146-2.868-.33-4.274.02-1.518.38-3.437.822-4.605.808-1.3-.017-2.52-.538-3.784-.807-1.55-.327-3.09-.02-4.647.143-1.938.2-3.672.34-5.58.047-.5-.078-.516-.345-.375-.4z" class="X"/><path d="M76.732 78.383c4.587.68 7.93 3.488 10.773 7.94.025.035.04.06.044.088.255 1.007-.816 1.82-2.155 2.438-4.77.61-9.36 1.49-14.194.87-9.68-1.24-9.855-5.51-10.326-6.63-.252-1.1-.325-1.417-.31-2.473 2.332-1.366 4.043-1.647 5.854-2.005 2.124-.418 6.85-.744 10.315-.23z" fill="url(#C)"/><path d="M80.25 84a6 6 0 1 1-12 0 6 6 0 1 1 12 0z" fill="#4e60a3"/><path d="M70.762 86.805c.875-.072.1-.306.1-.306-.433-.233-1.248-.592-1.248-.92 0-1.03 1.414-1.3-.034-1.705-1.504-1.38 1.167-1.352 1.147-1.398-.975-2.376.3-1.07.835-1.773 1.988-2.6.554.267 1.633 0 .39-.096-.78-1.53.034-1.33.54.132.662.58.662.58.393-.077 1.008-.682 1.008-.682.75.226 1.275 1.3 1.043 1.09.368-.045.884-.22 1.286-.34 0 0 .07-.24.14-.033.917 2.66 3.284 2.47.56 3.24 0 0-.176 0 .382.442 2.7 2.164-2.102 1.495.45 2.5.104-.104-1.53.965-1.53 1.26 0 .5-1.042 1.818-1.946 1.3-.504-.288-.58.6-.877.2-.58-.803-1.742-.035-1.313-.773.634-.52-.654.204-.904.204-.828 0 1.083-2.783 3.894-.715.822.602-.864-1.433.625-1.433.15.05.104-.52.104-.682-.774-.15 1.4-.003 1.4-1.262.137.027.51-.35-1.635 0 0 0-.068-.75-.034-.886.1-.438 1.214-.298.904-.75 0-.001-.8-1.604-.8-1.604-2.573-.414-1.102-.672-2.71-.34-.076.378-3.445 1.984-3.338 2.73.1.702 2.115.938.208 2.182 2.858 5.472-2.1-.125-.035 1.226z" fill="#6777b2"/><path d="M74.25 78.75l.17 4.393 1.837-3.993-1.523 4.123 3.227-2.985-2.985 3.226L79.1 82l-3.992 1.84L79.5 84l-4.392.17 3.992 1.84-4.124-1.523 2.985 3.226-3.227-2.985 1.523 4.123-1.837-3.993-.17 4.393-.17-4.393-1.838 3.993 1.522-4.123-3.226 2.985 2.985-3.226-4.124 1.523 3.992-1.84L69 84l4.4-.17L69.398 82l4.124 1.523-2.985-3.226 3.226 2.985-1.522-4.123 1.838 3.993.17-4.393z" fill="#253984"/><path d="M75.046 80.067l-.54 3.315 1.98-2.71-1.766 2.857 2.87-1.748-2.725 1.964 3.32-.515-3.268.77 3.266.794-3.317-.538 2.712 1.982-2.858-1.765 1.748 2.87-1.964-2.725.516 3.32-.77-3.27-.795 3.264.54-3.315L72 87.326l1.768-2.857-2.87 1.748 2.725-1.964-3.32.516 3.27-.77-3.264-.793 3.315.537-2.712-1.982 2.858 1.765-1.747-2.87 1.964 2.725-.516-3.318.772 3.27.792-3.266z" fill="#152975"/><path d="M76.5 84a2.25 2.25 0 1 1-4.5 0 2.25 2.25 0 1 1 4.5 0z" opacity=".9"/><g fill="#fff"><path d="M71.887 88.31c-.33.332-.985.215-1.46-.26s-.593-1.13-.26-1.46.985-.214 1.46.26.593 1.13.26 1.46z" opacity=".7"/><path d="M79.056 82.818c-.496.496-1.697.1-2.682-.886s-1.382-2.187-.886-2.683 1.697-.1 2.682.886 1.382 2.187.886 2.683z" opacity=".9"/></g><path d="M55.112 83.583c3.224 11.315 7.475 23.313 17.685 23.67s22.135-7.24 22.3-22.238c.173-16.767-10.474-23.38-20.684-23.737s-24.096 5.437-19.29 22.306zm5.763-.493c-.252-1.1-.325-1.417-.31-2.473 2.027-1.2 4.04-1.547 5.85-1.905 2.123-.418 6.853-.845 10.317-.33 4.587.68 7.93 3.488 10.773 7.94.025.035.04.06.044.088.255 1.007-.816 1.82-2.155 2.438-4.77.61-9.36 1.49-14.194.87-9.68-1.24-9.855-5.51-10.325-6.63z" class="W"/><path d="M74.225 95.17c9.256 1.4 17.847-3 19.186-9.86s-5.072-13.537-14.33-14.94-17.845 3.012-19.185 9.862 5.07 13.532 14.328 14.937zM60.563 80.617c2.125-1.14 4.04-1.547 5.85-1.905 2.123-.418 6.853-.845 10.317-.33 4.587.68 7.93 3.488 10.773 7.94.025.035.04.06.044.088.255 1.007-.816 1.82-2.155 2.438-4.77.61-9.36 1.49-14.194.87-9.68-1.24-9.855-5.51-10.326-6.63-.25-1.1-.323-1.418-.3-2.473z" fill="url(#E)"/><path d="M60.875 83.1c-.252-1.1-.325-1.417-.31-2.473 2.092-1.175 4.04-1.547 5.85-1.905 2.123-.418 6.853-.845 10.317-.33 4.587.68 7.93 3.488 10.773 7.94.025.035.04.06.044.088.255 1.007-.816 1.82-2.155 2.438-4.77.61-9.36 1.49-14.194.87-9.68-1.24-9.855-5.51-10.325-6.63z" fill="url(#F)"/><path d="M76.327 75.748c3.294.54 6.505 2.054 9.48 3.945.637.404 1.366.865 2.52 1.45-.828-.188-1.594-.617-2.31-1.01.736.698 1.422 1.53 1.982 2.334-2.52-3.16-7.297-5.538-11.36-6.35-3.902-.78-10.99-.264-16.25 2.042 4.818-2.71 11.847-3.08 15.937-2.412z" class="X"/><path d="M87.508 86.277c-2.847-4.34-6.193-7.082-10.78-7.747-4.833-.705-11.27-.22-15.034 1.843-.308.17-1.607 1.25-1.4.117.874-1.167 4.322-2.523 5.993-2.928 18.745-4.543 22.297 10.292 21.223 8.715zM60.646 82.84c-.716 2.063.86 6.654 10.145 7.503 6.595.602 15.767-1.75 14.634-1.613-4.78.59-9.375 1.45-14.22.84-10.982-1.38-9.738-6.547-10.56-6.73z"/><path d="M122.867 78.383c-4.586.68-7.93 3.488-10.773 7.94-.024.035-.038.06-.043.088-.256 1.007.815 1.82 2.154 2.438 4.77.61 9.36 1.49 14.194.87 9.68-1.24 9.855-5.51 10.325-6.63.253-1.1.325-1.417.312-2.473-2.33-1.366-4.043-1.647-5.854-2.005-2.123-.418-6.85-.744-10.315-.23z" fill="url(#D)"/><path d="M131.75 84a6 6 0 1 1-12 0 6 6 0 1 1 12 0z" fill="#4e60a3"/><path d="M122.258 86.806c.88-.076.105-.305.105-.305-.434-.234-1.254-.592-1.254-.926 0-1.03 1.418-1.295-.023-1.705-1.512-1.377 1.16-1.348 1.137-1.395-.973-2.38.305-1.072.844-1.775 1.98-2.596.55.27 1.63 0 .387-.094-.785-1.53.035-1.33.54.135.656.58.656.58.398-.076 1.008-.68 1.008-.68.75.223 1.277 1.29 1.043 1.1.375-.047.89-.223 1.29-.34 0 0 .07-.24.14-.035.914 2.66 3.28 2.473.563 3.24 0 0-.176 0 .375.44 2.707 2.168-2.098 1.494.457 2.5.105-.1-1.535.967-1.535 1.266 0 .498-1.043 1.816-1.945 1.295-.504-.287-.586.604-.88.193-.574-.803-1.746-.035-1.313-.773.633-.52-.656.205-.902.205-.832 0 1.078-2.783 3.89-.715.82.598-.867-1.436.633-1.436.14.047.105-.52.105-.68-.785-.152 1.383-.006 1.383-1.266.14.03.516-.346-1.63 0 0 0-.07-.75-.035-.885.105-.44 1.207-.3.902-.75l-.797-1.605c-2.578-.4-1.102-.668-2.72-.34-.07.38-3.445 1.986-3.34 2.73.105.703 2.12.938.21 2.18 2.858 5.48-2.1-.12-.036 1.233z" fill="#6777b2"/><path d="M125.75 78.75l.176 4.395 1.828-3.996-1.523 4.125 3.234-2.988-2.988 3.23 4.125-1.523-3.996 1.84L131 84l-4.395.17 3.996 1.84-4.125-1.523 2.988 3.23-3.234-2.988 1.523 4.125-1.828-3.996-.176 4.39-.176-4.395-1.84 3.996 1.523-4.125-3.223 2.988 2.988-3.23-4.125 1.523 3.996-1.84-4.395-.17 4.395-.17-3.996-1.84 4.125 1.523-2.988-3.23 3.223 2.988-1.523-4.125 1.84 3.996.176-4.39z" fill="#253984"/><path d="M126.547 80.067l-.54 3.316 1.98-2.713-1.77 2.86 2.87-1.752-2.72 1.97 3.316-.516-3.27.768 3.27.797-3.316-.54 2.707 1.98-2.86-1.764 1.746 2.87-1.957-2.725.516 3.316-.773-3.267-.797 3.264.54-3.316-1.98 2.713 1.77-2.86-2.87 1.752 2.72-1.97-3.316.516 3.27-.768-3.27-.797 3.316.54-2.707-1.98 2.86 1.764-1.746-2.87 1.957 2.725-.516-3.316.773 3.27.797-3.267z" fill="#152975"/><path d="M128 84a2.25 2.25 0 1 1-4.5 0 2.25 2.25 0 1 1 4.5 0z" opacity=".9"/><g fill="#fff"><path d="M123.383 88.312c-.328.328-.984.217-1.453-.264-.48-.475-.598-1.125-.258-1.46.328-.328.984-.21 1.453.264.48.474.598 1.125.258 1.46z" opacity=".7"/><path d="M130.555 82.815c-.492.498-1.7.105-2.684-.885-.984-.984-1.383-2.186-.88-2.678.492-.498 1.688-.105 2.672.885.996.985 1.383 2.186.89 2.678z" opacity=".9"/></g><path d="M125.197 61.277c-10.21.356-20.857 6.97-20.685 23.737.154 15 12.08 22.595 22.3 22.238s16.187-17.323 17.685-23.67c4.03-17.07-9.08-22.662-19.3-22.306zM128.4 89.72c-4.835.62-9.423-.26-14.194-.87-1.34-.618-2.4-1.43-2.154-2.438.006-.027.02-.053.025-.08 2.86-4.46 6.206-7.27 10.79-7.948 3.465-.516 8.195-.09 10.318.33 1.81.357 3.824.694 5.85 1.905.014 1.055-.06 1.372-.312 2.473-.47 1.12-.644 5.388-10.325 6.63z" class="W"/><path d="M139.703 80.234c-1.34-6.85-9.928-11.26-19.186-9.862s-15.67 8.09-14.328 14.94 9.93 11.26 19.186 9.86 15.668-8.09 14.328-14.937zm-.978 2.856c-.47 1.12-.645 5.388-10.325 6.63-4.835.62-9.423-.26-14.194-.87-1.34-.618-2.4-1.43-2.154-2.438.006-.027.02-.053.025-.08 2.86-4.46 6.206-7.27 10.79-7.948 3.465-.516 8.195-.09 10.318.33 1.81.357 3.727.764 5.85 1.905.013 1.055-.06 1.372-.312 2.473z" fill="url(#G)"/><path d="M138.725 83.1c.253-1.1.325-1.417.312-2.473-2.092-1.175-4.04-1.547-5.85-1.905-2.123-.418-6.854-.845-10.318-.33-4.586.68-7.93 3.488-10.773 7.94-.024.035-.038.06-.043.088-.256 1.007.815 1.82 2.154 2.438 4.77.61 9.36 1.49 14.194.87 9.68-1.24 9.855-5.51 10.325-6.63z" fill="url(#H)"/><path d="M123.273 75.748c-3.295.54-6.506 2.054-9.48 3.945-.637.404-1.367.865-2.52 1.45.828-.188 1.594-.617 2.31-1.01-.736.698-1.422 1.53-1.982 2.334 2.52-3.16 7.297-5.538 11.36-6.35 3.902-.78 10.99-.264 16.252 2.042-4.82-2.71-11.848-3.08-15.937-2.412z" class="X"/><path d="M133.314 77.563c1.672.405 5.12 1.76 5.994 2.928.205 1.132-1.094.052-1.402-.117-3.764-2.064-10.2-2.548-15.033-1.843-4.588.665-7.936 3.407-10.78 7.747-1.074 1.576 2.478-13.26 21.222-8.715zm-4.92 12.007c-4.844.6-9.44-.25-14.22-.84-1.134-.137 8.038 2.215 14.633 1.613 9.284-.85 10.86-5.44 10.145-7.503-.823.182.422 5.35-10.56 6.73z"/><path d="M141 113.974c.035 22.622-18.292 40.994-40.938 41.025-22.642.037-41.028-18.273-41.063-40.9C58.964 91.48 77.29 73.035 99.936 73s41.03 18.35 41.064 40.975z" fill="url(#A)"/><path d="M137.5 54c0 20.71-16.79 37.5-37.5 37.5S62.5 74.7 62.5 54 79.3 16.5 100 16.5s37.5 16.79 37.5 37.5z" fill="url(#B)"/><path d="M59.396 71.48c16.138-1.7 18.92 1.72 27.556 5.214.474.186 1.583.4 1.88-.098.787-1.312-2.444-3.68-3.84-4.295-9.14-4.248-21.03-4.042-25.596-.82zm81.208 0c-16.14-1.7-18.92 1.72-27.556 5.214-.474.186-1.583.4-1.88-.098-.787-1.312 2.443-3.68 3.84-4.295 9.14-4.248 21.03-4.042 25.596-.82z" fill="#2a232b"/><path d="M99.98 120.982c-2.6-.08-7.224-2.758-6.672-5.166.51-2.238 3.422.816 6.766.844s7.336-1.967 7.806.277c.757 3.624-3.713 4.175-7.9 4.045z" fill="#e8b9a0"/><path d="M105.793 119.62c.2.275.572.275.797-.002.23-.277.243-.727.027-1-1.568-2.02-4.4.688-4.177.97.08.105 2.168-1.473 3.353.034zm-11.687-5.143c.33 2.148 1.012 5.016 6.507 6.52-5.417-.16-8.937-1.17-8.908-6.206.015-2.55 2.678-7.8 2.678-7.8s-.625 5.207-.277 7.477z" class="X"/><path d="M71.7 128.57c.26 1.18.08 1.62-.33 2.5.3-1.35.32-1.37.33-2.5zm26.9 29.08c-.02-1.2-.44-1.85-1.56-2.22.9.6 1.33 1.16 1.56 2.22zm-3.8-1.1c-.05-1.04-.28-1.67-1.1-2.33.56.8.8 1.33 1.1 2.33zm-3.93-1.32c.08.46.74 1.3 1.33 1.5-.5-.28-1.33-1.5-1.33-1.5zm-3.67-1.67c.08.24.68 1.88.83 1.67.01 0-.95-2.02-.83-1.67zm2.5-2.83c-.25 1-.3 1.6-.17 2.67a23.49 23.49 0 0 0 .17-2.67zm2.17-2.84a9.56 9.56 0 0 0 0 2.33c.1-.66.1-1.43 0-2.33zm1.17 4.84c.66-.85.9-1.3 1.17-2.33-.2.33-1.02 1.97-1.17 2.33zm3.66-2.34c-.08 1.28.04 1.85.5 2.83l-.5-2.83zm-1.5-1.5a5.42 5.42 0 0 0 .67-2.17c-.18.44-.57 1.76-.67 2.17zm3.84-1.5c-.07.62.05 1.77.67 1.67-.47.08-.6-1.2-.67-1.67zm-3.84-2.5c.32-.74.56-1.58.67-2.33-.33.75-.55 1.56-.67 2.33zm-7 1.84a5.8 5.8 0 0 0-.33 2.5c.1-.46.3-2 .33-2.5zm-2.83 6.33c.5-1 .7-1.62.83-2.67a23.91 23.91 0 0 0-.83 2.67zm-2.33-2.5c-.54.6.17 1.67.17 1.67-.02-.72-.4-1.07-.17-1.67zm1-5.77c0-.06-.12.23.16 2.6.06-2.55-.17-2.93-.17-2.5.01 0 .01-.04.01-.1zm-3.84 2.1c.08 1.47.03 2.06.33 3-.1-2.13-.06-2-.33-3zm-2.5.17c-.18.83-.2 1.34.33 2-.36-.74-.33-1.15-.33-2zm-4.16-2.17c.02-.5-.01-1.1-.15-1.68 0-.1-.07.67.15 1.68zm1.72.6l.6-2.92c-.42.7-.6 2.92-.6 2.92zm3.44-3.6c-.55.52-.86 1.66-.83 2.33.1-.44.54-1.9.83-2.33zm2.67 2.84c.25-1.07.3-1.7.17-2.83-.1.67-.18 2.28-.17 2.83zm-.17-8.5c-.2.65-.24.95-.17 1.67a49.74 49.74 0 0 0 .17-1.67zm-2.66 2.66c.46-.63 0-2.33 0-2.33s.13 2.03 0 2.33zm-3.67-1.16c.17.83.46 1.74.83 2.5a10.49 10.49 0 0 0-.83-2.5zm-3.33 0c-.3 1.8-.06 2.33.33 3.33-.24-1.48-.3-1.67-.33-3.33zm-2.5-2c-.4.64-.54 2.16.17 3-.4-.77-.37-2.4-.17-3zm.83-5.17s-.5.94-.5 2.33l.5-2.33zm3.17 2.5s-.83.06-.5 2.5c.37-3.06.5-2.5.5-2.5zm4.16 1a10.69 10.69 0 0 0 .5-2.67c-.28.86-.44 1.77-.5 2.67zm-2-6.17c-.46 1.05-.54 1.45-.5 2.5l.5-2.5zm4-1.66c-.67.58-.88 2.1-.83 3 .46-2.72.83-3 .83-3zm4.5.16c-.8.64-1.12 1.1-1.33 2.33.4-.95.48-1.3 1.33-2.33zm2.84 2.67c.64-.63 1.5-3.33 1.5-3.33-.18-.35-1.3 2.98-1.5 3.33zm5-3.33c-.56.13-1.43 2.64-1.67 3.17.3-.43 1.67-3.17 1.67-3.17zm3.16-.17c-.48 1-.74 1.5-1 2.67.48-.95.7-1.73 1-2.67zm4-.5c-.76 1.7-.43 1.22-1.33 3 .57-.7 1-1.33 1.33-3zm29.6 3.5c-.26 1.18-.08 1.62.33 2.5-.3-1.35-.32-1.37-.33-2.5zm-24.84 26.67c-1.12.37-1.5.68-1.5 1.9.23-1.07.6-1.3 1.5-1.9zm2.86-.53c-.82.66-1.14 1.5-1.2 2.53.3-1 .64-1.75 1.2-2.53zm1.48 2.03c.6-.2 1.26-1.04 1.33-1.5 0 0-.84 1.22-1.33 1.5zm4.16-1.5c.15.2.75-1.42.83-1.67.13-.35-.83 1.67-.83 1.67zm-1.5-1.84c.13-1.08.08-1.67-.17-2.67 0 .5.08 2.06.17 2.67zm-2.33-3.16a9.56 9.56 0 0 0 0-2.33 9.04 9.04 0 0 0 0 2.33zm-2.33.16c.28 1.04.5 1.5 1.17 2.33l-1.17-2.33zm-3 2.84c.46-1 .58-1.55.5-2.83-.26 1.72-.14 1.13-.5 2.83zm1.33-6.5a5.22 5.22 0 0 0 .67 2.17c-.1-.42-.5-1.74-.67-2.17zm-2.83 1.33c.6.1.74-1.05.67-1.67-.07.46-.2 1.75-.67 1.67zm2.83-5.5a9.07 9.07 0 0 0 .67 2.33c-.12-.77-.34-1.58-.67-2.33zm8 6.67a5.8 5.8 0 0 0-.33-2.5c.03.5.23 2.04.33 2.5zm1.67 1.16c.13 1.04.33 1.67.83 2.67a23.91 23.91 0 0 0-.83-2.67zm3 1.84s.7-1.06.17-1.67c.22.6-.16.95-.17 1.67zm-.84-7.34c0-.43-.22-.05-.17 2.5.28-2.37.16-2.66.16-2.6.01.06.01.1.01.1zm3.5 5c.3-.94.25-1.53.33-3-.26 1-.22.87-.33 3zm2.5-.83c.54-.66.5-1.17.33-2 .01.85.04 1.26-.33 2zm4.65-5.84c-.14.57-.17 1.17-.15 1.68.22-1.02.15-1.78.15-1.68zm-2.48-.66l.6 2.92s-.2-2.2-.6-2.92zm-2 1.67c.03-.67-.3-1.8-.83-2.33.3.43.72 1.88.83 2.33zm-3.67-2.34c-.14 1.13-.1 1.76.17 2.83.01-.54-.06-2.15-.17-2.83zm.5-4c.07-.72.03-1.02-.17-1.67l.17 1.67zm2.5-1.33s-.46 1.7 0 2.33c-.13-.3 0-2.33 0-2.33zm2.84 3.67a10.49 10.49 0 0 0 .83-2.5 10.49 10.49 0 0 0-.83 2.5zm3.83.83c.4-1 .64-1.53.33-3.33-.02 1.66-.1 1.85-.33 3.33zm2.67-2.33c.7-.84.57-2.36.17-3 .2.6.23 2.23-.17 3zm-.17-5.84c0-1.4-.5-2.33-.5-2.33l.5 2.33zm-3.17 2.67c.33-2.44-.5-2.5-.5-2.5s.13-.56.5 2.5zm-5.16-4.17c.05.9.23 1.83.5 2.67-.06-.9-.22-1.8-.5-2.67zm3-1c.04-1.05-.04-1.45-.5-2.5l.5 2.5zm-3.67-1.16c.05-.9-.17-2.42-.83-3 0 0 .37.28.83 3zm-4-.5c-.2-1.24-.53-1.7-1.33-2.33.85 1.03.94 1.37 1.33 2.33zm-5.67-3s.86 2.7 1.5 3.33c-.2-.35-1.32-3.68-1.5-3.33zm-1.83 3.16c-.24-.53-1.1-3.04-1.67-3.17 0 .01 1.37 2.75 1.67 3.17zm-3.83-.66c-.26-1.15-.52-1.68-1-2.67.3.94.52 1.72 1 2.67zm-3.67-.17c-.9-1.78-.57-1.3-1.33-3 .33 1.67.75 2.3 1.33 3zm-2.12 23.6c-1.02 1.58-.98 2.27-.95 3.27.3-1.43.27-1.42.95-3.27zm-2.58-8.7l.82 2.6c-.03-1.1-.25-1.67-.82-2.6zm2.86 2.13c.25-1.02.78-.7 1.3-2.13-.58.92-1.27 1.05-1.3 2.13zM100 18.13z" fill="#2a232b"/><path d="M158.43 41.325C140-4.765 100 .405 100 .405s-40-5.17-58.43 40.92c-9.245 23.12 2.158 50.324 2.158 50.324h5.826c-5.094-21.752.796-17.662 1.176-21.722.118-1.255-.3-3.367-.42-4.622-.592-6.112 1.982-18.03 5.245-23.173 1.603-2.526 5.37-6.66 8.174-7.7 9.97-3.694 20.044.715 22.854 1.42 4.46 1.12 22.373 1.12 26.836 0 3.343-.84 13.182-4.905 22.854-1.32 2.806 1.04 6.87 4.972 8.474 7.5 3.263 5.144 5.537 16.16 4.945 22.272-.12 1.255-.54 4.367-.422 5.623.107 1.147 2.617 3.69 2.898 4.807 1.16 4.612-1.722 16.915-1.722 16.915h5.825c.001 0 11.406-27.204 2.16-50.324z" fill="#080806"/><path d="M154.938 31.163C136.178-3.114 101.98-.63 100-.455c-1.98-.176-36.177-2.66-54.938 31.618-14.492 26.478-3.492 56.974-2.155 60.45.076.197 1.576.038 1.576.038-.006-.015-.104-.392-.166-.55-1.21-3.12-12.19-33.18 2.06-59.216C65.11-2.342 99.595 1.007 99.94 1.046l.06-.542.06.542c.345-.04 34.83-3.388 53.563 30.837 14.563 26.6 2.773 57.423 1.996 59.383-.02.055-.107.375-.11.383 0 0 1.506.17 1.575-.01 1.29-3.344 12.384-33.93-2.145-60.475z"/><g fill="#fff"><path d="M91.7 89.23c-3.7 7.46-14.12 8.15-17.78 8.15H61.8c-5.75 0-10.86-8-10.86-14.3v-6.16c0-.23.1-.46.3-.7l40.47 13zm18.68-12.58c-2.07 1.43-3.4 3.35-3.4 5.92v.5c0 2.44.5 4.47 1.34 6.15 3.7 7.46 14.12 8.15 17.78 8.15h12.12c4.1 0 7.85-4.05 9.68-8.66l-37.53-12.06z" opacity=".2"/><path d="M91.7 89.23l-40.48-13c1-1.32 4.4-2.7 6.15-2.9 2.18-.26 6.63-.7 11.94-.7 8.86 0 23.72 1.3 23.72 9.96v.5c0 2.44-.5 4.47-1.33 6.15zm57.38-6.15v-6.16c0-.23-.1-.46-.3-.7-1-1.32-4.4-2.7-6.15-2.9-2.18-.26-6.63-.7-11.94-.7-6.23 0-15.4.64-20.33 4.03L147.9 88.7c.75-1.86 1.18-3.8 1.18-5.63z" opacity=".4"/></g><path d="M149.73 78.68v-1.76c0-2.1-4.9-4-7-4.25-9.42-1.12-31.52-2.02-35.7 6.76-2.78-.92-5.88-1.28-7.02-1.3-1.14.01-4.24.37-7.02 1.3-4.17-8.77-26.27-7.88-35.7-6.76-2.1.25-7 2.14-7 4.25v1.76H45.5v2.36h4.77v2.04c0 6.3 5.15 14.94 11.5 14.94H73.9c8.33 0 19.76-3.13 19.76-14.94v-.5c0-.76-.1-1.46-.3-2.12 3.46-1.07 5.55-1.3 6.62-1.3 1.07.01 3.16.24 6.62 1.3-.2.66-.3 1.36-.3 2.12v.5c0 11.8 11.44 14.94 19.76 14.94h12.12c6.36 0 11.5-8.64 11.5-14.94v-2.04h4.77v-2.36h-4.75zm-56.87 4.4c0 13.1-14.5 14.13-18.95 14.13H61.8c-5.66 0-10.7-7.9-10.7-14.13v-6.16c0-1.3 4.1-3.18 6.3-3.44 2.17-.26 6.62-.7 11.92-.7 8.8 0 23.55 1.27 23.55 9.8v.5zm56.05 0c0 6.23-5.04 14.13-10.7 14.13H126.1c-4.45 0-18.95-1.02-18.95-14.13v-.5c0-8.52 14.76-9.8 23.55-9.8 5.3 0 9.75.43 11.92.7 2.2.26 6.3 2.13 6.3 3.44v6.16z" fill="#26120b"/></g></g><defs><radialGradient id="A" cx="100" cy="114" r="41" xlink:href="#M"><stop stop-opacity=".5" stop-color="#ffe4d6" offset="0"/><stop stop-opacity="0" stop-color="#f0c7b1" offset=".9"/></radialGradient><radialGradient id="B" cx="100" cy="54" r="37" xlink:href="#M"><stop stop-opacity=".5" stop-color="#ffe4d6" offset="0"/><stop stop-opacity="0" stop-color="#f0c7b1" offset=".9"/></radialGradient><radialGradient id="C" cx="125.903" cy="85.096" r="13.25" gradientTransform="matrix(-1.0996 0.0423 0.0635 0.9207 206.5488 0.5932)" xlink:href="#M"><stop stop-color="#fff" offset="0"/><stop stop-color="#fdfefe" offset=".544"/><stop stop-color="#f6f8f9" offset=".74"/><stop stop-color="#eaeff2" offset=".879"/><stop stop-color="#d9e3e8" offset=".992"/><stop stop-color="#d8e2e7" offset="1"/></radialGradient><radialGradient id="D" cx="125.541" cy="85.113" r="13.249" gradientTransform="matrix(1.0996 0.0423 -0.0635 0.9207 -6.5488 0.5932)" xlink:href="#M"><stop stop-color="#fff" offset="0"/><stop stop-color="#fdfefe" offset=".544"/><stop stop-color="#f6f8f9" offset=".74"/><stop stop-color="#eaeff2" offset=".879"/><stop stop-color="#d9e3e8" offset=".992"/><stop stop-color="#d8e2e7" offset="1"/></radialGradient><radialGradient id="E" cx="123.371" cy="81.442" fx="136.805" fy="80.36" r="17.038" gradientTransform="matrix(0.9884 0.1367 0.1336 -0.7354 -56.0677 125.3)" xlink:href="#M"><stop stop-color="#e1ac8f" offset="0"/><stop stop-opacity=".3" stop-color="#e1ac8f" offset=".7"/><stop stop-opacity="0" stop-color="#f0c7b1" offset="1"/></radialGradient><radialGradient id="F" cx="78.965" cy="81.143" r="26.237" gradientTransform="matrix(0.7183 -0.06 0.0803 0.6143 8.7915 49.2595)" xlink:href="#M"><stop stop-opacity="0" offset=".95"/><stop stop-opacity=".2" offset="1"/></radialGradient><radialGradient id="G" cx="122.972" cy="81.425" fx="136.406" fy="80.344" r="17.037" gradientTransform="matrix(-0.9884 0.1367 -0.1336 -0.7354 255.271 125.3424)" xlink:href="#M"><stop stop-color="#e1ac8f" offset="0"/><stop stop-opacity=".3" stop-color="#e1ac8f" offset=".7"/><stop stop-opacity="0" stop-color="#f0c7b1" offset="1"/></radialGradient><radialGradient id="H" cx="79.515" cy="81.186" r="26.237" gradientTransform="matrix(-0.7183 -0.06 -0.0803 0.6143 191.2076 49.2665)" xlink:href="#M"><stop stop-opacity="0" offset=".95"/><stop stop-opacity=".2" offset="1"/></radialGradient><linearGradient id="I" x1="100" y1="170" x2="100" y2="122" xlink:href="#M"><stop stop-opacity=".8" stop-color="#e1ac8f" offset="0"/><stop stop-color="#c27b55" offset=".7"/></linearGradient><linearGradient id="J" x1="100" y1="142" x2="100" y2="139" xlink:href="#M"><stop stop-color="#e8b9a0" offset=".1"/><stop stop-color="#e1ac8f" offset="1"/></linearGradient><path id="K" d="M195.417 199.778c-2.196-4.746-8.195-11.78-14.86-13.722-8.24-2.403-26.837-5.308-33.733-6.923-5.528-1.296-16.662-11.294-20.564-14.65-.7-.6-1.273-1.84-1.287-2.76-.14-10.864 4.195-39.724 4.195-39.724H70.833s4.334 28.86 4.193 39.724c-.01.92-.587 2.16-1.285 2.76-3.902 3.356-15.036 13.354-20.564 14.65-6.897 1.615-25.495 4.62-33.733 7.022-6.667 1.942-12.664 8.876-14.86 13.622-3.708 8.008-4.584 22.5-4.584 35h200c0-12.5-.877-26.99-4.583-35z"/><path id="L" d="M100.103.867C66.48.814 39.286 28.147 39.234 61.93c-.008 5.365.67 10.57 1.953 15.53h.004c.01.054 8.12 28.575 9.808 43.634 1.244 11.102 12.587 40.796 49.103 40.773 36.515.022 46.938-29.43 48.897-40.773 2.58-14.93 10-43.58 10.013-43.634h.005c1.283-4.96 1.96-10.165 1.952-15.53C160.92 28.147 133.723.814 100.103.867z"/><linearGradient id="M" gradientUnits="userSpaceOnUse"/></defs></svg>