<svg xmlns="http://www.w3.org/2000/svg" xmlns:xlink="http://www.w3.org/1999/xlink" width="600" height="600"><style><![CDATA[.W{fill:#f0c7b1}.X{fill:#c27b55}.Y{stroke:#c27b55}.Z{stroke-width:1.5}.a{fill:#4e60a3}]]></style><g transform="scale(3)"><path d="M225 225H-25V-25h250V225z" fill="#f9f2e7"/><g transform="matrix(.849999 0 0 .849999 15.000127 17.015024)"><path d="M100.5 100.5h-1v-1h1v1z" fill="#080806"/><use xlink:href="#U" class="W"/><path d="M159.156 184.058c24.342 3.542 34.586 8.708 37.794 50.72H200c0-12.5-.877-26.992-4.583-35-2.196-4.746-8.195-11.78-14.86-13.722-8.24-2.403-26.837-5.308-33.733-6.923-5.528-1.296-18.242-12.07-21.643-16.35 3.36 4.704 12.79 15.605 21.054 18.46 3.953 1.366 7.245 1.988 12.92 2.814zm-105.4-2.814c8.263-2.854 17.693-13.756 21.054-18.46-3.4 4.28-16.114 15.054-21.643 16.35-6.896 1.615-25.494 4.62-33.733 7.022-6.665 1.942-12.664 8.876-14.86 13.622-3.706 8.008-4.583 22.5-4.583 35h3.05c3.188-41.744 13.475-47.183 37.794-50.72 5.675-.825 8.968-1.447 12.92-2.813z" fill="#ffe4d6"/><path d="M95.646 197.62l-7.083-2.38c-10.45-4.01-44.395-6.607-44.395-6.607s35.754 1.42 43.644 2.78c-.458-4.767-3.017-20.004-3.017-20.004l6.41 21.057c.674 2.268 4.442 5.154 4.442 5.154zm10.8-1.342c-.09.073-.19.168-.302.268a2.27 2.27 0 0 0 .302-.268zm-10.8 1.342s2.893 2.992 4.347 3.03c1.9.05 4.828-2.9 6.15-4.104-1.265.957-4.16 1.39-5.3 1.436-1.33.05-5.188-.362-5.188-.362zm21.018-7.52c-1.545.248-4.386.79-4.386.79l2.287-14.9c-.646 3.07-4.474 16.21-8.12 20.278 1.9-1.616 6.158-2.39 8.324-2.704 10.236-1.484 10.232-1.483 41.062-4.94 0 0-29.07-.155-39.167 1.467z" fill="#e1ac8f"/><use xlink:href="#U" fill="none" class="Y Z"/><path d="M124.272 162.248c-.028-.175-.048-.35-.05-.515-.094-7.38 1.82-22.72 3.098-32.078-15.7-1.984-38.937-1.975-54.637.016 1.28 9.36 3.2 24.687 3.094 32.062a3.11 3.11 0 0 1-.03.367c3.825 3.586 7.667 6.528 11.055 8.15 5.312 2.546 21.035 2.427 26.4 0 3.41-1.54 7.254-4.44 11.07-8.003z" fill="url(#C)"/><path d="M197.798 201.546c-10.478-20.278-30.653-17.404-49.968-22.843-.468 3.585-13.25 20.48-16.287 30.06-1.705-1.423-3.74-3.325-5.21-5.066-7.188-8.443-17.84-35.76-21.416-14.428.777-9.576 5.003-11.686 10.87-3.66 6.308 8.638 6.542 13.098 15.542 22.49 1.6-6.6 5.032-11.26 9.036-17.104 3.875-5.663 6.705-8.217 7.12-13.258-1.445-2.408-1.1-3.486-3.434-5.046-14.655-9.912-4.192-19.97-17.476-22.365l-.345 3.55c2.84 1.462 3.69 7.152-.683 11.318-6.95 7.63-18.12 8-21.032 19.723l-.007-.001c-.927 3.477-1.67 8.8-2.02 11.92l-2.455 24.898-2.47-24.457c-2.003-18.36-4.62-20.155-13.183-25.828-5.673-3.76-14.943-9.433-11.917-15.847.345-.742.765-1.198 1.286-1.54l-.354-3.678c-10.967.467-9.28 15.982-17.586 21.7-2.177 1.496-3.287 2.88-4.068 5.13.53 6.28 14.504 20.476 16.945 30.9 9.085-9.592 9.155-13.783 15.5-22.46 5.465-7.465 9.928-6.7 10.867 3.403-.516-3.035-1.738-7.68-4.386-7.68-2.182 0-4.456 3.218-5.58 4.77-6.3 8.678-7.31 14.885-16.647 22.633-.646-1.94-1.404-3.89-2.308-5.706-3.7-7.474-13.72-22.555-14.858-24.017-4.428 1.246-11.177 2.626-15.233 3.3-26.504 4.41-36.778 12.97-40.685 53.03l209.2-.556c-.905-8.914-2.684-25.36-6.767-33.275z" fill="#3f82a4"/><path d="M139.97 190.783c-3.46 5.054-6.2 9.3-7.908 14.62 1.967-10.98 14.436-21.374 13.086-27.94-.578-2.812-10.526-9.08-11.04-18.4 2.745 8.538 12.992 14.632 13.01 18.723.027 6.694-.173 2.807-7.146 12.995zm64.517 43.245c.347-8.682-2.572-25.584-6.2-32.598-10.478-20.278-31.563-17.69-50.877-23.13-.17.218.5 1.66.027 2.28 45.15 8.32 50.3 18.237 57.04 53.448zM55.812 172.075c5.547-4.597 7.2-9.05 8.483-13.01-2.85 16.28-7.11 10.123-10.22 18.276-1.778 4.663 12.003 17.403 13.866 28.063-2.442-4.175-5.06-9.313-8.52-14.367-2.694-3.937-4.4-7.537-7.08-10.567-1.272-6.713 1.355-6.64 3.47-8.394zm-3.472 8.395l-1.065-1.422c-19.314 5.438-38.594 2.104-49.07 22.383-3.62 7.014-5.426 21.363-6.423 30.064 1.93-10.573 4.804-23.893 10.963-31.93 10.444-14.167 29.716-16.9 45.596-19.096z" fill="#5794b3"/><path d="M119.848 171.392c-4.863 2.82-8.98 5.588-11.713 9.48 6.567.362 11.42 12.1 12.734 13.695-12.333-17.166-17-5.5-18.5 5.432.432-3.546.787-9.596 1.487-12.193.204-1.033.423-2.02.654-2.89l.007.001c2.912-11.713 14.08-12.092 21.032-19.723 4.374-4.166 3.523-9.856.683-11.318l.345-3.55a19.23 19.23 0 0 1 1.982.469c8.96 7.88-2.6 17.86-8.71 20.594zm-40.883 0c4.864 2.82 10.812 6.162 13.536 9.717-4.798-.873-10.13 6.294-12.798 12.627 11.5-14.667 15-6.333 18.667 6.265-.43-3.545-1.524-9.596-2.224-12.193-.204-1.033-.422-2.02-.654-2.89H95.486c-2.912-11.713-13.682-12.092-20.633-19.723-4.374-4.166-3.622-9.856-.78-11.318l-.344-3.55a19.23 19.23 0 0 0-1.982.469c-7.508 9.168 1.726 17.26 7.22 20.593z" fill="#2a7195"/><path d="M125.876 163.323c.03-5.7-.16-2.538.418-9 2.224 1.193 2.507 6.1-.418 9zm-51.737-.54c-2.323-3.04-2.6-6.145-.347-8.5.542 5.058.267 4.448.347 8.5z" fill="#196185"/><path d="M147.624 176.915c-.206-3.542-7.813-6.496-11.188-14.175-2.417-5.47-.123-11.734-10.065-12.74-.545 3.187-1.028 10.193-.883 13.58-5.038 5.423-12.83 6.826-17.785 12.657-5.288 6.224-7.58 19.7-7.667 47.667l1.232-.8 1.382-26.563c3.084-26.427 12.888-20.185 22.98-31.263 4.52-4.332 3.44-10.072.722-11.463l.325-3.35c8.552 1.57 6.11 6.605 8.784 12.753 3.556 8.174 10.297 9.96 10.732 13.923.7 6.28-3.058 8.947-6.817 14.434-5.913 8.56-7.28 12.925-8.1 16.308-8.975-9.426-8.98-13.558-15.398-22.338-6.844-9.366-11.34-4.974-13.226 10.996.194-2.625 3.77-17.175 8.043-14.65 4.94 2.878 9.79 15.108 15.56 21.886 1.54 1.823 3.52 3.652 5.345 5.182 3.407-11.897 16-24.465 16.408-30.205 19.695 5.556 53.44-.145 56.44 55.963-41.138.22-85.815-.682-208.97.554C-2.737 216.83.282 198.76 11.2 190.614c4.685-3.507 10.117-5.34 15.712-6.508 7.797-1.616 16.522-2.655 24.253-4.747.788 1 14.205 21.198 17.224 29.597 10.863-8.503 15.207-24.46 21.188-27.214 4.164-1.913 7.56 11.938 7.753 14.553-1.63-16.89-6.95-22.418-17.024-4.923-4.964 8.624-6.28 10.962-11.56 16.5-2.12-8.994-16.895-25.954-16.253-30.662.634-4.646 6.314-3.363 10.098-13.244 2.122-5.54 1.652-11.648 10.708-13.455l.336 3.486c-2.48 1.63-3.11 7.11.852 10.942 3.567 4.085 10.004 6.416 14.255 9.676 5.01 3.867 6.993 7.827 8.588 21.67.035.302 1.37 26.942 1.37 26.942l1.333.667c-.667-27.833-3.335-44.568-8.72-49.258-4.652-4.15-12.775-6.796-16.717-11.43.12-3.476-.565-10.518-.993-13.17-9.01.918-9.264 6.638-11.196 11.632-5.165 13.35-10.134 9.527-10.957 15.06-.077.517.042.906.167 1.594-7.58 1.548-17.04 2.563-24.64 3.953-11.343 2.07-22.045 8.058-26.925 19.452-3.707 8.647-4.78 24.05-5.053 33.543-.01.068-.01.147-.01.215a6.04 6.04 0 0 0 .466.012l209.534-.578c.382-53.36-28.785-51.026-57.363-58.013zm-21.648-13.89c.016-2.933.105-6.33.318-8.69 1.598 1.14 2.84 4.93-.318 8.69zm-51.888-.43c-2.652-3.47-1.6-6.836-.396-8 .25 2.346.35 5.63.396 8z" fill="#0a5276"/><path d="M47.7 83.08c-1.588-2.376-8.025-7.833-11.703-6.994-4.355.993-5.708 4.372-5.603 6.475.606 12.025 4.426 12.016 6.7 16.64 1.71 3.46 3.126 5.044 4.172 11.958.598 3.953 4.427 6.984 7.217 6.835 3.908-.2 6.994-3.716 8.29-7.173 2.69-7.178-4.95-21.556-9.084-27.74z" class="W Y Z"/><path d="M43.274 100.336c-.15-.554-.062-1.507.024-2.43.077-.84 1.438-3.888 1.348-4.44-.344-2.068-1.93-5.94-2.95-8.03-1.17-2.403-3.604-5.41-5.8-6.078-.904-.278-3.48.04-3.78.64-1.13 2.24-.615 4.41 1.1 10.2.85 2.873 3.915 6.207 3.998 6.54 1.067 4.343 5.1 11.284 6.488 12.84.256.288.52.452.58.376s-.104-.368-.36-.656c-1.372-1.547-5.367-8.47-6.396-12.662-1.092-4.446 2.313-11.346 2.93-12.8.38.642.703 1.26.954 1.777.198.406.417.88.645 1.396-.367.76-4.245 6.367-3.026 10.606.45 1.563 2.054 4.592 3.432 6.187.483.56.893.717 1.2 1.234.34.6.732 1.28 1.792 1.726a1.28 1.28 0 0 0 .577.111 1 1 0 0 0 .667-.326c.03.27.044.617.05.94.007.413.073.752.162.755s.168-.333.16-.746c-.01-.51-.04-1.14-.132-1.437-.273-.873-1.028-1.832-1.83-2.844-.79-.996-1.603-2.03-1.834-2.886zM36.96 94.64c-2.347-6.78-1.518-13.668-1.103-14.643 1.345 0 3.778 2.495 4.397 3.498-.38.857-3.417 6.496-3.294 11.145zm8.6 11.775c-.96-.403-1.303-1-1.635-1.58-.3-.524-1.018-1.022-1.346-1.378-.19-.21-.53-.767-.715-.892C40.1 94.958 43.208 92.182 43.83 91.6c.23.73.41 1.4.5 1.94.082.496-1.28 3.552-1.352 4.327-.09.96-.182 1.954-.012 2.583.253.938 1.093 2 1.904 3.028.72.912 1.46 1.852 1.732 2.64-.093.166-.398.57-1.043.298z" class="X"/><path d="M152.05 83.08c1.588-2.376 8.025-7.833 11.7-6.994 4.357.993 5.71 4.372 5.604 6.475-.605 12.025-4.426 12.016-6.71 16.64-1.71 3.46-3.127 5.044-4.174 11.958-.598 3.953-4.428 6.984-7.217 6.835-3.908-.2-6.994-3.716-8.29-7.173-2.688-7.178 4.953-21.556 9.086-27.74z" class="W Y Z"/><path d="M154.633 103.222c-.8 1.013-1.557 1.972-1.83 2.844-.092.297-.123.928-.13 1.437-.008.413.072.75.16.746s.154-.342.162-.755l.05-.94a.99.99 0 0 0 .666.326 1.3 1.3 0 0 0 .578-.111c1.06-.446 1.45-1.126 1.79-1.726.297-.517.71-.675 1.19-1.234 1.377-1.594 2.98-4.624 3.432-6.187 1.22-4.24-2.66-9.846-3.027-10.606l.645-1.396a25.65 25.65 0 0 1 .955-1.777c.617 1.454 4.02 8.354 2.93 12.8-1.03 4.19-5.025 11.115-6.396 12.662-.256.288-.42.58-.36.656s.322-.088.578-.376c1.39-1.556 5.422-8.496 6.5-12.84.082-.333 3.146-3.667 3.996-6.54 1.715-5.8 2.232-7.97 1.102-10.2-.303-.6-2.877-.917-3.783-.64-2.186.67-4.62 3.675-5.79 6.078-1.018 2.1-2.605 5.963-2.95 8.03-.1.552 1.27 3.6 1.348 4.44.086.922.176 1.875.025 2.43-.235.857-1.047 1.9-1.834 2.886zm4.85-19.728c.62-1.003 3.053-3.498 4.396-3.498.416.975 1.244 7.864-1.104 14.643.126-4.65-2.913-10.288-3.292-11.145zm-6.347 22.622c.273-.788 1.012-1.728 1.732-2.64.81-1.028 1.65-2.1 1.904-3.028.168-.63.076-1.623-.014-2.583-.07-.775-1.434-3.83-1.352-4.327.1-.54.27-1.2.5-1.94.623.582 3.73 3.358 1.967 10.964-.184.125-.523.683-.715.892-.328.356-1.047.854-1.346 1.378-.332.58-.674 1.177-1.635 1.58-.645.272-.948-.132-1.04-.298z" class="X"/><use xlink:href="#V" class="W"/><path d="M110.152 1.982c26.994 6.338 47.097 30.814 47.052 60.04-.01 5.4-.704 10.635-2.004 15.624-.012.054-8.6 37.245-14.13 48.608-4.86 10.004-19.7 27.468-30.067 32.52-2.163 1.055-8.694 1.555-11 1.555s-8.837-.5-11-1.555c-10.367-5.053-25.21-22.517-30.067-32.52-5.52-11.363-14.12-48.554-14.13-48.608-1.3-4.988-1.996-10.225-2.004-15.624-.045-29.225 20.056-53.7 47.052-60.04-28.823 4.895-50.766 30.25-50.72 60.785a62.25 62.25 0 0 0 2.004 15.623c.012.054 9.232 37.24 14.863 48.607 5.052 10.2 20.207 28.085 30.8 33.266 2.658 1.3 9.305 1.855 12.954 1.853s10.79-.552 13.447-1.853c10.594-5.182 25.748-23.066 30.8-33.266 5.63-11.366 14.852-48.553 14.862-48.607a62.25 62.25 0 0 0 2.004-15.623c.048-30.535-21.895-55.9-50.718-60.785z" fill="#e8b9a0"/><use xlink:href="#V" fill="none" class="Y Z"/><path d="M100.2 142.947c-2.832.144-3.644-2.753-3.644-2.753s3.93.565 6.99-.353c.001.001-.855 2.98-3.347 3.106z" fill="url(#D)"/><path d="M100.488 140.76c-1.984.1-3.765-.077-3.877-.09-.138-.014-.238-.136-.224-.272s.143-.233.274-.224c.04.003 4.096.405 6.738-.337.13-.032.27.04.31.174a.25.25 0 0 1-.173.308c-.934.262-2.018.388-3.047.44z" class="X"/><use xlink:href="#W" fill="#fff"/><use xlink:href="#W" fill="none" stroke-width=".75" class="Y"/><use xlink:href="#X" fill="url(#E)"/><g transform="translate(.25)"><path d="M80 84c0 3.313-2.687 6-6 6s-6-2.687-6-6a6 6 0 1 1 12 0z" class="a"/><path d="M73.328 78.066l-.07.01.085.406-.014-.415zm.013.414c.07 1.972.185 3.73.517 4.364.175-.696-.123-2.43-.517-4.364zm.518 4.365c-.043.167-.108.28-.208.32s-.226-.006-.368-.103c.04.167.037.297-.036.378s-.2.1-.373.078c.113.13.17.25.146.353s-.134.182-.293.242c.16.063.266.14.29.245s-.033.223-.145.352c.17-.02.3.001.37.082s.075.212.035.38c.14-.097.265-.14.365-.1s.166.152.206.32c.08-.152.17-.25.28-.26s.216.06.33.188c.001-.172.037-.3.127-.36s.22-.05.38.013c-.078-.152-.105-.28-.055-.377s.173-.146.344-.166c-.14-.1-.227-.2-.225-.308s.084-.21.227-.306c-.17-.02-.29-.072-.342-.167s-.022-.225.058-.377c-.162.06-.292.072-.38.01s-.125-.188-.125-.36c-.112.128-.224.2-.33.185s-.2-.108-.278-.26zm.607.075c.48-.535 1.02-2.21 1.57-4.104-.854 1.777-1.57 3.386-1.57 4.104zm1.57-4.104l.178-.37c-.02-.007-.042-.017-.063-.026l-.115.396zm-1.063 4.454c.672-.252 1.93-1.483 3.297-2.905-1.58 1.176-2.963 2.27-3.297 2.905zm3.297-2.905l.305-.225-.042-.05-.263.274zm-3.015 3.45c.713.088 2.4-.417 4.272-1.04-1.948.308-3.678.633-4.272 1.04zm4.272-1.04l.337-.052-.014-.057-.323.11zm-4.273 1.653c.6.412 2.318.747 4.262 1.063-1.865-.633-3.548-1.148-4.262-1.063zm4.263 1.063l.285.098c.005-.017.01-.033.012-.05l-.297-.048zm-4.55-.52c.333.637 1.708 1.738 3.282 2.924-1.36-1.43-2.61-2.668-3.282-2.924zm3.283 2.922l.18.19c.01-.012.02-.02.03-.032l-.21-.157zm-3.788-2.575c-.003.72.703 2.33 1.547 4.113-.54-1.897-1.07-3.575-1.547-4.113zm1.547 4.114l.063.23.04-.014-.102-.215zM73.85 85.39c-.336.637-.46 2.4-.542 4.36.404-1.93.713-3.663.542-4.36zm-.542 4.36l-.047.228c.014.003.025.003.04.005l.008-.233zm-.03-4.58c-.596.407-1.52 1.904-2.508 3.6 1.254-1.52 2.334-2.912 2.508-3.6zm-2.508 3.6l-.162.193.038.024.124-.217zm2.103-4.07c-.716.083-2.23.978-3.898 2.03 1.818-.762 3.418-1.49 3.898-2.03zm-3.9 2.03l-.263.1c.006.013.015.027.023.04l.24-.15zm3.752-2.628c-.67-.257-2.43-.168-4.395-.01 1.964.168 3.722.265 4.395.01zm-4.395-.01l-.323-.03c0 .02-.002.038 0 .056l.323-.027zm4.542-.583c-.473-.54-2.07-1.277-3.88-2.05 1.66 1.06 3.17 1.964 3.88 2.05zm-3.88-2.05l-.315-.2-.03.055.344.146zm4.3 1.593c-.17-.698-1.24-2.094-2.485-3.623.976 1.712 1.893 3.213 2.485 3.623zM70.8 79.438l-.2-.35-.056.04.255.3z" fill="url(#K)" opacity=".7"/><path d="M74.886 78.086l-.07-.01-.024.414.094-.404zm-.095.403c-.442 1.922-.787 3.65-.63 4.35.35-.628.51-2.38.63-4.35zm-.63 4.35c-.084.15-.176.243-.283.254s-.216-.064-.327-.195c-.004.17-.042.297-.133.356s-.22.045-.38-.02c.076.155.1.285.05.378s-.176.142-.345.158c.137.1.22.204.217.312s-.09.207-.23.302c.17.024.3.08.337.174s.018.225-.064.375c.16-.057.292-.065.38-.002s.12.2.116.363c.117-.125.23-.196.337-.18s.194.113.27.268c.045-.167.113-.28.216-.315s.225.01.363.11c-.036-.167-.03-.3.044-.378s.205-.096.376-.072c-.11-.132-.168-.25-.138-.355s.136-.18.3-.237c-.16-.064-.263-.145-.288-.25s.037-.223.154-.35c-.172.016-.3-.006-.37-.088s-.072-.214-.028-.38c-.142.094-.268.134-.367.093s-.165-.156-.203-.324zm.568.23c.6-.394 1.557-1.87 2.578-3.558-1.285 1.495-2.39 2.863-2.578 3.558zm2.578-3.56l.268-.31c-.02-.013-.036-.028-.055-.042l-.213.353zm-2.18 4.027c.715-.07 2.25-.934 3.937-1.953-1.833.727-3.45 1.425-3.937 1.953zm3.936-1.954l.354-.138-.028-.06-.326.197zm-3.804 2.553c.666.27 2.426.218 4.395.1-1.96-.208-3.716-.342-4.395-.1zm4.395.1l.34.037.002-.058-.34.02zm-4.554.492c.462.55 2.046 1.32 3.842 2.13-1.64-1.095-3.13-2.027-3.842-2.13zm3.84 2.13l.25.168.025-.045-.275-.123zm-4.26-1.68c.156.7 1.2 2.12 2.414 3.674-.943-1.734-1.83-3.254-2.414-3.674zm2.414 3.67l.125.23c.012-.01.024-.016.037-.024l-.162-.205zm-2.99-3.467c-.188.693.076 2.433.43 4.373-.03-1.972-.11-3.73-.43-4.373zm.43 4.373l.003.238.04-.004-.044-.234zm-1.036-4.462c-.5.528-1.064 2.19-1.652 4.072.89-1.76 1.637-3.353 1.652-4.072zm-1.653 4.072l-.104.208c.012.006.023.01.036.015l.068-.223zM73 84.934c-.68.24-1.962 1.446-3.357 2.838 1.607-1.144 3.01-2.21 3.357-2.838zm-3.356 2.838l-.205.145.03.032.176-.177zm3.084-3.387c-.713-.104-2.407.368-4.29.952 1.955-.266 3.688-.556 4.29-.952zm-4.29.954l-.283.04a.32.32 0 0 0 .013.044l.27-.083zm4.304-1.567c-.582-.423-2.303-.792-4.242-1.15 1.854.67 3.526 1.22 4.242 1.15zm-4.242-1.15l-.305-.112-.015.054.32.058zm4.54.612c-.318-.643-1.668-1.77-3.22-2.986 1.328 1.455 2.553 2.72 3.22 2.986zm-3.22-2.985l-.25-.275-.042.046.293.23zm3.733 2.65c.017-.718-.656-2.344-1.464-4.142.5 1.906.998 3.593 1.464 4.142zm-1.464-4.142l-.1-.39-.063.023.164.366z" fill="url(#L)" opacity=".4"/><use xlink:href="#Y" class="a"/><use xlink:href="#Y" opacity=".9"/><path d="M70.717 86.748a.98.98 0 0 1 1.092 1.628.98.98 0 0 1-1.36-.267c-.3-.45-.18-1.06.268-1.36z" fill="url(#M)" opacity=".5"/><path d="M75.86 83.672c-.25.374-.97.33-1.606-.096s-.95-1.078-.7-1.45v-.001c.25-.374.97-.33 1.605.097s.95 1.076.7 1.45z" fill="url(#N)" opacity=".5"/><path d="M78.716 82.673c-.568.873-2.036.925-3.275.117s-1.784-2.17-1.215-3.043 2.036-.924 3.275-.117 1.783 2.172 1.215 3.043z" fill="url(#O)" opacity=".75"/></g><path d="M55.132 85c0 13.808 12.668 21 18 21 9.94 0 18-7.19 18-21s-8.06-25-18-25-18 11.192-18 25zm5.3-4.043c1.226-1.18 9.09-2.674 13.63-2.075 7.183.947 13 7.285 13 7.285s-4.836 3.083-13.6 3.56c-5.78.315-11.593-3.418-13.02-8.77z" class="W"/><path d="M73.98 93.592c9.412 2.223 18.45-1.6 20.194-8.565s-4.478-14.395-13.892-16.622-18.453 1.61-20.195 8.565 4.476 14.395 13.893 16.622zm-13.55-12.635c1.226-1.18 9.09-2.674 13.63-2.075 7.183.947 13 7.285 13 7.285s-4.836 3.083-13.6 3.56c-5.78.315-11.593-3.418-13.02-8.77z" fill="url(#G)"/><use xlink:href="#X" fill="url(#H)"/><path d="M86.632 82.458c-6.502-4.25-4.054-3.1-16.23-6.703 3.344.5 9.572 2.066 11.707 3.32 1.163.654 3.523 2.51 4.523 3.383z" class="X"/><path d="M58.853 80.886c1.947 4.926 9.734 13.96 29.285 5.533-3.097-3.36-11.005-9.113-18.16-9.063-5.993.04-9.342 1.91-11.126 3.53zm1.58.188c1.226-1.137 9.09-2.58 13.63-2 7.183.913 13 7.026 13 7.026s-4.836 2.974-13.6 3.434c-5.78.303-11.593-3.297-13.02-8.46z"/><use xlink:href="#Z" fill="url(#F)"/><g transform="translate(-.25)"><path d="M132 84a6 6 0 0 1-5.999 6c-3.313 0-6-2.687-6-6s2.688-6 6-6A6 6 0 0 1 132 84z" class="a"/><path d="M125.328 78.066l-.07.01.085.406-.014-.415zm.013.414c.07 1.972.185 3.73.518 4.364.174-.696-.124-2.43-.518-4.364zm.517 4.365c-.042.167-.108.28-.207.32s-.226-.006-.367-.103c.04.167.036.297-.036.378s-.2.1-.372.078c.112.13.17.25.146.353s-.134.182-.293.242c.158.063.265.14.3.245s-.032.223-.145.352c.17-.02.3.001.37.082s.075.212.035.38c.14-.097.266-.14.365-.1s.166.152.206.32c.08-.152.172-.25.28-.26s.217.06.33.188c.002-.172.037-.3.128-.36s.22-.05.38.013c-.078-.152-.104-.28-.056-.377s.174-.146.345-.166c-.14-.1-.228-.2-.225-.308s.084-.21.227-.306c-.17-.02-.29-.072-.342-.167s-.022-.225.057-.377c-.16.06-.29.072-.38.01s-.124-.188-.125-.36c-.11.128-.224.2-.33.185s-.198-.108-.278-.26zm.608.075c.48-.535 1.02-2.21 1.57-4.104-.853 1.777-1.567 3.386-1.57 4.104zm1.57-4.104l.18-.37c-.02-.007-.042-.017-.063-.026l-.116.396zm-1.063 4.454c.673-.252 1.932-1.483 3.298-2.905-1.582 1.176-2.963 2.27-3.298 2.905zm3.298-2.905l.305-.225-.042-.05-.263.274zm-3.015 3.45c.713.088 2.4-.417 4.27-1.04-1.948.308-3.678.633-4.27 1.04zm4.27-1.04l.337-.052-.014-.057-.323.11zm-4.273 1.653c.59.412 2.318.747 4.263 1.063-1.866-.633-3.55-1.148-4.263-1.063zm4.263 1.063l.285.098.013-.05-.298-.048zm-4.55-.52c.332.637 1.708 1.738 3.282 2.924-1.358-1.43-2.61-2.668-3.282-2.924zm3.283 2.922l.178.19c.01-.012.02-.02.03-.032l-.21-.157zm-3.787-2.575c-.003.72.702 2.33 1.547 4.113-.54-1.897-1.07-3.575-1.547-4.113zm1.547 4.114l.063.23.04-.014-.102-.215zm-2.157-4.042c-.336.637-.46 2.4-.542 4.36.404-1.93.713-3.663.542-4.36zm-.542 4.36l-.047.228c.014.003.024.003.04.005l.008-.233zm-.03-4.58c-.596.407-1.52 1.904-2.508 3.6 1.255-1.52 2.334-2.912 2.508-3.6zm-2.508 3.6l-.16.193.037.024.124-.217zm2.103-4.07c-.716.083-2.23.978-3.897 2.03 1.818-.762 3.418-1.49 3.897-2.03zm-3.897 2.03l-.263.1c.006.013.014.027.023.04l.24-.15zm3.752-2.628c-.672-.257-2.43-.168-4.396-.01 1.965.168 3.722.265 4.396.01zm-4.396-.01l-.322-.03c-.001.02-.003.038-.001.056l.323-.027zm4.543-.583c-.474-.54-2.07-1.277-3.882-2.05 1.66 1.06 3.17 1.964 3.882 2.05zm-3.882-2.05l-.315-.2-.028.055.343.146zm4.3 1.593c-.17-.698-1.24-2.094-2.485-3.623.976 1.712 1.893 3.213 2.485 3.623zm-2.485-3.623l-.198-.35-.057.04.255.3z" fill="url(#P)" opacity=".7"/><path d="M126.886 78.086l-.07-.01-.024.414.094-.404zm-.095.403c-.443 1.922-.787 3.65-.63 4.35.35-.628.5-2.38.63-4.35zm-.63 4.35c-.084.15-.177.243-.283.254s-.216-.064-.327-.195c-.004.17-.042.297-.133.356s-.22.045-.38-.02c.075.155.1.285.05.378s-.176.142-.346.158c.138.1.22.204.217.312s-.09.207-.23.302c.17.024.29.08.337.174s.018.225-.064.375c.162-.057.293-.065.38-.002s.12.2.115.363c.117-.125.23-.196.337-.18s.194.113.27.268c.046-.167.113-.28.216-.315s.226.01.363.11c-.035-.167-.028-.3.045-.378s.204-.096.375-.072c-.1-.132-.168-.25-.138-.355s.136-.18.3-.237c-.16-.064-.263-.145-.288-.25s.038-.223.154-.35c-.172.016-.302-.006-.37-.088s-.072-.214-.027-.38c-.143.094-.27.134-.368.093s-.166-.156-.203-.324zm.568.23c.6-.394 1.557-1.87 2.578-3.558-1.285 1.495-2.39 2.863-2.578 3.558zm2.578-3.56l.27-.31c-.02-.013-.037-.028-.056-.042l-.213.353zm-2.18 4.027c.715-.07 2.25-.934 3.937-1.953-1.833.727-3.45 1.425-3.937 1.953zm3.936-1.954l.354-.138-.028-.06-.326.197zm-3.804 2.553c.666.27 2.426.218 4.396.1-1.963-.208-3.717-.342-4.396-.1zm4.395.1l.34.037.002-.058-.34.02zm-4.554.492c.463.55 2.046 1.32 3.842 2.13-1.64-1.095-3.13-2.027-3.842-2.13zm3.84 2.13l.25.168c.01-.015.018-.03.024-.045l-.274-.123zm-4.26-1.68c.155.7 1.2 2.12 2.413 3.674-.943-1.734-1.83-3.254-2.413-3.674zm2.414 3.67l.124.23c.012-.01.023-.016.037-.024l-.16-.205zm-2.992-3.467c-.188.693.076 2.433.43 4.373-.03-1.972-.11-3.73-.43-4.373zm.43 4.373l.003.238c.015-.002.026-.004.04-.004l-.043-.234zm-1.037-4.462c-.49.528-1.064 2.19-1.652 4.072.9-1.76 1.637-3.353 1.652-4.072zm-1.652 4.072l-.104.208c.012.006.022.01.035.015l.07-.223zM125 84.934c-.68.24-1.96 1.446-3.356 2.838 1.606-1.144 3.008-2.21 3.356-2.838zm-3.356 2.838l-.205.145.03.032.176-.177zm3.084-3.387c-.713-.104-2.406.368-4.3.952 1.954-.266 3.688-.556 4.3-.952zm-4.3.954l-.283.04.013.044.27-.083zm4.303-1.567c-.582-.423-2.303-.792-4.242-1.15 1.854.67 3.526 1.22 4.242 1.15zm-4.242-1.15l-.305-.112-.015.054.32.058zm4.54.612c-.318-.643-1.67-1.77-3.22-2.986 1.33 1.455 2.554 2.72 3.22 2.986zm-3.22-2.985l-.25-.275-.043.046.294.23zm3.733 2.65c.017-.718-.656-2.344-1.464-4.142.5 1.906.998 3.593 1.464 4.142zm-1.464-4.142l-.102-.39-.063.023.165.366z" fill="url(#Q)" opacity=".4"/><use xlink:href="#a" class="a"/><use xlink:href="#a" opacity=".9"/><path d="M122.718 86.748a.98.98 0 0 1 1.091 1.628c-.45.303-1.06.183-1.36-.267a.98.98 0 0 1 .268-1.361z" fill="url(#R)" opacity=".5"/><path d="M127.86 83.672c-.25.374-.97.33-1.605-.096s-.95-1.078-.7-1.45l.001-.001c.25-.374.97-.33 1.605.097s.95 1.076.7 1.45z" fill="url(#S)" opacity=".5"/><path d="M130.717 82.673c-.57.873-2.036.925-3.276.117s-1.784-2.17-1.215-3.043 2.035-.924 3.275-.117 1.783 2.172 1.216 3.043z" fill="url(#T)" opacity=".75"/></g><path d="M126.47 60c-9.94 0-18 11.193-18 25s8.06 21 18 21c7.2 0 18-7.19 18-21s-8.06-25-18-25zm-.32 29.728c-8.774-.476-13.6-3.56-13.6-3.56s5.817-6.338 13-7.285c4.54-.6 12.405.896 13.63 2.075-1.43 5.352-7.24 9.085-13.02 8.77z" class="W"/><path d="M139.512 76.97c-1.742-6.956-10.78-10.8-20.195-8.565s-15.63 9.666-13.892 16.622c1.743 6.955 10.782 10.788 20.194 8.565 9.417-2.228 15.632-9.666 13.893-16.622zm-13.364 12.756c-8.774-.476-13.6-3.56-13.6-3.56s5.817-6.338 13-7.285c4.54-.6 12.405.896 13.63 2.075-1.43 5.352-7.24 9.085-13.02 8.77z" fill="url(#I)"/><use xlink:href="#Z" fill="url(#J)"/><path d="M112.97 82.458c6.502-4.25 4.054-3.1 16.23-6.703-3.344.5-9.572 2.066-11.707 3.32-1.164.654-3.523 2.51-4.523 3.383z" class="X"/><path d="M129.622 77.355c-7.154-.05-15.063 5.703-18.16 9.063 19.55 8.428 27.338-.607 29.285-5.533-1.784-1.62-5.134-3.488-11.126-3.53zm-3.474 12.178c-8.774-.46-13.6-3.434-13.6-3.434s5.817-6.113 13-7.026c4.54-.58 12.405.864 13.63 2-1.43 5.162-7.24 8.762-13.02 8.46z"/><path d="M141 113.974c.035 22.622-18.292 40.994-40.938 41.025-22.642.037-41.028-18.273-41.063-40.9C58.964 91.48 77.29 73.035 99.936 73s41.03 18.35 41.064 40.975z" fill="url(#A)"/><path d="M137.5 54c0 20.71-16.79 37.5-37.5 37.5S62.5 74.7 62.5 54 79.3 16.5 100 16.5s37.5 16.79 37.5 37.5z" fill="url(#B)"/><path d="M59.396 71.48c16.138-1.7 18.92 1.72 27.556 5.214.474.186 1.583.4 1.88-.098.787-1.312-2.444-3.68-3.84-4.295-9.14-4.248-21.03-4.042-25.596-.82zm81.208 0c-16.14-1.7-18.92 1.72-27.556 5.214-.474.186-1.583.4-1.88-.098-.787-1.312 2.443-3.68 3.84-4.295 9.14-4.248 21.03-4.042 25.596-.82z" fill="#2a232b"/><path d="M99.084 90l-.765 24.946c.035 1.275 2.49 4.617 2.322 7.054 0 0-4.788-.35-6.345-.898-1.63-.578-4.15-1.704-3.154-4.85L99.084 90z" fill="#e1ac8f"/><path d="M98.638 119.598s-1.985-.705-3.24-.67c-1.142.035-1.306-.726-1.19-1.158s.507-.7 1.6-.407 2.82 2.234 2.82 2.234zm2.955.002s1.98-.653 3.24-.667c1.142-.014 1.308-.726 1.19-1.157s-.508-.705-1.6-.41-2.82 2.235-2.82 2.235z" class="X"/><path d="M100 18.13z" fill="#2a232b"/><path d="M158.43 41.325C140-4.765 100 .405 100 .405s-40-5.17-58.43 40.92c-9.245 23.12 2.158 50.324 2.158 50.324h5.826c-5.094-21.752.796-17.662 1.176-21.722.118-1.255-.3-3.367-.42-4.622-.592-6.112 1.982-18.03 5.245-23.173 1.603-2.526 5.37-6.66 8.174-7.7 9.97-3.694 20.044.715 22.854 1.42 4.46 1.12 22.373 1.12 26.836 0 3.343-.84 13.182-4.905 22.854-1.32 2.806 1.04 6.87 4.972 8.474 7.5 3.263 5.144 5.537 16.16 4.945 22.272-.12 1.255-.54 4.367-.422 5.623.107 1.147 2.617 3.69 2.898 4.807 1.16 4.612-1.722 16.915-1.722 16.915h5.825c.001 0 11.406-27.204 2.16-50.324z" fill="#080806"/><path d="M154.938 31.163C136.178-3.114 101.98-.63 100-.455c-1.98-.176-36.177-2.66-54.938 31.618-14.492 26.478-3.492 56.974-2.155 60.45.076.197 1.576.038 1.576.038-.006-.015-.104-.392-.166-.55-1.21-3.12-12.19-33.18 2.06-59.216C65.11-2.342 99.595 1.007 99.94 1.046l.06-.542.06.542c.345-.04 34.83-3.388 53.563 30.837 14.563 26.6 2.773 57.423 1.996 59.383-.02.055-.107.375-.11.383 0 0 1.506.17 1.575-.01 1.29-3.344 12.384-33.93-2.145-60.475z"/><path d="M100 18.13z" fill="#26120b"/></g></g><defs><radialGradient id="A" cx="100" cy="114" r="41" xlink:href="#b"><stop stop-opacity=".5" stop-color="#ffe4d6" offset="0"/><stop stop-opacity="0" stop-color="#f0c7b1" offset=".9"/></radialGradient><radialGradient id="B" cx="100" cy="54" r="37" xlink:href="#b"><stop stop-opacity=".5" stop-color="#ffe4d6" offset="0"/><stop stop-opacity="0" stop-color="#f0c7b1" offset=".9"/></radialGradient><linearGradient id="C" x1="100" y1="171" x2="100" y2="128" xlink:href="#b"><stop stop-opacity=".8" stop-color="#e1ac8f" offset="0"/><stop stop-color="#c27b55" offset=".7"/></linearGradient><linearGradient id="D" x1="100" y1="142" x2="100" y2="139" xlink:href="#b"><stop stop-color="#e8b9a0" offset=".1"/><stop stop-color="#e1ac8f" offset="1"/></linearGradient><radialGradient id="E" cx="126.452" cy="84.563" r="15.179" gradientTransform="matrix(-0.9148 0.0479 0.0523 0.9986 184.4328 -6.6013)" xlink:href="#b"><stop stop-color="#fff" offset="0"/><stop stop-color="#fdfefe" offset=".544"/><stop stop-color="#f6f8f9" offset=".74"/><stop stop-color="#eaeff2" offset=".879"/><stop stop-color="#d9e3e8" offset=".992"/><stop stop-color="#d8e2e7" offset="1"/></radialGradient><radialGradient id="F" cx="126.017" cy="84.585" r="15.179" gradientTransform="matrix(0.9148 0.0479 -0.0523 0.9986 15.5672 -6.6013)" xlink:href="#b"><stop stop-color="#fff" offset="0"/><stop stop-color="#fdfefe" offset=".544"/><stop stop-color="#f6f8f9" offset=".74"/><stop stop-color="#eaeff2" offset=".879"/><stop stop-color="#d9e3e8" offset=".992"/><stop stop-color="#d8e2e7" offset="1"/></radialGradient><radialGradient id="G" cx="122.781" cy="80.48" fx="136.429" fy="80.114" r="16.914" gradientTransform="matrix(0.99 0.1411 0.1085 -0.7608 -53.0622 124.3787)" xlink:href="#b"><stop stop-color="#e1ac8f" offset="0"/><stop stop-opacity=".3" stop-color="#e1ac8f" offset=".7"/><stop stop-opacity="0" stop-color="#f0c7b1" offset="1"/></radialGradient><radialGradient id="H" cx="70.049" cy="105.782" r="29.51" gradientTransform="matrix(1.0335999727249146,0,0,1.0335999727249146,-1.9413000345230103,1.2549999952316284)" xlink:href="#b"><stop stop-opacity="0" offset=".95"/><stop stop-opacity=".2" offset="1"/></radialGradient><radialGradient id="I" cx="122.382" cy="80.48" fx="136.03" fy="80.114" r="16.914" gradientTransform="matrix(-0.99 0.1411 -0.1085 -0.7608 252.2674 124.4351)" xlink:href="#b"><stop stop-color="#e1ac8f" offset="0"/><stop stop-opacity=".3" stop-color="#e1ac8f" offset=".7"/><stop stop-opacity="0" stop-color="#f0c7b1" offset="1"/></radialGradient><radialGradient id="J" cx="70.436" cy="105.782" r="29.51" gradientTransform="matrix(-1.0335999727249146,0,0,1.0335999727249146,201.94129943847656,1.2549999952316284)" xlink:href="#b"><stop stop-opacity="0" offset=".95"/><stop stop-opacity=".2" offset="1"/></radialGradient><radialGradient id="K" cx="-568.659" cy="-521.042" r="59.751" gradientTransform="matrix(0.096 -0.0248 0.0245 0.0961 141.2814 119.9893)" xlink:href="#b"><stop stop-color="#fff" offset="0"/><stop stop-opacity="0" stop-color="#fff" offset="1"/></radialGradient><radialGradient id="L" cx="-582.838" cy="-519.099" r="59.745" gradientTransform="matrix(0.0991 8.856319e-004 -0.0011 0.0991 131.1134 135.9855)" xlink:href="#b"><stop stop-color="#fff" offset="0"/><stop stop-opacity="0" stop-color="#fff" offset="1"/></radialGradient><linearGradient id="M" x1="70.67" y1="88.268" x2="71.606" y2="87.152" xlink:href="#b"><stop stop-color="#fff" offset="0"/><stop stop-opacity="0" stop-color="#fff" offset="1"/></linearGradient><linearGradient id="N" x1="75.212" y1="82.296" x2="74.463" y2="83.189" xlink:href="#b"><stop stop-color="#fff" offset="0"/><stop stop-opacity="0" stop-color="#fff" offset="1"/></linearGradient><linearGradient id="O" x1="77.636" y1="79.822" x2="75.91" y2="81.879" xlink:href="#b"><stop stop-color="#fff" offset="0"/><stop stop-opacity="0" stop-color="#fff" offset="1"/></linearGradient><radialGradient id="P" cx="-568.654" cy="-521.042" r="59.752" gradientTransform="matrix(0.096 -0.0248 0.0245 0.0961 193.2804 119.9894)" xlink:href="#b"><stop stop-color="#fff" offset="0"/><stop stop-opacity="0" stop-color="#fff" offset="1"/></radialGradient><radialGradient id="Q" cx="-582.833" cy="-519.102" r="59.747" gradientTransform="matrix(0.0991 8.856319e-004 -0.0011 0.0991 183.1126 135.9856)" xlink:href="#b"><stop stop-color="#fff" offset="0"/><stop stop-opacity="0" stop-color="#fff" offset="1"/></radialGradient><linearGradient id="R" x1="122.67" y1="88.268" x2="123.606" y2="87.152" xlink:href="#b"><stop stop-color="#fff" offset="0"/><stop stop-opacity="0" stop-color="#fff" offset="1"/></linearGradient><linearGradient id="S" x1="127.212" y1="82.296" x2="126.463" y2="83.189" xlink:href="#b"><stop stop-color="#fff" offset="0"/><stop stop-opacity="0" stop-color="#fff" offset="1"/></linearGradient><linearGradient id="T" x1="129.636" y1="79.822" x2="127.91" y2="81.879" xlink:href="#b"><stop stop-color="#fff" offset="0"/><stop stop-opacity="0" stop-color="#fff" offset="1"/></linearGradient><path id="U" d="M195.417 199.778c-2.196-4.746-8.195-11.78-14.86-13.722-8.24-2.403-26.837-5.308-33.733-6.923-5.528-1.296-16.662-11.294-20.564-14.65-.7-.6-1.273-1.84-1.287-2.76-.14-10.864 4.195-39.724 4.195-39.724H70.833s4.334 28.86 4.193 39.724c-.01.92-.587 2.16-1.285 2.76-3.902 3.356-15.036 13.354-20.564 14.65-6.897 1.615-25.495 4.62-33.733 7.022-6.667 1.942-12.664 8.876-14.86 13.622-3.708 8.008-4.584 22.5-4.584 35h200c0-12.5-.877-26.99-4.583-35z"/><path id="V" d="M144.004 126.997c-5.003 10.225-20.047 28.437-30.8 33.266-5.366 2.412-21.09 2.53-26.4 0-10.646-5.067-25.765-23.057-30.8-33.266-5.613-11.374-14.85-48.553-14.863-48.607a62.25 62.25 0 0 1-2.004-15.623c-.052-34 27.154-61.598 60.772-61.65s60.913 27.457 60.963 61.456c.01 5.4-.67 10.638-1.952 15.63-.016.052-9.317 37.355-14.913 48.793z"/><path id="W" d="M82.5 130.3s12.532 1.486 16.718 1.5c4.553.012 19.282-1.5 19.282-1.5-4.258 3.534-8.943 6.932-19.555 7-9.492.06-11.924-3.386-16.445-7z"/><path id="X" d="M60.432 80.957c1.226-1.18 9.09-2.674 13.63-2.075 7.183.947 13 7.285 13 7.285s-4.836 3.083-13.6 3.56c-5.78.315-11.593-3.418-13.02-8.77z"/><path id="Y" d="M76.354 84c0 1.3-1.053 2.353-2.353 2.353S71.647 85.3 71.647 84s1.055-2.354 2.354-2.354S76.354 82.7 76.354 84z"/><path id="Z" d="M139.17 80.957c-1.226-1.18-9.09-2.674-13.63-2.075-7.183.947-13 7.285-13 7.285s4.836 3.083 13.6 3.56c5.78.315 11.592-3.418 13.02-8.77z"/><path id="a" d="M128.354 84c0 1.3-1.054 2.353-2.353 2.353S123.647 85.3 123.647 84s1.055-2.354 2.354-2.354 2.353 1.054 2.353 2.354z"/><linearGradient id="b" gradientUnits="userSpaceOnUse"/></defs></svg>