<svg xmlns="http://www.w3.org/2000/svg" xmlns:xlink="http://www.w3.org/1999/xlink" width="600" height="600"><style><![CDATA[.W{fill:#f0c7b1}.X{fill:#c27b55}.Y{stroke:#c27b55}.Z{stroke-width:1.5}.a{fill:#4e60a3}.b{fill:#2a232b}]]></style><g transform="scale(3)"><path d="M225 225H-25V-25h250V225z" fill="#45ada8"/><g transform="matrix(.849999 0 0 .849999 15.000127 17.015024)"><path d="M100.5 100.5h-1v-1h1v1z" fill="#080806"/><use xlink:href="#U" class="W"/><path d="M159.156 184.058c24.342 3.542 34.586 8.708 37.794 50.72H200c0-12.5-.877-26.992-4.583-35-2.196-4.746-8.195-11.78-14.86-13.722-8.24-2.403-26.837-5.308-33.733-6.923-5.528-1.296-18.242-12.07-21.643-16.35 3.36 4.704 12.79 15.605 21.054 18.46 3.953 1.366 7.245 1.988 12.92 2.814zm-105.4-2.814c8.263-2.854 17.693-13.756 21.054-18.46-3.4 4.28-16.114 15.054-21.643 16.35-6.896 1.615-25.494 4.62-33.733 7.022-6.665 1.942-12.664 8.876-14.86 13.622-3.706 8.008-4.583 22.5-4.583 35h3.05c3.188-41.744 13.475-47.183 37.794-50.72 5.675-.825 8.968-1.447 12.92-2.813z" fill="#ffe4d6"/><path d="M95.646 197.62l-7.083-2.38c-10.45-4.01-44.395-6.607-44.395-6.607s35.754 1.42 43.644 2.78c-.458-4.767-3.017-20.004-3.017-20.004l6.41 21.057c.674 2.268 4.442 5.154 4.442 5.154zm10.8-1.342c-.09.073-.19.168-.302.268a2.27 2.27 0 0 0 .302-.268zm-10.8 1.342s2.893 2.992 4.347 3.03c1.9.05 4.828-2.9 6.15-4.104-1.265.957-4.16 1.39-5.3 1.436-1.33.05-5.188-.362-5.188-.362zm21.018-7.52c-1.545.248-4.386.79-4.386.79l2.287-14.9c-.646 3.07-4.474 16.21-8.12 20.278 1.9-1.616 6.158-2.39 8.324-2.704 10.236-1.484 10.232-1.483 41.062-4.94 0 0-29.07-.155-39.167 1.467z" fill="#e1ac8f"/><use xlink:href="#U" fill="none" class="Y Z"/><path d="M100.02 171.866c8.183 0 16.87-4.943 24.2-10.675-.001-6.702 1.45-19.105 2.652-28.205-15.382-2.247-38.406-2.28-53.766-.152 1.184 8.96 2.625 21.206 2.67 28.02 7.342 5.913 16.045 11.012 24.244 11.012z" fill="url(#C)"/><path d="M111.806 235.888c-19.135 0-41.455-.074-68.233-.23l-40.566-.222-4.9.007c-4.57-41.875 14.4-52.87 43.762-56.708 7.79-1.097 15.45-3.097 21.46-6.972 16.327 22.243 64.81 17.562 73.103-.63 1.4.53 2.54 1.215 3.977 1.734 4.666 3.433 11.072 5.836 17.628 6.2 26.008 1.44 44.42 12.996 44.057 54.64.003.165.004 1.175-.013 1.5l-27.034.262-63.23.427z" fill="#dcc96b"/><path d="M201.055 234.64c-.4-7.385-4.064-28.058-10.36-37.54-12.482-18.805-42.26-12.206-49.132-19.693-4.986 10.16-24.975 16.595-31.594 17.54 19.18-6.36 27.237-10.96 30.42-21.87 6.405 8.33 41.074 1.97 54.717 24.33 3.995 6.547 7.794 27.386 5.95 37.233zM55.81 177.628c1.357-.315 2.034-1.25 3.38-1.614l-1.426-1.89c-9.05 7.052-42.91 2.645-54.52 24.036-3.66 6.74-6.127 22.788-4.192 36.44.537-8.384.8-26.314 7.095-35.798 11.324-17.06 31.974-12.553 47.62-19.775 6.983 8.6 17.888 12.828 28.984 14.577-13.92-3.63-21.903-9.762-26.942-15.974z" fill="#ebdb8a"/><path d="M135.3 173.244c-5.532 11.514-47.35 24.923-70.93.88-1.466.622-5.852 2.112-5.852 2.112 17.176 23.386 67.51 23.534 80.91-.114-.06-.023-2.765-2.185-4.127-2.877z" fill="#cdb84f"/><path d="M136.38 171.002c-9.413 18.822-58.397 21.485-73.012.632-5.337 1.578-10.47 4.94-15.636 5.782-30.92 4.605-53.778 6.92-49.732 58.136 9.94 0-6.61-.065 45.57.215l158.606-.46c.03-.14.015-1.452.02-1.596 2.096-56.436-30.852-53.104-53.12-56.995-3.144-.718-6.066-2.773-8.635-3.945-1.42-.65-2.625-1.232-4.063-1.768zm-73.366 1.263c12.974 23.392 64.22 18.7 74.113.1 1.2.504 1.507.704 2.898 1.197-10.248 21.49-60.942 28.337-81.677 1.163.146-.04 3.204-1.913 4.666-2.46zm-63.86 62.513c-2.42-26.43 1.797-48.043 32.78-53.345 10.276-1.896 16.557-1.962 25.384-5.794 16.763 27.405 72.098 23.158 83.598-1.305 1.652 1.41 4.228 3.03 7.405 3.785 18.098 4.3 54.838-.894 52.898 56.658-54.057-.702-98.865-2.344-202.065.001z" fill="#ae9620"/><path d="M45.67 84.344c-1.485-2.462-6.327-9.2-10.03-8.254-3.012.772-2.973 4.97-3.206 7.455-.34 3.644-.464 9.992.525 12.568.95 2.473 3.96 7.252 5.828 9.075 2.3 2.235 5.97 9.358 6.422 10.097.71 1.168 2.137 2.84 4.325 2.708 3.07-.185 5.724-3.087 5.965-4.485 1.3-7.6-5.963-22.758-9.828-29.164z" class="W Y Z"/><path d="M44.2 99.34c-.143-.563.007-1.513.154-2.43.133-.835.258-1.624.182-2.182-.29-2.1-1.915-6.06-2.976-8.212-1.223-2.476-3.2-5.595-5.68-6.4-1.024-.333-1.7.065-2.09.468-.288.296-.353.645-.26.687s.307-.248.617-.52c.254-.222-.508-.04 0 0-.205 1.04-.865 6.302-.4 10.143.358 3.022 1.05 5.28 1.263 5.617a7.71 7.71 0 0 0 .16 1.043c1.002 4.4 7.518 10.177 9.034 11.82.28.303.574.483.646.41s-.1-.373-.38-.678c-1.498-1.632-7.97-7.38-8.94-11.635-1.027-4.514 3.912-11.207 4.7-12.623.4.665.742 1.303 1.004 1.835a39.5 39.5 0 0 1 .67 1.435c-.463.738-5.118 6.127-3.934 10.44.438 1.59 3.822 3.642 5.13 4.203.72.3 1 .772 1.304 1.306.364.624.033 2.23 1.23 2.74.244.104.464.146.66.146a1.21 1.21 0 0 0 .783-.284c.02.27.02.62.01.94-.012.418.047.61.148.617s.2-.174.223-.587c.017-.5.014-1.14-.077-1.444-.27-.89-1.088-1.894-1.957-2.957-.854-1.045-.995-3.03-1.217-3.9zm-9.23-3.91c-2.348-6.923 1.283-13.23 1.8-14.18 1.012.4 2.562 2.193 3.22 3.235-.48.833-4.933 6.287-5.03 10.944zm10.803 11.032c-1.084-.462-.706-1.984-1.056-2.584-.318-.542-.646-1.102-1.48-1.46a3.89 3.89 0 0 1-.583-.332c-2.682-6.075.293-8.73 1.04-9.273.23.742.4 1.423.476 1.97.068.5-.06 1.298-.18 2.068-.153.955-.3 1.944-.147 2.584.244.953.41 2.97 1.29 4.048.78.956 1.583 1.942 1.857 2.746-.118.16-.49.544-1.217.233z" class="X"/><path d="M154.066 84.344c1.486-2.462 6.328-9.2 10.03-8.254 3.012.772 2.973 4.97 3.207 7.455.34 3.644.463 9.992-.525 12.568-.95 2.473-3.96 7.252-5.828 9.075-2.3 2.235-5.97 9.358-6.422 10.097-.71 1.168-2.137 2.84-4.326 2.708-3.07-.185-5.723-3.087-5.965-4.485-1.3-7.6 5.965-22.758 9.828-29.164z" class="W Y Z"/><path d="M154.322 103.243c-.87 1.063-1.688 2.068-1.957 2.957-.092.304-.094.935-.078 1.444.014.413.12.596.225.587s.16-.2.148-.617l.008-.94a1.21 1.21 0 0 0 .783.284 1.68 1.68 0 0 0 .66-.146c1.195-.51.865-2.116 1.23-2.74.314-.534.584-.997 1.305-1.306 1.31-.56 4.693-2.61 5.13-4.203 1.184-4.314-3.47-9.704-3.934-10.44.234-.53.463-1.018.668-1.435.264-.532.604-1.17 1.006-1.835.787 1.416 5.725 8.108 4.7 12.623-.97 4.254-7.44 10.003-8.94 11.635-.28.305-.453.604-.38.678s.367-.106.646-.41c1.516-1.643 8.03-7.4 9.033-11.82.078-.338.13-.687.162-1.043.21-.337.904-2.594 1.262-5.617.455-3.84-.205-9.103-.4-10.143.508-.04-.254-.222 0 0 .31.27.523.56.617.52s.03-.4-.258-.687c-.39-.403-1.066-.8-2.1-.468-2.48.804-4.457 3.923-5.68 6.4-1.06 2.152-2.686 6.122-2.975 8.212-.076.558.05 1.347.182 2.182.146.916.297 1.866.154 2.43-.222.87-.362 2.855-1.216 3.9zm5.416-18.755c.66-1.042 2.21-2.835 3.22-3.235.527.95 4.158 7.256 1.81 14.18-.098-4.657-4.55-10.11-5.032-10.944zm-6.988 21.74c.273-.804 1.076-1.8 1.857-2.746.88-1.078 1.047-3.095 1.29-4.048.162-.64.006-1.63-.146-2.584-.123-.77-.25-1.568-.182-2.068.076-.547.246-1.228.475-1.97.746.543 3.72 3.2 1.04 9.273-.203.136-.402.254-.584.332-.832.358-1.16.918-1.48 1.46-.35.6.03 2.123-1.055 2.584-.728.313-1.1-.07-1.216-.233z" class="X"/><use xlink:href="#V" class="W"/><path d="M132.168 10.26c14.3 11.135 23.67 29.457 23.7 50.208.01 5.404-.615 10.645-1.796 15.64h-.004c-.01.046-11.223 40.27-14.608 52.417-.658 2.358-1.776 4.55-3.27 6.385-5.865 7.195-21.866 25.06-36.178 25.06-14.582 0-30.904-19.047-36.53-26.215-1.327-1.69-2.306-3.633-2.918-5.764L45.714 76.296a67.6 67.6 0 0 1-1.842-15.634c-.03-20.827 9.348-39.24 23.713-50.412C50.392 21.16 38.967 40.508 39 62.56c.008 5.403.704 10.643 2.002 15.634.01.046 12.53 40.143 16.138 51.694a16.32 16.32 0 0 0 3.172 5.765c6.116 7.17 23.858 26.214 39.708 26.214 15.557 0 32.95-17.862 39.324-25.057 1.625-1.835 2.84-4.027 3.556-6.386l15.884-52.418c1.283-4.997 1.96-10.237 1.952-15.64-.033-21.976-11.44-41.23-28.57-52.105z" fill="#e8b9a0"/><use xlink:href="#V" fill="none" class="Y Z"/><path d="M96.227 139.237l8.297-.207c-.96 4.47-7.64 3.828-8.297.207z" fill="url(#D)"/><path d="M96.343 139.52c-.37-.05-.315-.58.08-.542.043.006 4.308.546 7.878-.215.386-.075.5.455.13.534-2.797.598-6.416.458-8.088.223zm3.74-3.57c-1.503 0-2.96-.52-4.424-.776-1.64-.287-3.274-.04-4.915.104-1.676.15-5.333-.013-6.365-.666-.578-.367-.47-1.22.18-1.45.614-.22 1.57.236 2.19.347 2.872.515 4.384-.034 6.902-.118 3.85-.116 4.26 1.5 9.064.53 5.165-1.044 7.49-.254 11.197-1.37.508-.154 1.112-.56 1.645-.286.615.318.585 1.185-.05 1.464-3.406 1.502-7.174.895-10.955 1.526-1.482.246-2.96.694-4.472.694z" class="X"/><use xlink:href="#W" fill="url(#E)"/><g transform="translate(.25 .25)"><path d="M80 84c0 3.313-2.687 6-6 6s-6-2.687-6-6a6 6 0 1 1 12 0z" class="a"/><path d="M73.328 78.066l-.07.01.085.406-.014-.415zm.013.414c.07 1.972.185 3.73.517 4.364.175-.696-.123-2.43-.517-4.364zm.518 4.365c-.043.167-.108.28-.208.32s-.226-.006-.368-.103c.04.167.037.297-.036.378s-.2.1-.373.078c.113.13.17.25.146.353s-.134.182-.293.242c.16.063.266.14.29.245s-.033.223-.145.352c.17-.02.3.001.37.082s.075.212.035.38c.14-.097.265-.14.365-.1s.166.152.206.32c.08-.152.17-.25.28-.26s.216.06.33.188c.001-.172.037-.3.127-.36s.22-.05.38.013c-.078-.152-.105-.28-.055-.377s.173-.146.344-.166c-.14-.1-.227-.2-.225-.308s.084-.21.227-.306c-.17-.02-.29-.072-.342-.167s-.022-.225.058-.377c-.162.06-.292.072-.38.01s-.125-.188-.125-.36c-.112.128-.224.2-.33.185s-.2-.108-.278-.26zm.607.075c.48-.535 1.02-2.21 1.57-4.104-.854 1.777-1.57 3.386-1.57 4.104zm1.57-4.104l.178-.37c-.02-.007-.042-.017-.063-.026l-.115.396zm-1.063 4.454c.672-.252 1.93-1.483 3.297-2.905-1.58 1.176-2.963 2.27-3.297 2.905zm3.297-2.905l.305-.225-.042-.05-.263.274zm-3.015 3.45c.713.088 2.4-.417 4.272-1.04-1.948.308-3.678.633-4.272 1.04zm4.272-1.04l.337-.052-.014-.057-.323.11zm-4.273 1.653c.6.412 2.318.747 4.262 1.063-1.865-.633-3.548-1.148-4.262-1.063zm4.263 1.063l.285.098c.005-.017.01-.033.012-.05l-.297-.048zm-4.55-.52c.333.637 1.708 1.738 3.282 2.924-1.36-1.43-2.61-2.668-3.282-2.924zm3.283 2.922l.18.19c.01-.012.02-.02.03-.032l-.21-.157zm-3.788-2.575c-.003.72.703 2.33 1.547 4.113-.54-1.897-1.07-3.575-1.547-4.113zm1.547 4.114l.063.23.04-.014-.102-.215zM73.85 85.39c-.336.637-.46 2.4-.542 4.36.404-1.93.713-3.663.542-4.36zm-.542 4.36l-.047.228c.014.003.025.003.04.005l.008-.233zm-.03-4.58c-.596.407-1.52 1.904-2.508 3.6 1.254-1.52 2.334-2.912 2.508-3.6zm-2.508 3.6l-.162.193.038.024.124-.217zm2.103-4.07c-.716.083-2.23.978-3.898 2.03 1.818-.762 3.418-1.49 3.898-2.03zm-3.9 2.03l-.263.1c.006.013.015.027.023.04l.24-.15zm3.752-2.628c-.67-.257-2.43-.168-4.395-.01 1.964.168 3.722.265 4.395.01zm-4.395-.01l-.323-.03c0 .02-.002.038 0 .056l.323-.027zm4.542-.583c-.473-.54-2.07-1.277-3.88-2.05 1.66 1.06 3.17 1.964 3.88 2.05zm-3.88-2.05l-.315-.2-.03.055.344.146zm4.3 1.593c-.17-.698-1.24-2.094-2.485-3.623.976 1.712 1.893 3.213 2.485 3.623zM70.8 79.438l-.2-.35-.056.04.255.3z" fill="url(#K)" opacity=".7"/><path d="M74.886 78.086l-.07-.01-.024.414.094-.404zm-.095.403c-.442 1.922-.787 3.65-.63 4.35.35-.628.51-2.38.63-4.35zm-.63 4.35c-.084.15-.176.243-.283.254s-.216-.064-.327-.195c-.004.17-.042.297-.133.356s-.22.045-.38-.02c.076.155.1.285.05.378s-.176.142-.345.158c.137.1.22.204.217.312s-.09.207-.23.302c.17.024.3.08.337.174s.018.225-.064.375c.16-.057.292-.065.38-.002s.12.2.116.363c.117-.125.23-.196.337-.18s.194.113.27.268c.045-.167.113-.28.216-.315s.225.01.363.11c-.036-.167-.03-.3.044-.378s.205-.096.376-.072c-.11-.132-.168-.25-.138-.355s.136-.18.3-.237c-.16-.064-.263-.145-.288-.25s.037-.223.154-.35c-.172.016-.3-.006-.37-.088s-.072-.214-.028-.38c-.142.094-.268.134-.367.093s-.165-.156-.203-.324zm.568.23c.6-.394 1.557-1.87 2.578-3.558-1.285 1.495-2.39 2.863-2.578 3.558zm2.578-3.56l.268-.31c-.02-.013-.036-.028-.055-.042l-.213.353zm-2.18 4.027c.715-.07 2.25-.934 3.937-1.953-1.833.727-3.45 1.425-3.937 1.953zm3.936-1.954l.354-.138-.028-.06-.326.197zm-3.804 2.553c.666.27 2.426.218 4.395.1-1.96-.208-3.716-.342-4.395-.1zm4.395.1l.34.037.002-.058-.34.02zm-4.554.492c.462.55 2.046 1.32 3.842 2.13-1.64-1.095-3.13-2.027-3.842-2.13zm3.84 2.13l.25.168.025-.045-.275-.123zm-4.26-1.68c.156.7 1.2 2.12 2.414 3.674-.943-1.734-1.83-3.254-2.414-3.674zm2.414 3.67l.125.23c.012-.01.024-.016.037-.024l-.162-.205zm-2.99-3.467c-.188.693.076 2.433.43 4.373-.03-1.972-.11-3.73-.43-4.373zm.43 4.373l.003.238.04-.004-.044-.234zm-1.036-4.462c-.5.528-1.064 2.19-1.652 4.072.89-1.76 1.637-3.353 1.652-4.072zm-1.653 4.072l-.104.208c.012.006.023.01.036.015l.068-.223zM73 84.934c-.68.24-1.962 1.446-3.357 2.838 1.607-1.144 3.01-2.21 3.357-2.838zm-3.356 2.838l-.205.145.03.032.176-.177zm3.084-3.387c-.713-.104-2.407.368-4.29.952 1.955-.266 3.688-.556 4.29-.952zm-4.29.954l-.283.04a.32.32 0 0 0 .013.044l.27-.083zm4.304-1.567c-.582-.423-2.303-.792-4.242-1.15 1.854.67 3.526 1.22 4.242 1.15zm-4.242-1.15l-.305-.112-.015.054.32.058zm4.54.612c-.318-.643-1.668-1.77-3.22-2.986 1.328 1.455 2.553 2.72 3.22 2.986zm-3.22-2.985l-.25-.275-.042.046.293.23zm3.733 2.65c.017-.718-.656-2.344-1.464-4.142.5 1.906.998 3.593 1.464 4.142zm-1.464-4.142l-.1-.39-.063.023.164.366z" fill="url(#L)" opacity=".4"/><use xlink:href="#X" class="a"/><use xlink:href="#X" opacity=".9"/><path d="M70.717 86.748a.98.98 0 0 1 1.092 1.628.98.98 0 0 1-1.36-.267c-.3-.45-.18-1.06.268-1.36z" fill="url(#M)" opacity=".5"/><path d="M75.86 83.672c-.25.374-.97.33-1.606-.096s-.95-1.078-.7-1.45v-.001c.25-.374.97-.33 1.605.097s.95 1.076.7 1.45z" fill="url(#N)" opacity=".5"/><path d="M78.716 82.673c-.568.873-2.036.925-3.275.117s-1.784-2.17-1.215-3.043 2.036-.924 3.275-.117 1.783 2.172 1.215 3.043z" fill="url(#O)" opacity=".75"/></g><path d="M53.294 83c.81 10.9 11.637 23.583 20.506 22.236 10.498.106 20.864-7.868 20.864-22.305s-5.087-26.528-21.127-26.528c-11.5-.001-20.243 12.16-20.243 26.597zm8.458-.477c-.506-2.285 5.19-3.973 12.71-3.05s12.738 5.524 12.052 7.844c-.38 1.286-10.64 3.245-14.253 2.847-3.664-.405-9.288-2.123-10.5-7.64z" class="W"/><path d="M72.262 90.163c3.614.398 13.873-1.56 14.253-2.847.687-2.32-4.534-6.92-12.052-7.844-6.46-.792-11.563.344-12.556 2.128.898-6.4 7.7-11.397 15.987-11.434 8.91-.037 16.148 5.676 16.172 12.765S86.88 95.793 77.97 95.833s-16.15-5.676-16.173-12.764c0-.105.016-.208.02-.313 1.33 5.327 6.834 7.008 10.445 7.407z" fill="url(#G)"/><use xlink:href="#W" fill="url(#H)"/><path d="M62.148 77.417c4.208-1.978 9.35-2.16 13.838-1.005 2.404.56 4.965 1.285 7.063 2.638 1.945 1.135 3.525 2.5 5.002 4.2-1.342-1.7-2.773-3.118-4.623-4.27-2.276-1.416-4.77-2.294-7.364-2.916-4.586-1.126-9.722-.87-13.916 1.363z" class="X"/><path d="M62.77 78.02c.88-.352 4.065-1 5.456-1.066 1.687-.082 5.073.125 6.735.424 3.374.608 9.25 2.483 11.678 7.184.746 1.445.074 2.456-.123 2.675.3-2.426-4.838-6.746-12.052-7.604-7.52-.894-13.217.743-12.71 2.958 1.222 5.348 6.846 7.013 10.5 7.405 4.1.44 11.684-1.54 12.686-1.753-2 1.01-7.524 2.095-9.767 2.303-.744.07-2.24.104-2.986.085-5.95-.158-10.17-3.175-11.73-7.26-1.002-2.626.094-4.47 2.303-5.35z"/><use xlink:href="#Y" fill="url(#F)"/><g transform="translate(-.25 .25)"><path d="M132 84a6 6 0 0 1-5.999 6c-3.313 0-6-2.687-6-6s2.688-6 6-6A6 6 0 0 1 132 84z" class="a"/><path d="M125.328 78.066l-.07.01.085.406-.014-.415zm.013.414c.07 1.972.185 3.73.518 4.364.174-.696-.124-2.43-.518-4.364zm.517 4.365c-.042.167-.108.28-.207.32s-.226-.006-.367-.103c.04.167.036.297-.036.378s-.2.1-.372.078c.112.13.17.25.146.353s-.134.182-.293.242c.158.063.265.14.3.245s-.032.223-.145.352c.17-.02.3.001.37.082s.075.212.035.38c.14-.097.266-.14.365-.1s.166.152.206.32c.08-.152.172-.25.28-.26s.217.06.33.188c.002-.172.037-.3.128-.36s.22-.05.38.013c-.078-.152-.104-.28-.056-.377s.174-.146.345-.166c-.14-.1-.228-.2-.225-.308s.084-.21.227-.306c-.17-.02-.29-.072-.342-.167s-.022-.225.057-.377c-.16.06-.29.072-.38.01s-.124-.188-.125-.36c-.11.128-.224.2-.33.185s-.198-.108-.278-.26zm.608.075c.48-.535 1.02-2.21 1.57-4.104-.853 1.777-1.567 3.386-1.57 4.104zm1.57-4.104l.18-.37c-.02-.007-.042-.017-.063-.026l-.116.396zm-1.063 4.454c.673-.252 1.932-1.483 3.298-2.905-1.582 1.176-2.963 2.27-3.298 2.905zm3.298-2.905l.305-.225-.042-.05-.263.274zm-3.015 3.45c.713.088 2.4-.417 4.27-1.04-1.948.308-3.678.633-4.27 1.04zm4.27-1.04l.337-.052-.014-.057-.323.11zm-4.273 1.653c.59.412 2.318.747 4.263 1.063-1.866-.633-3.55-1.148-4.263-1.063zm4.263 1.063l.285.098.013-.05-.298-.048zm-4.55-.52c.332.637 1.708 1.738 3.282 2.924-1.358-1.43-2.61-2.668-3.282-2.924zm3.283 2.922l.178.19c.01-.012.02-.02.03-.032l-.21-.157zm-3.787-2.575c-.003.72.702 2.33 1.547 4.113-.54-1.897-1.07-3.575-1.547-4.113zm1.547 4.114l.063.23.04-.014-.102-.215zm-2.157-4.042c-.336.637-.46 2.4-.542 4.36.404-1.93.713-3.663.542-4.36zm-.542 4.36l-.047.228c.014.003.024.003.04.005l.008-.233zm-.03-4.58c-.596.407-1.52 1.904-2.508 3.6 1.255-1.52 2.334-2.912 2.508-3.6zm-2.508 3.6l-.16.193.037.024.124-.217zm2.103-4.07c-.716.083-2.23.978-3.897 2.03 1.818-.762 3.418-1.49 3.897-2.03zm-3.897 2.03l-.263.1c.006.013.014.027.023.04l.24-.15zm3.752-2.628c-.672-.257-2.43-.168-4.396-.01 1.965.168 3.722.265 4.396.01zm-4.396-.01l-.322-.03c-.001.02-.003.038-.001.056l.323-.027zm4.543-.583c-.474-.54-2.07-1.277-3.882-2.05 1.66 1.06 3.17 1.964 3.882 2.05zm-3.882-2.05l-.315-.2-.028.055.343.146zm4.3 1.593c-.17-.698-1.24-2.094-2.485-3.623.976 1.712 1.893 3.213 2.485 3.623zm-2.485-3.623l-.198-.35-.057.04.255.3z" fill="url(#P)" opacity=".7"/><path d="M126.886 78.086l-.07-.01-.024.414.094-.404zm-.095.403c-.443 1.922-.787 3.65-.63 4.35.35-.628.5-2.38.63-4.35zm-.63 4.35c-.084.15-.177.243-.283.254s-.216-.064-.327-.195c-.004.17-.042.297-.133.356s-.22.045-.38-.02c.075.155.1.285.05.378s-.176.142-.346.158c.138.1.22.204.217.312s-.09.207-.23.302c.17.024.29.08.337.174s.018.225-.064.375c.162-.057.293-.065.38-.002s.12.2.115.363c.117-.125.23-.196.337-.18s.194.113.27.268c.046-.167.113-.28.216-.315s.226.01.363.11c-.035-.167-.028-.3.045-.378s.204-.096.375-.072c-.1-.132-.168-.25-.138-.355s.136-.18.3-.237c-.16-.064-.263-.145-.288-.25s.038-.223.154-.35c-.172.016-.302-.006-.37-.088s-.072-.214-.027-.38c-.143.094-.27.134-.368.093s-.166-.156-.203-.324zm.568.23c.6-.394 1.557-1.87 2.578-3.558-1.285 1.495-2.39 2.863-2.578 3.558zm2.578-3.56l.27-.31c-.02-.013-.037-.028-.056-.042l-.213.353zm-2.18 4.027c.715-.07 2.25-.934 3.937-1.953-1.833.727-3.45 1.425-3.937 1.953zm3.936-1.954l.354-.138-.028-.06-.326.197zm-3.804 2.553c.666.27 2.426.218 4.396.1-1.963-.208-3.717-.342-4.396-.1zm4.395.1l.34.037.002-.058-.34.02zm-4.554.492c.463.55 2.046 1.32 3.842 2.13-1.64-1.095-3.13-2.027-3.842-2.13zm3.84 2.13l.25.168c.01-.015.018-.03.024-.045l-.274-.123zm-4.26-1.68c.155.7 1.2 2.12 2.413 3.674-.943-1.734-1.83-3.254-2.413-3.674zm2.414 3.67l.124.23c.012-.01.023-.016.037-.024l-.16-.205zm-2.992-3.467c-.188.693.076 2.433.43 4.373-.03-1.972-.11-3.73-.43-4.373zm.43 4.373l.003.238c.015-.002.026-.004.04-.004l-.043-.234zm-1.037-4.462c-.49.528-1.064 2.19-1.652 4.072.9-1.76 1.637-3.353 1.652-4.072zm-1.652 4.072l-.104.208c.012.006.022.01.035.015l.07-.223zM125 84.934c-.68.24-1.96 1.446-3.356 2.838 1.606-1.144 3.008-2.21 3.356-2.838zm-3.356 2.838l-.205.145.03.032.176-.177zm3.084-3.387c-.713-.104-2.406.368-4.3.952 1.954-.266 3.688-.556 4.3-.952zm-4.3.954l-.283.04.013.044.27-.083zm4.303-1.567c-.582-.423-2.303-.792-4.242-1.15 1.854.67 3.526 1.22 4.242 1.15zm-4.242-1.15l-.305-.112-.015.054.32.058zm4.54.612c-.318-.643-1.67-1.77-3.22-2.986 1.33 1.455 2.554 2.72 3.22 2.986zm-3.22-2.985l-.25-.275-.043.046.294.23zm3.733 2.65c.017-.718-.656-2.344-1.464-4.142.5 1.906.998 3.593 1.464 4.142zm-1.464-4.142l-.102-.39-.063.023.165.366z" fill="url(#Q)" opacity=".4"/><use xlink:href="#Z" class="a"/><use xlink:href="#Z" opacity=".9"/><path d="M122.718 86.748a.98.98 0 0 1 1.091 1.628c-.45.303-1.06.183-1.36-.267a.98.98 0 0 1 .268-1.361z" fill="url(#R)" opacity=".5"/><path d="M127.86 83.672c-.25.374-.97.33-1.605-.096s-.95-1.078-.7-1.45l.001-.001c.25-.374.97-.33 1.605.097s.95 1.076.7 1.45z" fill="url(#S)" opacity=".5"/><path d="M130.717 82.673c-.57.873-2.036.925-3.276.117s-1.784-2.17-1.215-3.043 2.035-.924 3.275-.117 1.783 2.172 1.216 3.043z" fill="url(#T)" opacity=".75"/></g><path d="M126.063 56.402c-16.04 0-21.127 12.09-21.127 26.528s10.366 22.412 20.864 22.305c8.87 1.347 19.697-11.337 20.506-22.236.001-14.436-8.743-26.597-20.243-26.597zm1.276 33.76c-3.614.398-13.873-1.56-14.253-2.847-.687-2.32 4.534-6.92 12.052-7.844s13.217.767 12.71 3.05c-1.222 5.517-6.846 7.235-10.5 7.64z" class="W"/><path d="M127.34 90.163c-3.614.398-13.873-1.56-14.253-2.847-.687-2.32 4.534-6.92 12.052-7.844 6.46-.792 11.563.345 12.556 2.128-.898-6.4-7.7-11.397-15.987-11.434-8.91-.037-16.148 5.676-16.172 12.765s7.185 12.862 16.095 12.902 16.15-5.676 16.173-12.764c0-.105-.016-.208-.02-.313-1.33 5.327-6.835 7.008-10.445 7.407z" fill="url(#I)"/><use xlink:href="#Y" fill="url(#J)"/><path d="M137.452 77.417c-4.208-1.978-9.35-2.16-13.838-1.005-2.404.56-4.965 1.285-7.063 2.638-1.945 1.135-3.525 2.5-5.002 4.2 1.342-1.7 2.773-3.118 4.623-4.27 2.276-1.416 4.77-2.294 7.364-2.916 4.587-1.126 9.723-.87 13.916 1.363z" class="X"/><path d="M136.832 78.02c-.88-.352-4.065-1-5.456-1.066-1.687-.082-5.073.125-6.735.424-3.374.608-9.25 2.483-11.678 7.184-.746 1.445-.074 2.456.123 2.675-.3-2.426 4.838-6.746 12.052-7.604 7.52-.894 13.217.743 12.71 2.958-1.222 5.348-6.846 7.013-10.5 7.405-4.1.44-11.684-1.54-12.686-1.753 2 1.01 7.524 2.095 9.767 2.303.744.07 2.24.104 2.986.085 5.95-.158 10.17-3.175 11.73-7.26 1.002-2.626-.094-4.47-2.303-5.35z"/><path d="M141 113.974c.035 22.622-18.292 40.994-40.938 41.025-22.642.037-41.028-18.273-41.063-40.9C58.964 91.48 77.29 73.035 99.936 73s41.03 18.35 41.064 40.975z" fill="url(#A)"/><path d="M137.5 54c0 20.71-16.79 37.5-37.5 37.5S62.5 74.7 62.5 54 79.3 16.5 100 16.5s37.5 16.79 37.5 37.5z" fill="url(#B)"/><path d="M54 74.2c9.954-9.974 16.76-5.915 30.6-3.264.845.162 6.32 1.54 5.3 3.47-.483.924-2.036.814-2.903.798C73.308 74.936 66.652 65.197 54 74.2zm92 0c-9.953-9.974-16.76-5.915-30.6-3.264-.846.162-6.32 1.54-5.3 3.47.483.924 2.036.814 2.903.798C126.69 74.938 133.348 65.2 146 74.19z" class="b"/><path d="M91.115 115.5c-.878 2.064 5.934 4.292 8.52 4.43 2.8.147 10.646-2.9 9.316-4.992-1.4-2.195-6.643-.286-8.906-.286-2.252-.001-7.753-1.905-8.93.85z" fill="#e1ac8f"/><path d="M101.857 117.058c-.23-.76 1.876-1.584 2.657-1.694 1.1-.16 3.36.802 3.158 1.592-.184.698-2.148-.533-2.86-.43-.734.107-2.737 1.242-2.955.53zm-6.883-.247c.968 0 2.404.623 2.668.074.315-.655-2.14-1.46-2.86-1.372-.596.07-2.733 1.315-2.44 1.84.274.48 1.355-.54 2.63-.54z" class="X"/><path d="M100.09 112c.607 0 1.742-.74 1.792-2.23.2-6.008-.956-23.833-1.792-23.77-.78.06-2.267 17.637-1.948 23.77.08 1.502 1.263 2.23 1.948 2.23z" fill="#fff5ef" opacity=".2"/><path d="M93.82 138.68c3.68-1.48 3.65-.37 8.15-.68 1.53-.1 3.03-.06 4.35.95-1 1.27-4.6 5.67-5.85 8.45-3.36-5.34-3.8-5.9-6.65-8.72z" class="b"/><path d="M98.35 142.37l-1.93-3.28c.9.94 1.4 1.46 1.93 3.28zm.2-2.9c.14.76 1.02 4.55 1.26 5.32-.16-2.26-.44-3.3-1.26-5.32zm1.67-.1c-.06-.27-.01-.47-.01-.47s-.1.2-.07.48c.03.74.17 1.7.17 1.7.04.53.17 1.33.17 1.33.04-1.04.02-1.67-.26-3.04zm2.03.03c-.84 1.67-1.14 2.6-1.04 4.86.36-2.36.4-2.7 1.04-4.86zm1.85-.3c-.8.52-1.37 1.75-1.12 3.04.01-1.16.54-2.42 1.12-3.04z" fill="#1b141c"/><path d="M101.72 137.92c-3.64.42-3.98-.96-8.08.73 3.17 3.14 3.42 3.56 6.84 8.97 1.2-2.82 5.17-7.68 5.98-8.68-1.68-1.35-3.74-1.1-4.74-1.02zm-1.4 9.07c-1.4-2.48-2.24-4.25-3.68-5.8-.1-.1-2.47-2.43-2.6-2.43 3.5-1.07 2.57-.1 9.25-.48.96.05 2 .2 2.84.7-3.7 3.82-2.92 3.72-4.6 5.85-.52.67-1 1.3-1.22 2.15z" fill="#0c080c"/><path d="M121.84 132.5c-14.48-1.75-10.87-2.33-17.37-2.6-1.03-.04-1.87-.74-2.1-1.7-.2-.83-.6-3.02-.3-5.48 2.65.32 14.42 2.84 17.17 4.68 2.25 1.54 2.3 3.36 2.6 5.1zm-41.07-5.1c2.82-1.9 15.1-4.46 17.04-4.66v-.01c.05-.01.1-.01.12-.01.3 2.46-.1 4.65-.3 5.48-.56 2.38-3.1 1.45-5.68 2-12.16 2.53-9.03 1.72-13.8 2.3.3-1.74.37-3.56 2.62-5.1z" class="b"/><path d="M98.02 122.6c.27 2.1.04 4.17-.3 5.6a2.31 2.31 0 0 1-2.15 1.78l-3.6.3c-12.24 2.55-8.97 1.7-13.93 2.3.01-.03.01-.07.02-.1.48-.46.94-.7.94-.7 6.58-4.7 17.57-.57 18.87-9.2.06 0 .12-.01.15-.01zm3.96 0c-.27 2.1-.04 4.17.3 5.6a2.31 2.31 0 0 0 2.15 1.78c1.26.05 2.7.1 3.6.3 12.24 2.55 8.97 1.7 13.93 2.3-.01-.03-.01-.07-.02-.1-.48-.46-.94-.7-.94-.7-6.58-4.7-17.57-.57-18.87-9.2-.06 0-.12-.01-.15-.01zm-18.1 5c-1.04.04-1.3.18-1.96.62-.05.05-1 .92-.94.92-.3.35-.93 1.24-1.23 1.64 1.63-1.36 2-2.67 4.13-3.18zm3.62.3c4.34-1.52 6.03-3.1 9.13-4.25-2.82 1.74-5.2 3.73-9.13 4.25zm-3.25.63c2.22-1.5 4.02-2.27 5.75-3-1 .63-2.9 1.9-5.75 3zm8-1.13c1-.82 2.2-.93 3.25-1.75-1.1 1.12-1.95 1.06-3.25 1.75zm23.9.2c1.04.04 1.3.18 1.96.62.05.05 1 .92.94.92.3.35.93 1.24 1.23 1.64-1.63-1.36-2-2.67-4.13-3.18zm-12.75-3.94c3.1 1.14 4.78 2.73 9.13 4.25-3.93-.52-6.3-2.5-9.13-4.25zm6.63 1.88c1.73.73 3.53 1.5 5.75 3-2.85-1.1-4.75-2.37-5.75-3zm-5.5.12c1.06.82 2.25.93 3.25 1.75-1.3-.7-2.16-.63-3.25-1.75z" fill="#1b141c"/><path d="M119.3 127.3c-2.94-1.97-15.4-4.5-17-4.66v-.01a4.02 4.02 0 0 0-.31-.03c-.27 2.1-.04 4.17.3 5.6a2.31 2.31 0 0 0 2.15 1.78c1.26.05 2.7.1 3.6.3 12.24 2.55 8.97 1.7 13.93 2.3-.33-1.8-.32-3.7-2.67-5.3zm-11.12 2.34c-.9-.16-2.12-.13-3.4-.08-.75.03-1.42-.47-1.6-1.2-.25-.92-.54-2.22-.83-5.42 2.1.42 5.78 1.78 8.1 2.4 8.3 2 9.4 2.32 11 6.83a3087.52 3087.52 0 0 0-13.25-2.53zm-30.13 2.95c4.96-.6 1.7.24 13.93-2.3.9-.2 2.34-.25 3.6-.3a2.29 2.29 0 0 0 2.15-1.78c.33-1.44.57-3.52.3-5.6-.06 0-.23.03-.3.03v.01c-1.6.16-14.06 2.7-17 4.66-2.35 1.6-2.34 3.5-2.67 5.3zm.54-.42c1.58-4.5 2.7-4.82 11-6.83 2.32-.6 6-1.97 8.1-2.4-.3 3.2-.58 4.5-.83 5.42a1.62 1.62 0 0 1-1.61 1.19c-1.28-.04-2.5-.07-3.4.08a3087.52 3087.52 0 0 0-13.25 2.53z"/><path d="M49.325 111.556c-5.418-3.127-9.142-6.627-12.893-15.15-.51-1.29-1.893-5.586-1.893-6.583-2.2-1.805-4.608-7.14-5.665-9.78-3.002-10.296-2.617-22.5-.507-28.338l-.355-.177c-2.585 3.96-3.283 7.628-3.9 11.174-2.75-9.066-1.237-19.367 5.766-28.26-3.22.806-4.477 1.44-7.395.896 5.61-2.923 22.364-15.07 26.957-23.3-3.952 1.013-8.21 3.096-11.467 5.24C42.093 4.296 58.83-6.4 72.393-5.223c-2.447-2.174-4.562-4.95-6.305-7.63 3.69 1.212 10.025 3.686 16.204 5.204 21.252 4.455 15.286 2.485 34.942-4.586-.81 2.912-.804 3.07-2.543 7.203 14.207-5.614 27.9.23 32.18 8.22h.01l.182.348c-1.924-.647-3.58-.815-5.58-.93 3.554 6.12 5.933 6.694 17.512 10.142 1.198.376 3.15.87 4.78 1.156-2.42 1.728-4.11 2.16-7.047 2.54 4.662 1.984 7.377 5.56 9.43 10.264 2.974 7.095 3.49 12.8 2.96 19.332-1.288-1.974-3.025-4.896-4.785-7.3l-.343.202c4.382 9.46 2.86 17.286 19.494 28.646-1.435.32-3.06.49-4.73.49a24.29 24.29 0 0 1-7.888-1.295c.702 8.68.17 12.925-.7 16.66-2.03 7.642-6.055 13.108-13.63 14.948-4.42 5.776-8.943 8.17-12.08 8.71 2.207-3.648 7.364-13.608 8.248-17.532l-.418-.743c-9.51-2.35-16.21-9.562-17.565-19.88-1.947 2.924-3.77 5.106-9.482 9.49-.465-11.558-6.145-26.41-13.25-35.72-.038 3.226.066 3.476.888 7.833h.007c1.052 5.1 4.22 11.6 5.277 14.718-3.106-1.77-5.685-2.96-9.08-8.315-1.65-2.597-3.648-7-4.548-10.02l-.4.033c-.232 1.91-.205 3.113-.19 3.758 0 2.133 2.814 12.875 4.655 16-6.57-3.31-9.514-8.744-11.7-14.128l-.385.063c-.212 3.31.15 10.703 1.586 16.32-5.28-1.59-8.45-3.893-11.23-8.137-1.84-3.446-1.922-4.927-2.316-8.32-5.93 7.875-15.644 14.488-22.28 16.56l-.17.048c.9-1.78 1.845-3.528 2.76-5.222 2.51-4.645 3.927-7.333 5.656-11.64-16.04 11.084-19.196 28.068-15.05 46.874-2.798-1.794-3.247-2.156-5.58-4.63.542 3.657.365 9.122-1.793 14.192l-.033.078.033.078c1.204 2.838.804 2.042 1.22 2.702z" fill="#080806"/><path d="M125.204 77.964c-.578-11.2-5.923-25.294-12.68-34.5 14.042 3.83 17.75 26.168 12.68 34.5zM106.01 36.392c-3.612 7.222-.428 21.7 12.146 28.87-5.632-6.69-10.538-13.404-12.146-28.87zm2.442 30.04C101.26 58.396 98.097 47.26 98.106 37.2c-3.515 6.254-2.14 23.155 10.5 29.518-.05-.083-.1-.192-.152-.285zM89 37c-4.366 7.103-9.458 26.38 9.106 31.973C87.048 59.856 87 49.904 89 37zM62.1 69.123l.17-.048c6.428-2.005 16.64-9.568 22.606-17.115.386-2.524.36-4.48.876-6.96-4.624 8.506-18.098 20.262-23.65 24.122zm-9.42 20.024C45.784 78.324 51.5 57.72 54 55.575c-4.025 2.477-12.71 25.32-1.31 33.572zm110.312-17.6c-.902 15.205-9.33 25.748-18.37 35.513 10.352-1.977 21.403-18.836 18.37-35.513zm-38.257-58.54c14.4 7.94 18.058 11.9 23.254 29.992 0-13.037-7.973-31.013-23.254-29.992zM109.744 10c-3.342 13.6 2.78 23 12.857 27.2-6.607-6.215-13.156-17.513-12.857-27.2zM35.29 56.683c6.742.38 16.736-3.37 18.71-11.683-4.675 6.21-8.742 9.686-18.71 11.683zM118.932 6.5c14.625-5.633 24.125-4.452 28.13-2.966-3.473-2.23-17.192-6.05-28.13 2.966zM38.82 16.035c10.126-6.212 14.655-5.28 20.253-5.606-7.65-3.156-13.328-1.05-20.253 5.606zm99.604-6.994c10.748 6.188 12.98 9.687 25.35 4.862-6.772 2.26-15.772-.088-25.35-4.862zM86.74 6.456c6.24.003 10.235 2.332 13.26 4.607-1.65-3-8.287-7.094-13.26-4.607zm57.067 40.863c-1.848 11.267 5.017 16.082 14.445 17.59-5.972-1.81-12.597-8.08-14.445-17.59zm-83.25-3.216c8.802-4.43 20.36-14.742 20.36-24.204-4.172 8.21-10.47 17.1-20.36 24.204zM183.24 67.417C171.046 68.508 164.456 58.388 157 50c2.8 7.468 8.217 12.322 14.62 17.002 2.223.672 4.515 1.073 7.134 1.073 1.67 0 3.294-.168 4.73-.49-.084-.057-.16-.112-.24-.17zM37.51 67.144c-3.62 12-6.057 30.855 11.816 44.412C39.134 100 35.743 81.27 37.51 67.144zm46.988-55.457C72.32 11.938 62.5 13 56.397 28.1c13.125-12.502 18.9-13.374 28.1-16.423zM24.12 57.72c1.73-6.653 6.276-11.247 13.078-13.775-8.59.16-11.718 4.242-13.078 13.775zm113.71 1.318c-6.883 10.962.74 24.952 14.35 29.395-13.67-14.084-14.068-17.8-14.35-29.395zm31.055-13.795C166.06 33 160.582 26.235 152.28 30.94c8.59-2.83 10.483 6.26 16.606 14.302zm-37.44 26.488c10.06-10.14 6.667-25.225-1.63-31.637 6.558 13.352 4.98 20.616 1.63 31.637z"/><path d="M110.203 28.735c-7.752-5.34-11.44-9.634-17-16.667 5.304 4.803 11.9 11.474 17 16.667zm13.666-5.333c12.675 2.77 10.384 1.424 18.667 9.333-5.952-8.52-7.595-8.78-18.667-9.333zm4 10c7.08 3.3 11.655 15.926 13 23.333.083-8.8-4.482-20.998-13-23.333zm12.334 27.333c-.438 8.567 3.08 11.935 7.333 21.667-2.085-9.124-6.134-12.112-7.333-21.667zm18.666 7.334c-.707 8.42.23 14.627-3.666 21.333 5.265-6.235 4.413-13.24 3.666-21.333zm9-.334c2.15 5.972-.532 17.42-3.666 22.667 5.013-5.877 7.226-16.392 3.666-22.667zm-15-34c11.648 2.03 4.693 18.16 19.334 27.333-12.787-12.18-6.96-27.518-19.334-27.333zm-6.333-14.333c10.708 1.315 15.663 5.4 19.667 14-2.496-10.187-9.627-14.63-19.667-14zM115.203 41.07c9.562 6.386 13.174 17.608 13.333 29 2.284-11.368-1.665-24.338-13.333-29zm-.334-42.334c13.246-1.465 13.697-1.93 22.334.333-6.088-3.202-10.744-4.15-22.334-.333zm-40.333-6c9.174 6.78 29.32 12.63 37.667-1-8.907 10.042-25.635 6.942-37.667 1zM91.87 4.402c5.054-.75 7.943.543 13.334 7.667-2.72-6.078-7.093-9.982-13.334-7.667zm-9.333 4c-8.516-.987-16.124-.718-19.667 8.333C67.81 9.29 72.223 9.41 82.536 8.402zM47.87 8.07c4.683-4.046 14.198-10.146 22.333-9-7.772-2.868-17.29 2.36-22.333 9zm-13 21.666c8.24-2.62 16.72-6.773 20.667-14.333-4.69 5.63-12.222 9.43-20.667 14.333zm15-.666c-1.195 12.697-8.067 16.114-14 25.667 9.767-9.818 15.3-14.217 14-25.667zm18.667 18c-12.292 1.27-17.363 18.45-16.667 30.667 1.95-11.298 6.072-27.175 16.667-30.667zm6.667-7.334c-1.015 7.647-1.94 11.476-5.333 21 4.9-7.783 5.85-13.793 5.333-21zm21.333-4c-2.42 8.248-4.13 16.8-.667 24.667-1.513-7.38-.244-12.97.667-24.667zM87.87 15.402c-2.64 10.946-4.018 15.103-9 22.333 6.776-6.444 8.68-12.696 9-22.333zm17.334 18.333c-4.18 6.51-4.464 12.145-2.667 19.667-.156-7.91-.064-12.482 2.667-19.667zm5.666 2.667c-2.494 6.41-2.027 11.348.667 16.667-1.448-5.476-1.857-8.872-.667-16.667zm-62 20.333c-5.414 5.987-4.846 14.654-4 22.667 1.027-9.385.2-16.137 4-22.667zm-8.666 7.334c-2.677 7.568-3.156 17.894 1.333 25-2.598-7.1-2.175-17.934-1.333-25zm-7.334-16c-4.31 9.962-5.28 17.968-.667 30.333-1.618-10.732-2.057-17.168.667-30.333zm-6.666 0C37.26 30.47 44.045 36.17 48.536 27.402 41.92 35.084 33 29.64 26.203 48.07zm46-28.667c.12 6.162-2.7 10.826-5 17.667 3.32-5.566 6.455-11.39 5-17.667zm67.666-15c2.816 5.948 9.814 9.055 16 9-4.906-1.016-12.358-4.216-16-9zm5.667 42.333c-.258 5.394 3.563 10.916 8 13.667-2.89-2.608-7.21-8.757-8-13.667z" fill="#171714"/><path d="M183.97 67.675c-6.263-4.256-7.33-5.468-10.98-9.56l-.36-.4c-6.695-9.373-4.18-9.61-8.46-18.85 1.892 2.585 3.736 5.738 5.1 7.78.2-3.013 1.227-10.09-2.93-20-1.825-4.18-4.68-8.3-8.86-10.08 4.107-.53 5.8-2.1 6.8-2.76a41.25 41.25 0 0 1-5.24-1.23c-11.193-3.34-13.854-3.955-17.2-9.73 2.593.148 4.093.503 5.62 1.06-.14-.3-.3-.6-.46-.9h-.01c-1.685-3.134-5.694-6.73-10.81-8.7-6.66-2.164-13.447-2.7-21.12.33 1.653-3.92 1.64-4.2 2.47-7.16-20.085 7.173-13.87 9.18-35.2 4.7-6.46-1.587-13.197-4.26-16.72-5.37 1.142 1.815 3.804 5.62 6.2 7.74C59.59-6.54 41.694 3.71 37.62 17.745c3.924-2.67 8.58-4.68 11.42-5.4-4.303 7.714-21.63 20.432-27.16 23.08 3.367.755 4.777.036 7.48-.64-5.514 7-8.194 16.316-5.92 26.15.25 1.076.398 1.592.73 2.62.655-3.762 1.25-7.683 4-11.9-1.983 5.486-2.645 17.666.5 28.48 1.14 2.85 3.53 8.03 5.65 9.8 0 .398.873 3.943 1.9 6.57 3.745 8.508 7.46 12.167 13.64 15.62-1.07-1.842-.152.086-1.6-3.33 1.533-3.602 2.02-6.65 2.02-10.25.024-1.064-.082-3.162-.12-3.42 2.12 2.25 2.85 2.704 5.6 4.46-6.552-28.9 6.73-41.52 14.314-46.76-2.402 5.99-5.563 11.027-8.364 16.63a20.02 20.02 0 0 0 .6-.17c7.436-2.316 17.122-9.638 22.1-16.23.347 2.986.478 4.515 2.3 7.9 2.99 4.564 6.373 6.777 11.68 8.32-1.555-5.824-1.87-13.48-1.67-16.6 2.4 5.91 5.43 11.094 12.06 14.34h.01l.42.2c-1.72-1.734-5.06-14.067-5.06-16.5-.016-.705-.036-1.87.19-3.73.945 3.177 2.972 7.555 4.57 10.07 3.576 5.64 6.23 6.686 9.6 8.64-1.1-3.542-3.387-7.564-5.15-14-.22-.8-.31-1.34-.32-1.34-.7-3.673-.89-4.392-.86-7.05 6.238 8.17 12.493 23.175 12.87 35.53 3.443-2.632 6.896-5.363 9.54-9.33 1.357 10.283 8.577 17.26 17.56 19.5.11.2.23.4.34.6-.824 3.688-6.054 13.94-8.43 17.76 3.147-.36 7.957-2.755 12.6-8.8 7.616-1.846 11.667-7.385 13.7-15.08.768-3.29 1.446-7.654.73-16.42 4.6 1.53 9.51 1.46 12.878.6zM50.09 93.835c-.188-2.277-.54-4.608-1.04-6.9.877 1 1.603 1.796 3.63 3.4.16 2.242.458 4.618.96 6.97-1-.872-2.626-2.068-3.55-3.47zm100.37-13.25c1.277 2.1 2.995 3.706 2.31 7.6-.48-1-1.522-4-2.31-7.6zm20.06-13.76c-.455 12.426-1.084 26.44-13.38 31.1 7.956-11.178 5.978-16.145 6.3-22.76-.814 4.577-.103 1.33-1 8.4-1.297 6.64-8.454 19.527-16.7 22.8.61-.858 1.893-2.938 2.7-4.23 4.354-7.07 5.9-11.333 6.04-16.2-.02-.34-.06-.54-.06-.54-.336-2.668-2.538-5.358-4.44-7.26a172.15 172.15 0 0 1-1.52-14.28c-.27 3.7-.338 8.97.2 13l.01.01c.862 5.89 2.244 10.208 3.03 11.28-1.55-.623-1.77-.78-2.77-1.32-8.722-4.82-11.62-9.872-13.46-18.88 1.596-2.724 1.738-4.376 2.22-6.48v-.02c.514-1.567-.56-9.59-.56-10.6a.67.67 0 0 1 .029-.22c-.085.087-.096.808-.1.93-.23 7.18.566 9.475-2.78 16-.28.45-.52.96-.85 1.42-2.167 2.786-2.007 2.823-7.78 8.24.68-11.247-5.39-26.99-13.48-34.75.1-3.74-.08-4.97-.68-5.97.706 1.733.238 3.75 0 5.96-.573 4.723.177 11.666 5.37 21.6-6.19-4.77-10.123-12.717-12.12-20.04.563-3.52.906-4.625 1.38-8.68-1.36 5.964-3.1 9.308-3.1 15.4.134 3.435 2.43 11.04 4.84 15.03-4.12-2.958-8.768-9.078-10.95-16.9.597-7.936 1.488-12.376 2.14-16.6-3.518 11.41-3.57 15.71-3.85 20.82-.02 1.28.01 2.57.01 3.53l.02 1.17a11.09 11.09 0 0 1 .04.44c.545 5.442 1.496 8.688 2.04 10.04-4.95-2.176-9.93-6.937-11.1-12.87-1.616-7.53 2.373-17.62 2.68-18.62-.853 1.706-4.395 7.96-4.5 14.97a85.9 85.9 0 0 1-5.63 5.64c-5.605 5.083-10.98 8.705-15.96 11.2l.4-.64-.01.03c6.144-9.044 9.965-16.674 10.18-27.55-.58 4.238-1.6 7.9-2.866 11.256-10.46 5.48-18.753 18.57-17.924 37.234-.15-.17-.3-.33-.47-.5-7.064-6.96-4.696-14.295-2.67-22.5 2.32-9.233 3.7-9.5 4.7-10.5-3.46 2.07-5.596 8.82-6.82 12.85-2.73 8.793-1.48 13.522.28 16.65 1.366 9.164 2.228 14.714.2 22.8-1.216-2.735-2.888-9.783-3.12-13.34-.673-5.966-.763-7.96-1.25-15.26-.494 7.405-1.295 20.04 3.62 29.87-10.35-9.856-14.864-24.953-9.27-42.86-3.354 7.285-4.874 13.868-3.84 21.76-6.4-11.16-7.02-26.98-4.14-38.48 2.612-3.15 5.684-4.568 7.68-5.57-6.14 2.238-7.106 3.404-9.64 6.2-1.762 2.46-2.938 4.705-3.84 8.12-.536-8.17 1.545-16.16 7.4-23.97 5.653-1.508 10.804-4.672 15.4-8.12-6.775 3.736-10.945 5.852-17.88 7.8-.886.262-3.403 1.002-4.34 1.12 7.457-3.866 21.268-13.74 25.05-22.8 3.97-1.186 6.35-1.333 9.04-1.66-7.14 0-12.2.606-19.9 5.53 4.617-9.06 19.642-20.74 33.96-20.74 2.847 2.213 6.718 3.623 10.2 5.6-2.17-1.853-7.413-4.64-9.28-6.1-1.2-.95-1.74-.982-5.9-6.27 9.406 4.473 12.744 5.3 16.57 6.2 18.733 4.262 17.22.998 31.9-5.82-.354 1.012-2.504 6.973-3.28 7.73-2.076 3.67-4.594 6.552-8.5 8.5 4.48-1.485 7.663-4.723 9.87-9 .65-.325 4.727-1.365 6.37-1.54 8.218-.886 11.8-.144 17.64 2.5 1 .555 4.702 2.44 7.26 5.4-6.718-2.1-17.275.695-23.92 2.92 1.71-.326 10.455-2.156 15.62-2.54 1.89-.16 3.76-.08 3.76-.1.1 0 .18.01.27.01 2.622 5.45 4.2 7.416 17.53 10.66 1.372.318 2.838.494 3.83.62-2.315 1.026-3.594 1.278-6.32 1.5-10.533.214-12.152-4.8-18.6-6.76 6.802 3.03 6.574 7.8 18.97 7.8 3.643 1.355 6.84 6.796 8.44 10.5 2.288 5.485 3.317 11.582 3.57 17.52-1.612-2.944-7.708-12.38-11.07-13.57-.76-.297-1.4-.304-2.14-.23 2.067 0 3.5 1.242 4.7 2.93h.01c2.547 3.71 3.938 9.1 5.25 13.6l.16.54c2.532 8.814 8.096 15.083 15.77 19.33-16.134.714-17.67-9.528-25.6-18.32 4.574 6.273 6.914 14.612 14.682 17.91zm-13.29-3.25c-2.577-6.236-1.016-3.79-4.22-10.15 3.52 4.422 3.78 7.85 5.73 11.77-7.248-1.936-14.8-9.364-15-17.58l-.06-1.26c1.422 8.51 6.287 13.613 13.552 17.22zm-8.68-16.87c-1.18-3.59-8.053-17.584-14.28-19.6-1.982-.853-4.928-1.363-7.24-1.9 8.267.722 12.23.498 18.76 12.86.6 1.14 1.18 2.43 1.75 3.76-1.7-13.577-6.567-20.283-12.76-25.08-4.292-2.865-7.618-3.228-10.3-3.68 2.95.08 6.466.083 11 2.6 4.633 2.963 7.72 6.044 10.82 13.87.22.52.37.97.46 1.3l.16.5c1.694 5.424 1.79 9.687 1.62 15.42zm-27.85-10.59c-6.086-6.25-11.1-14.396-10.6-23.07.697 9.23 7.345 18.064 13.82 25-12.517-1.666-21.022-10.063-28.2-19.9 10.698 11.797 17.767 15.435 25 17.97zM87.3 5.875c-.01.01-.01.02-.02.03 3.177-1.248 9.33-.122 12.08 4.32-2.8-3.547-8.862-5.14-12.62-3.77 1.205-3.917 6.946-4.98 10.93-4.42-2.532 0-6.33.606-8.54 2.03-1.022.636-1.22 1.03-1.83 1.8zm-28.4 39.68c5.625-8.43 4.56-4.042 8.75-15.7.465-1.342 1.924-5.56 2.9-7.75-.02.1-.14.53-.32 1.2-3.206 12.822-4.1 14.826-8.8 20.32 8.872-5.32 14.373-10.24 19-19.54-3.09 10.387-11.86 17.683-21.53 21.48zm-3.2-16.76c0-12.924 7.494-26.544 19.37-25.06-13.802 0-18.42 19.6-18.42 23.9 6.22-7.458 17.108-13.956 28.27-16-9.5 2.93-21.763 9.86-29.23 17.88.01-.24.01-.5.01-.73zm-19.68 27.76c6.452.207 12.076-2.905 16.42-7.6-3.988 6.273-12.402 9.888-18.82 7.76 9.583-3.2 16.52-12.126 18.58-22.2-.775 9.675-5.943 17.08-14.12 21.24-1.754.812-1.06.38-2.06.8z"/><path d="M100 18.13z" fill="#26120b"/></g></g><defs><radialGradient id="A" cx="100" cy="114" r="41" xlink:href="#a"><stop stop-opacity=".5" stop-color="#ffe4d6" offset="0"/><stop stop-opacity="0" stop-color="#f0c7b1" offset=".9"/></radialGradient><radialGradient id="B" cx="100" cy="54" r="37" xlink:href="#a"><stop stop-opacity=".5" stop-color="#ffe4d6" offset="0"/><stop stop-opacity="0" stop-color="#f0c7b1" offset=".9"/></radialGradient><linearGradient id="C" x1="100" y1="171" x2="100" y2="131" xlink:href="#a"><stop stop-opacity=".8" stop-color="#e1ac8f" offset="0"/><stop stop-color="#c27b55" offset=".7"/></linearGradient><linearGradient id="D" x1="100" y1="142" x2="100" y2="139" xlink:href="#a"><stop stop-color="#e8b9a0" offset=".1"/><stop stop-color="#e1ac8f" offset="1"/></linearGradient><radialGradient id="E" cx="129.041" cy="83.945" r="15.117" gradientTransform="matrix(-0.9945 0.1042 0.1042 0.9945 192.8281 -12.4633)" xlink:href="#a"><stop stop-color="#fff" offset="0"/><stop stop-color="#fcfdfd" offset=".315"/><stop stop-color="#f4f7f8" offset=".504"/><stop stop-color="#e5ecef" offset=".66"/><stop stop-color="#d8e2e7" offset=".76"/></radialGradient><radialGradient id="F" cx="128.643" cy="83.986" r="15.116" gradientTransform="matrix(0.9945 0.1042 -0.1042 0.9945 7.1738 -12.4633)" xlink:href="#a"><stop stop-color="#fff" offset="0"/><stop stop-color="#fcfdfd" offset=".316"/><stop stop-color="#f4f7f8" offset=".505"/><stop stop-color="#e5ecef" offset=".661"/><stop stop-color="#d8e2e7" offset=".76"/></radialGradient><radialGradient id="G" cx="121.986" cy="82.496" fx="133.239" fy="82.527" r="16.003" gradientTransform="matrix(0.9998 0.0208 0.0166 -0.7998 -45.3195 145.9395)" xlink:href="#a"><stop stop-color="#e1ac8f" offset="0"/><stop stop-opacity=".3" stop-color="#e1ac8f" offset=".7"/><stop stop-opacity="0" stop-color="#f0c7b1" offset="1"/></radialGradient><radialGradient id="H" cx="68.931" cy="105.995" r="29.524" gradientTransform="matrix(1.0335999727249146,0,0,1.0335999727249146,-1.6796000003814697,1.3127000331878662)" xlink:href="#a"><stop stop-opacity="0" offset=".95"/><stop stop-opacity=".2" offset="1"/></radialGradient><radialGradient id="I" cx="121.587" cy="82.496" fx="132.839" fy="82.527" r="16.003" gradientTransform="matrix(-0.9998 0.0208 -0.0166 -0.7998 244.5208 145.9478)" xlink:href="#a"><stop stop-color="#e1ac8f" offset="0"/><stop stop-opacity=".3" stop-color="#e1ac8f" offset=".7"/><stop stop-opacity="0" stop-color="#f0c7b1" offset="1"/></radialGradient><radialGradient id="J" cx="69.316" cy="105.995" r="29.524" gradientTransform="matrix(-1.0335999727249146,0,0,1.0335999727249146,201.67959594726562,1.3127000331878662)" xlink:href="#a"><stop stop-opacity="0" offset=".95"/><stop stop-opacity=".2" offset="1"/></radialGradient><radialGradient id="K" cx="-568.659" cy="-521.042" r="59.751" gradientTransform="matrix(0.096 -0.0248 0.0245 0.0961 141.2814 119.9893)" xlink:href="#a"><stop stop-color="#fff" offset="0"/><stop stop-opacity="0" stop-color="#fff" offset="1"/></radialGradient><radialGradient id="L" cx="-582.838" cy="-519.099" r="59.745" gradientTransform="matrix(0.0991 8.856319e-004 -0.0011 0.0991 131.1134 135.9855)" xlink:href="#a"><stop stop-color="#fff" offset="0"/><stop stop-opacity="0" stop-color="#fff" offset="1"/></radialGradient><linearGradient id="M" x1="70.67" y1="88.268" x2="71.606" y2="87.152" xlink:href="#a"><stop stop-color="#fff" offset="0"/><stop stop-opacity="0" stop-color="#fff" offset="1"/></linearGradient><linearGradient id="N" x1="75.212" y1="82.296" x2="74.463" y2="83.189" xlink:href="#a"><stop stop-color="#fff" offset="0"/><stop stop-opacity="0" stop-color="#fff" offset="1"/></linearGradient><linearGradient id="O" x1="77.636" y1="79.822" x2="75.91" y2="81.879" xlink:href="#a"><stop stop-color="#fff" offset="0"/><stop stop-opacity="0" stop-color="#fff" offset="1"/></linearGradient><radialGradient id="P" cx="-568.654" cy="-521.042" r="59.752" gradientTransform="matrix(0.096 -0.0248 0.0245 0.0961 193.2804 119.9894)" xlink:href="#a"><stop stop-color="#fff" offset="0"/><stop stop-opacity="0" stop-color="#fff" offset="1"/></radialGradient><radialGradient id="Q" cx="-582.833" cy="-519.102" r="59.747" gradientTransform="matrix(0.0991 8.856319e-004 -0.0011 0.0991 183.1126 135.9856)" xlink:href="#a"><stop stop-color="#fff" offset="0"/><stop stop-opacity="0" stop-color="#fff" offset="1"/></radialGradient><linearGradient id="R" x1="122.67" y1="88.268" x2="123.606" y2="87.152" xlink:href="#a"><stop stop-color="#fff" offset="0"/><stop stop-opacity="0" stop-color="#fff" offset="1"/></linearGradient><linearGradient id="S" x1="127.212" y1="82.296" x2="126.463" y2="83.189" xlink:href="#a"><stop stop-color="#fff" offset="0"/><stop stop-opacity="0" stop-color="#fff" offset="1"/></linearGradient><linearGradient id="T" x1="129.636" y1="79.822" x2="127.91" y2="81.879" xlink:href="#a"><stop stop-color="#fff" offset="0"/><stop stop-opacity="0" stop-color="#fff" offset="1"/></linearGradient><path id="U" d="M195.417 199.778c-2.196-4.746-8.195-11.78-14.86-13.722-8.24-2.403-26.837-5.308-33.733-6.923-5.528-1.296-16.662-11.294-20.564-14.65-.7-.6-1.273-1.84-1.287-2.76-.14-10.864 4.195-39.724 4.195-39.724H70.833s4.334 28.86 4.193 39.724c-.01.92-.587 2.16-1.285 2.76-3.902 3.356-15.036 13.354-20.564 14.65-6.897 1.615-25.495 4.62-33.733 7.022-6.667 1.942-12.664 8.876-14.86 13.622-3.708 8.008-4.584 22.5-4.584 35h200c0-12.5-.877-26.99-4.583-35z"/><path id="V" d="M158.785 78.006h-.005c-.01.046-12.197 40.27-15.88 52.418-.715 2.358-1.93 4.55-3.556 6.386-6.375 7.194-23.768 25.057-39.324 25.057-15.85 0-33.59-19.045-39.708-26.214-1.442-1.688-2.507-3.633-3.172-5.765L41.003 78.194C39.705 73.202 39.01 67.963 39 62.56 38.95 28.536 66.155.92 99.773.867s60.913 27.476 60.964 61.5c.01 5.403-.67 10.644-1.952 15.64z"/><path id="W" d="M61.752 82.523c-.506-2.285 5.19-3.973 12.71-3.05s12.738 5.524 12.052 7.844c-.38 1.286-10.64 3.245-14.253 2.847-3.664-.405-9.288-2.123-10.5-7.64z"/><path id="X" d="M76.354 84c0 1.3-1.053 2.353-2.353 2.353S71.647 85.3 71.647 84s1.055-2.354 2.354-2.354S76.354 82.7 76.354 84z"/><path id="Y" d="M137.85 82.523c.506-2.285-5.19-3.973-12.71-3.05s-12.738 5.524-12.052 7.844c.38 1.286 10.64 3.245 14.253 2.847 3.664-.405 9.288-2.123 10.5-7.64z"/><path id="Z" d="M128.354 84c0 1.3-1.054 2.353-2.353 2.353S123.647 85.3 123.647 84s1.055-2.354 2.354-2.354 2.353 1.054 2.353 2.354z"/><linearGradient id="a" gradientUnits="userSpaceOnUse"/></defs></svg>