<?xml version="1.0" encoding="UTF-8"?>
<svg width="920pt" height="240pt" version="1.0" viewBox="0 0 920 240" xmlns="http://www.w3.org/2000/svg" xmlns:cc="http://creativecommons.org/ns#" xmlns:dc="http://purl.org/dc/elements/1.1/" xmlns:rdf="http://www.w3.org/1999/02/22-rdf-syntax-ns#">
<metadata>
<rdf:RDF>
<cc:Work rdf:about="">
<dc:format>image/svg+xml</dc:format>
<dc:type rdf:resource="http://purl.org/dc/dcmitype/StillImage"/>
</cc:Work>
</rdf:RDF>
</metadata>
<g transform="translate(0 240) scale(.1 -.1)">
<path d="m731 2121-224-119-129-163c-345-435-314-393-302-423 12-33 373-336 399-336 11 0 69 38 129 85 59 47 113 85 119 85 16 0 0-335-23-474-32-194-57-273-163-529-8-20-9-32-1-45 10-15 41-17 343-20l331-2-2 942-3 943-40 19c-22 11-70 50-107 88-37 37-76 68-85 67-10 0-119-53-242-118z" fill="#934e9b" fill-opacity=".81592"/>
<path d="m1593 2174c-76-75-140-111-224-126l-59-10 2-932 3-931 373-3c246-1 380 1 392 8 29 15 25 50-14 140-53 120-90 248-122 425-17 92-34 406-25 460l6 37 104-82c62-49 113-82 126-82 16 0 77 46 182 138 182 159 213 191 213 216 0 10-94 143-210 296l-209 278-219 117c-120 64-226 117-235 117-10 0-47-30-84-66zm115-596c8-8 12-57 12-155 0-139-1-145-25-168-22-23-31-25-124-25-91 0-102 2-128 24-28 24-28 26-31 156-5 185-9 180 156 180 86 0 132-4 140-12z" fill="#934e9b" fill-opacity=".81592"/>
<path d="m2994 2160c-117-38-205-147-235-287-7-34-9-134-7-271 4-192 7-224 26-277 34-93 86-154 166-195 67-34 73-35 181-35s114 1 181 35c102 52 160 143 179 278l7 52h-111-111l-1-37c-1-59-22-106-60-131-29-20-44-23-96-20-53 3-68 9-93 33-43 41-51 79-57 275-10 337 27 426 174 418 49-3 68-9 88-28 28-26 45-76 45-132v-38h110c127 0 123-4 95 105-33 126-88 199-183 243-77 35-211 41-298 12z" fill="#01a4aa"/>
<path d="m3887 2169c-94-22-182-91-225-176-43-83-54-144-59-313-9-272 19-383 122-486 79-80 132-99 270-99 93 0 105 2 167 33 102 50 159 126 193 257 17 68 21 379 6 461-20 103-51 166-116 231-52 51-72 64-129 82-71 22-161 26-229 10zm173-188c23-12 44-36 60-67 25-48 25-52 25-284 0-218-1-238-21-274-27-53-62-77-118-83-86-10-155 44-175 137-14 66-14 374 0 439 26 125 131 185 229 132z" fill="#01a4aa"/>
<path d="m4520 1635v-535h112 111l-6 323c-4 177-9 338-12 357-14 82 17-14 111-338l98-343 75 3 74 3 101 348c55 192 102 344 104 338s-1-112-7-236-11-277-11-340v-115h110 110v535 536l-141-3-142-3-94-365c-52-201-96-372-100-380-6-16-13 11-129 453l-77 297h-144-143v-535z" fill="#01a4aa"/>
<path d="m5660 1636v-536h110 110v190 190h95c157 0 237 25 307 96 68 67 83 113 83 244 0 112-1 117-34 178-40 73-74 105-151 141-53 25-61 26-287 29l-233 3v-535zm440 329c37-34 52-74 52-144 1-127-38-161-182-161h-90v166 166l99-4c82-2 103-6 121-23z" fill="#01a4aa"/>
<path d="m6772 2138c-11-40-313-1008-319-1025-4-10 22-13 110-13h114l58 220h146 147l28-110 29-110h112c62 0 113 4 113 9 0 8-130 427-281 904l-50 157h-99-99l-9-32zm158-445c24-93 45-174 48-180 3-10-20-13-96-13h-100l46 180c26 99 50 180 53 180s25-75 49-167z" fill="#01a4aa"/>
<path d="m7410 1635v-535h110 110l2 346 3 345 154-345 155-346h108 108v535 535h-110-110l-2-340-3-341-151 338-152 338-222 6v-536z" fill="#01a4aa"/>
<path d="m8260 2167c0-2 63-154 140-338l140-334v-197-198h110 110v193 192l140 334c77 184 140 338 140 342 0 5-51 9-114 9h-114l-78-234c-43-129-81-233-84-230s-39 107-81 232l-76 227-116 3c-64 1-117 1-117-1z" fill="#01a4aa"/>
<path d="m2860 586v-216h90c108 0 152 15 175 61 22 41 15 112-13 142-20 22-20 22-1 46 30 37 26 103-10 143-29 33-30 33-135 36l-106 4v-216zm170 129c7-8 13-26 13-40 0-36-21-55-59-55h-34v55 55h34c18 0 39-7 46-15zm1-165c14-8 19-21 19-50 0-44-18-60-69-60h-31v60 60h31c17 0 39-5 50-10z" fill="#888" fill-opacity=".97015"/>
<path d="m3460 585v-215h45 45v80c0 72 2 80 19 80 14 0 27-20 51-80l32-80h48 48l-76 178 26 25c19 19 26 39 30 79 9 113-33 148-175 148h-93v-215zm164 132c22-16 26-78 7-101-8-9-29-16-47-16h-34v65c0 65 0 65 28 65 16 0 36-6 46-13z" fill="#888" fill-opacity=".97015"/>
<path d="m4100 628c-29-95-59-192-66-216l-13-43 47 3c45 3 47 4 58 43l11 40h59 59l9-42 9-43h48 47l-24 78c-13 42-43 139-66 215l-43 137h-41-40l-54-172zm124-66c7-32 7-32-29-32-37 0-37 1-31 32 3 18 11 50 18 72l11 41 12-40c7-22 16-55 19-73z" fill="#888" fill-opacity=".97015"/>
<path d="m4660 586v-216h45 44l6 274 120-274h42 43v215 215h-40-39l-3-137-3-138-122 270-46 3-47 3v-215z" fill="#888" fill-opacity=".97015"/>
<path d="m5290 585v-217l89 4c96 3 123 15 165 72 18 24 21 42 21 141s-3 117-21 141c-42 57-69 69-165 72l-89 4v-217zm165 120c23-22 25-32 25-120s-2-98-25-120c-13-14-36-25-50-25h-25v145 145h25c14 0 37-11 50-25z" fill="#888" fill-opacity=".97015"/>
<path d="m6280 585v-215h120 120v35 35h-75-75v180 180h-45-45v-215z" fill="#888" fill-opacity=".97015"/>
<path d="m6914 790c-32-13-72-66-85-113-18-67-7-206 19-249 30-48 81-72 143-66 63 6 96 30 121 85 29 66 23 231-10 284-36 59-122 86-188 59zm101-85c23-22 25-31 25-123 0-85-3-103-21-126-26-33-53-33-85-1-25 25-26 30-22 131 3 97 5 107 27 125 31 25 47 24 76-6z" fill="#888" fill-opacity=".97015"/>
<path d="m7521 782c-57-29-76-79-76-202 0-86 4-112 21-144 39-75 136-98 224-53l45 22 3 93 3 92h-76-75v-35c0-32 2-35 30-35s30-2 30-40c0-34-3-40-26-46-34-9-72 10-84 42-13 33-13 175 0 208 21 55 96 60 107 6 5-28 9-30 51-30h45l-7 32c-9 47-33 78-71 94-46 19-103 18-144-4z" fill="#888" fill-opacity=".97015"/>
<path d="m8144 790c-32-13-72-66-85-113-18-67-7-206 19-249 30-48 81-72 143-66 63 6 96 30 121 85 29 66 23 231-10 284-36 59-122 86-188 59zm101-85c23-22 25-31 25-123 0-85-3-103-21-126-26-33-53-33-85-1-25 25-26 30-22 131 3 97 5 107 27 125 31 25 47 24 76-6z" fill="#888" fill-opacity=".97015"/>
</g>
</svg>
