<?xml version="1.0" encoding="UTF-8"?>
<svg width="920pt" height="240pt" version="1.0" viewBox="0 0 920 240" xmlns="http://www.w3.org/2000/svg" xmlns:cc="http://creativecommons.org/ns#" xmlns:dc="http://purl.org/dc/elements/1.1/" xmlns:rdf="http://www.w3.org/1999/02/22-rdf-syntax-ns#">
<metadata>
<rdf:RDF>
<cc:Work rdf:about="">
<dc:format>image/svg+xml</dc:format>
<dc:type rdf:resource="http://purl.org/dc/dcmitype/StillImage"/>
</cc:Work>
</rdf:RDF>
</metadata>
<g transform="translate(0 240) scale(.1 -.1)">
<path d="m930 2311c-135-39-206-72-290-134-102-76-156-142-234-285-120-221-208-435-280-687-65-222-90-349-76-375 10-19 261-148 356-182 34-12 37-11 58 13 12 14 59 137 110 290 49 145 92 268 97 273 4 5 16-22 27-60 70-242 78-557 21-893l-22-134 23-19c21-17 43-18 314-16l291 3 5 793c5 771 6 794 24 808 27 19 50 18 69-4 15-17 17-90 19-803l3-784 294-3c269-2 296-1 314 15 21 19 21 20-7 173-42 240-45 537-6 734 24 121 49 201 60 189 8-8 119-325 162-463 26-84 43-110 72-110 32 0 377 165 389 185 22 39-100 480-200 725-54 133-169 357-229 447-66 99-144 170-244 222-121 63-215 93-296 95-84 1-118-14-144-64-86-166-336-174-433-13-14 23-38 50-52 59-38 25-119 27-195 5zm971-761c45-13 57-44 30-80-18-25-19-25-207-28-104-1-199 0-211 3-51 12-54 85-6 103 37 14 348 15 394 2z" fill="#f60"/>
<path d="m3063 2115c-129-36-213-130-248-277-20-87-20-419 0-506 30-128 94-213 195-261 49-23 67-26 160-25 84 0 116 4 162 22 65 26 128 83 158 143 19 36 49 151 50 187 0 9-29 12-110 12h-110v-32c0-100-41-150-129-156-81-6-123 15-153 76-22 45-23 57-23 277 0 196 3 237 18 276 27 71 56 92 130 96 100 6 145-32 156-134l6-58 108-3c82-2 107 0 107 10-1 39-32 152-54 196-31 62-102 125-164 147-66 23-195 28-259 10z" fill="#0d85a4"/>
<path d="m3934 2119c-63-14-144-69-186-124-50-65-74-132-89-242-14-107-6-356 14-429 46-164 163-266 321-281 70-6 171 9 221 34 95 49 164 146 190 270 20 92 20 375 0 467-25 119-82 209-167 263-75 47-203 64-304 42zm176-187c71-35 100-137 100-352 0-138-12-227-37-278-55-113-214-111-273 4-24 47-25 53-25 274 0 232 5 267 44 314 46 55 126 71 191 38z" fill="#0d85a4"/>
<path d="m4580 1585v-535h105 105v168c0 92-5 252-10 356-6 104-9 191-7 193s51-159 108-357l104-360h72 72l20 68c11 37 56 193 101 347 44 154 82 285 84 290 2 6 1-151-2-347l-5-358h106 107v535 535h-139c-124 0-140-2-145-17-3-10-46-178-97-373-50-195-94-359-98-363s-52 163-106 373l-99 380h-138-138v-535z" fill="#0d85a4"/>
<path d="m5710 1586v-536h110 110v189 189l123 5c78 3 139 11 169 22 62 22 133 85 166 149 25 46 27 61 27 161 0 98-3 116-26 166-33 71-87 125-158 158-55 25-62 26-288 29l-233 4v-536zm434 333c42-33 60-77 60-149 1-125-40-160-184-160h-90v165 165h94c79 0 97-3 120-21z" fill="#0d85a4"/>
<path d="m6680 1628c-84-271-159-512-166-535l-13-43h113 112l29 110 28 110h148 148l10-37c5-21 18-69 28-108l18-70 113-3c61-1 112 0 112 4 0 6-266 860-316 1017l-16 47h-97-97l-154-492zm305 3c25-95 45-175 45-177s-45-4-101-4c-91 0-100 2-95 18 3 9 24 89 47 177 41 160 50 188 55 170 2-6 24-88 49-184z" fill="#0d85a4"/>
<path d="m7460 1585v-535h110 110l2 347 3 346 155-346 155-347h107 108v535 535h-105-105v-347c0-213-4-343-9-337-5 5-77 160-160 344l-150 335-110 3-111 3v-536z" fill="#0d85a4"/>
<path d="m8313 2108c3-7 66-159 141-337l136-323v-199-199h110 110v194 193l140 334c77 184 140 337 140 341 0 5-51 8-113 8h-112l-79-236c-43-130-82-232-86-227-4 4-33 87-65 183s-66 199-77 228l-19 52h-116c-88 0-114-3-110-12z" fill="#0d85a4"/>
<path d="m2910 536v-216h90c108 0 152 15 175 61 22 41 15 112-13 142-20 22-20 22-1 46 30 37 26 103-10 143-29 33-30 33-135 36l-106 4v-216zm170 129c7-8 13-26 13-40 0-36-21-55-59-55h-34v55 55h34c18 0 39-7 46-15zm1-165c14-8 19-21 19-50 0-44-18-60-69-60h-31v60 60h31c17 0 39-5 50-10z" fill="#888" fill-opacity=".9005"/>
<path d="m3510 535v-215h45 45v80c0 72 2 80 19 80 14 0 27-20 51-80l32-80h48 48l-76 178 26 25c19 19 26 39 30 79 9 113-33 148-175 148h-93v-215zm164 132c22-16 26-78 7-101-8-9-29-16-47-16h-34v65c0 65 0 65 28 65 16 0 36-6 46-13z" fill="#888" fill-opacity=".9005"/>
<path d="m4150 578c-29-95-59-192-66-216l-13-43 47 3c45 3 47 4 58 43l11 40h59 59l9-42 9-43h48 47l-24 78c-13 42-43 139-66 215l-43 137h-41-40l-54-172zm124-66c7-32 7-32-29-32-37 0-37 1-31 32 3 18 11 50 18 72l11 41 12-40c7-22 16-55 19-73z" fill="#888" fill-opacity=".9005"/>
<path d="m4710 536v-216h45 44l6 274 120-274h42 43v215 215h-40-39l-3-137-3-138-122 270-46 3-47 3v-215z" fill="#888" fill-opacity=".9005"/>
<path d="m5340 535v-217l89 4c96 3 123 15 165 72 18 24 21 42 21 141s-3 117-21 141c-42 57-69 69-165 72l-89 4v-217zm165 120c23-22 25-32 25-120s-2-98-25-120c-13-14-36-25-50-25h-25v145 145h25c14 0 37-11 50-25z" fill="#888" fill-opacity=".9005"/>
<path d="m6330 535v-215h120 120v35 35h-75-75v180 180h-45-45v-215z" fill="#888" fill-opacity=".9005"/>
<path d="m6964 740c-32-13-72-66-85-113-18-67-7-206 19-249 30-48 81-72 143-66 63 6 96 30 121 85 29 66 23 231-10 284-36 59-122 86-188 59zm101-85c23-22 25-31 25-123 0-85-3-103-21-126-26-33-53-33-85-1-25 25-26 30-22 131 3 97 5 107 27 125 31 25 47 24 76-6z" fill="#888" fill-opacity=".9005"/>
<path d="m7571 732c-57-29-76-79-76-202 0-86 4-112 21-144 39-75 136-98 224-53l45 22 3 93 3 92h-76-75v-35c0-32 2-35 30-35s30-2 30-40c0-34-3-40-26-46-34-9-72 10-84 42-13 33-13 175 0 208 21 55 96 60 107 6 5-28 9-30 51-30h45l-7 32c-9 47-33 78-71 94-46 19-103 18-144-4z" fill="#888" fill-opacity=".9005"/>
<path d="m8194 740c-32-13-72-66-85-113-18-67-7-206 19-249 30-48 81-72 143-66 63 6 96 30 121 85 29 66 23 231-10 284-36 59-122 86-188 59zm101-85c23-22 25-31 25-123 0-85-3-103-21-126-26-33-53-33-85-1-25 25-26 30-22 131 3 97 5 107 27 125 31 25 47 24 76-6z" fill="#888" fill-opacity=".9005"/>
</g>
</svg>
