<?xml version="1.0" encoding="UTF-8" standalone="no"?>
<svg
   xmlns:dc="http://purl.org/dc/elements/1.1/"
   xmlns:cc="http://creativecommons.org/ns#"
   xmlns:rdf="http://www.w3.org/1999/02/22-rdf-syntax-ns#"
   xmlns:svg="http://www.w3.org/2000/svg"
   xmlns="http://www.w3.org/2000/svg"
   xmlns:sodipodi="http://sodipodi.sourceforge.net/DTD/sodipodi-0.dtd"
   xmlns:inkscape="http://www.inkscape.org/namespaces/inkscape"
   width="2426.5002"
   height="757.17487"
   viewBox="0 0 187.08899 58.379999"
   version="1.1"
   id="svg8"
   sodipodi:docname="dell.svg"
   inkscape:version="0.92.3 (2405546, 2018-03-11)">
  <metadata
     id="metadata14">
    <rdf:RDF>
      <cc:Work
         rdf:about="">
        <dc:format>image/svg+xml</dc:format>
        <dc:type
           rdf:resource="http://purl.org/dc/dcmitype/StillImage" />
        <dc:title></dc:title>
      </cc:Work>
    </rdf:RDF>
  </metadata>
  <defs
     id="defs12" />
  <sodipodi:namedview
     pagecolor="#ffffff"
     bordercolor="#666666"
     borderopacity="1"
     objecttolerance="10"
     gridtolerance="10"
     guidetolerance="10"
     inkscape:pageopacity="0"
     inkscape:pageshadow="2"
     inkscape:window-width="1366"
     inkscape:window-height="715"
     id="namedview10"
     showgrid="false"
     fit-margin-top="0"
     fit-margin-left="0"
     fit-margin-right="0"
     fit-margin-bottom="0"
     inkscape:zoom="0.0944"
     inkscape:cx="1213.2437"
     inkscape:cy="378.58744"
     inkscape:window-x="-8"
     inkscape:window-y="-8"
     inkscape:window-maximized="1"
     inkscape:current-layer="g6" />
  <g
     id="g6"
     style="clip-rule:evenodd;fill-rule:evenodd"
     transform="translate(-2.834,-67.188)">
    <path
       d="M 0,0 H 192.756 V 192.756 H 0 Z"
       id="path2"
       inkscape:connector-curvature="0"
       style="fill:#ffffff" />
    <path
       d="m 2.834,70.304 h 22.75 l 2.494,0.104 2.389,0.208 2.286,0.519 2.182,0.52 1.973,0.831 1.87,0.831 1.766,1.039 1.662,1.143 1.455,1.247 1.454,1.35 1.247,1.455 1.142,1.558 0.935,1.662 0.935,1.663 0.727,1.766 0.624,1.766 32.305,-20.778 11.738,7.895 -25.139,16.205 4.051,2.701 25.347,-16.101 10.906,7.271 -25.034,16.517 4.259,2.597 25.449,-16.205 V 70.304 h 18.699 v 35.423 h 16.621 v 16.62 h -35.32 v -17.036 l -31.474,20.257 -32.099,-21.711 -0.624,1.87 -0.623,1.766 -0.935,1.766 -0.935,1.767 -1.143,1.558 -1.247,1.559 -1.35,1.454 -1.558,1.246 -1.558,1.247 -1.87,1.039 -1.87,0.935 -2.078,0.831 -2.182,0.623 -2.285,0.415 -2.389,0.312 -2.597,0.104 H 2.834 Z m 17.868,16.309 h 4.882 l 2.182,0.208 1.766,0.623 1.558,0.935 1.35,1.247 0.936,1.454 0.727,1.559 0.415,1.766 0.104,1.766 -0.104,1.766 -0.415,1.767 -0.727,1.558 -1.039,1.455 -1.247,1.246 -1.558,0.936 -1.87,0.623 -2.078,0.208 h -4.882 z m 133.9,-16.309 h 18.803 v 35.423 h 16.518 v 16.62 h -35.32 V 70.304 Z"
       id="path4"
       inkscape:connector-curvature="0"
       style="fill:#0382c7" />
  </g>
</svg>
