<?xml version="1.0" encoding="UTF-8" standalone="no"?>
<svg
   xmlns:dc="http://purl.org/dc/elements/1.1/"
   xmlns:cc="http://creativecommons.org/ns#"
   xmlns:rdf="http://www.w3.org/1999/02/22-rdf-syntax-ns#"
   xmlns:svg="http://www.w3.org/2000/svg"
   xmlns="http://www.w3.org/2000/svg"
   xmlns:sodipodi="http://sodipodi.sourceforge.net/DTD/sodipodi-0.dtd"
   xmlns:inkscape="http://www.inkscape.org/namespaces/inkscape"
   width="2149.5051"
   height="1023.7295"
   viewBox="0 0 165.732 78.932001"
   version="1.1"
   id="svg14"
   sodipodi:docname="lg.svg"
   inkscape:version="0.92.3 (2405546, 2018-03-11)">
  <metadata
     id="metadata20">
    <rdf:RDF>
      <cc:Work
         rdf:about="">
        <dc:format>image/svg+xml</dc:format>
        <dc:type
           rdf:resource="http://purl.org/dc/dcmitype/StillImage" />
        <dc:title></dc:title>
      </cc:Work>
    </rdf:RDF>
  </metadata>
  <defs
     id="defs18" />
  <sodipodi:namedview
     pagecolor="#ffffff"
     bordercolor="#666666"
     borderopacity="1"
     objecttolerance="10"
     gridtolerance="10"
     guidetolerance="10"
     inkscape:pageopacity="0"
     inkscape:pageshadow="2"
     inkscape:window-width="1366"
     inkscape:window-height="715"
     id="namedview16"
     showgrid="false"
     fit-margin-top="0"
     fit-margin-left="0"
     fit-margin-right="0"
     fit-margin-bottom="0"
     inkscape:zoom="0.0944"
     inkscape:cx="1074.7525"
     inkscape:cy="511.86474"
     inkscape:window-x="-8"
     inkscape:window-y="-8"
     inkscape:window-maximized="1"
     inkscape:current-layer="svg14" />
  <path
     d="M -13.512,-56.912 H 179.244 V 135.844 H -13.512 Z"
     id="path2"
     inkscape:connector-curvature="0"
     style="fill:#ffffff" />
  <path
     d="m 39.467,78.932 c 21.796,0 39.467,-17.67 39.467,-39.466 C 78.934,17.67 61.264,0 39.467,0 17.67,0 0,17.67 0,39.466 0,61.262 17.67,78.932 39.467,78.932 Z"
     id="path4"
     inkscape:connector-curvature="0"
     style="fill:#a70b52" />
  <path
     d="m 49.077,53.355 h -8.173 v -30.89 h -3.031 v 33.938 h 3.031 v -0.02 h 8.173 z"
     id="path6"
     inkscape:connector-curvature="0"
     style="fill:#ffffff" />
  <path
     d="M 69.477,40.73 H 49.125 v -3.031 h 23.333 c 0.031,0.586 0.046,1.173 0.046,1.767 0,18.247 -14.792,33.038 -33.038,33.038 C 21.22,72.504 6.428,57.713 6.428,39.466 6.428,21.219 21.22,6.428 39.467,6.428 c 0.481,0 0.961,0.01 1.438,0.031 L 40.901,9.467 A 31.023,31.023 0 0 0 39.467,9.434 c -16.586,0 -30.033,13.446 -30.033,30.032 0,16.587 13.446,30.032 30.033,30.032 16.134,0 29.296,-12.722 30.002,-28.683 z"
     id="path8"
     inkscape:connector-curvature="0"
     style="fill:#ffffff" />
  <path
     d="m 27.143,31.609 a 4.6425,4.6425 0 1 0 0,-9.285 4.6425,4.6425 0 0 0 0,9.285 z"
     id="path10"
     inkscape:connector-curvature="0"
     style="fill:#ffffff" />
  <path
     d="m 98.531,58.838 h 28.201 V 50.321 H 108.885 V 19.823 H 98.531 Z M 160.805,22.57 c -3.233,-2.505 -7.396,-3.775 -12.364,-3.775 -5.899,0 -10.828,1.812 -14.255,5.236 -3.577,3.579 -5.471,8.851 -5.471,15.246 0,6.832 2.002,12.597 5.637,16.229 2.854,2.853 6.656,4.358 11.007,4.358 9.551,0 11.748,-5.725 11.748,-5.725 v 4.697 h 8.625 V 36.802 h -17.169 v 6.895 h 7.902 c 0,0 0.076,8.681 -8.08,8.681 -2.072,0 -3.918,-0.752 -5.338,-2.172 -2.213,-2.211 -3.383,-5.937 -3.383,-10.767 0,-8 3.18,-12.776 8.504,-12.776 3.326,0 5.826,2.042 6.467,5.137 h 10.984 c -0.569,-4.497 -1.803,-6.841 -4.814,-9.23 z"
     id="path12"
     inkscape:connector-curvature="0"
     style="fill:#808183" />
</svg>
