<?xml version="1.0" encoding="UTF-8" standalone="no"?>
<svg
   xmlns:dc="http://purl.org/dc/elements/1.1/"
   xmlns:cc="http://creativecommons.org/ns#"
   xmlns:rdf="http://www.w3.org/1999/02/22-rdf-syntax-ns#"
   xmlns:svg="http://www.w3.org/2000/svg"
   xmlns="http://www.w3.org/2000/svg"
   xmlns:sodipodi="http://sodipodi.sourceforge.net/DTD/sodipodi-0.dtd"
   xmlns:inkscape="http://www.inkscape.org/namespaces/inkscape"
   width="2421.3359"
   height="423.1647"
   viewBox="0 0 186.68501 32.625999"
   version="1.1"
   id="svg10"
   sodipodi:docname="sony.svg"
   inkscape:version="0.92.3 (2405546, 2018-03-11)">
  <metadata
     id="metadata16">
    <rdf:RDF>
      <cc:Work
         rdf:about="">
        <dc:format>image/svg+xml</dc:format>
        <dc:type
           rdf:resource="http://purl.org/dc/dcmitype/StillImage" />
        <dc:title></dc:title>
      </cc:Work>
    </rdf:RDF>
  </metadata>
  <defs
     id="defs14" />
  <sodipodi:namedview
     pagecolor="#ffffff"
     bordercolor="#666666"
     borderopacity="1"
     objecttolerance="10"
     gridtolerance="10"
     guidetolerance="10"
     inkscape:pageopacity="0"
     inkscape:pageshadow="2"
     inkscape:window-width="1366"
     inkscape:window-height="715"
     id="namedview12"
     showgrid="false"
     fit-margin-top="0"
     fit-margin-left="0"
     fit-margin-right="0"
     fit-margin-bottom="0"
     inkscape:zoom="0.13350176"
     inkscape:cx="802.55292"
     inkscape:cy="14.864251"
     inkscape:window-x="-8"
     inkscape:window-y="-8"
     inkscape:window-maximized="1"
     inkscape:current-layer="g8" />
  <g
     id="g8"
     style="clip-rule:evenodd;fill-rule:evenodd"
     transform="translate(-2.793,-80.095)">
    <path
       d="M 0,0 H 192.744 V 192.744 H 0 Z"
       id="path2"
       inkscape:connector-curvature="0"
       style="fill:#ffffff" />
    <path
       d="m 187.035,106.442 a 2.852,2.852 0 1 0 0,5.703 2.847,2.847 0 0 0 2.844,-2.858 2.844,2.844 0 0 0 -2.844,-2.845 z m 0,5.36 a 2.505,2.505 0 0 1 -2.508,-2.515 2.502,2.502 0 0 1 2.508,-2.501 2.5,2.5 0 0 1 2.5,2.501 2.503,2.503 0 0 1 -2.5,2.515 z"
       id="path4"
       inkscape:connector-curvature="0" />
    <path
       d="m 188.498,108.54 c 0,-0.269 -0.119,-0.552 -0.357,-0.687 -0.24,-0.142 -0.508,-0.156 -0.777,-0.156 h -1.389 v 3.187 h 0.389 v -1.47 h 0.717 l 0.91,1.47 h 0.463 l -0.963,-1.47 c 0.568,-0.016 1.007,-0.247 1.007,-0.874 z m -1.537,0.567 h -0.598 v -1.127 h 0.91 c 0.396,0 0.83,0.06 0.83,0.553 0.001,0.649 -0.695,0.574 -1.142,0.574 z m -16.641,-15.975 5.83,-6.225 c 0.338,-0.457 0.506,-0.777 0.506,-1.051 0,-0.457 -0.393,-0.64 -1.629,-0.64 h -1.471 v -3.93 h 15.922 v 3.93 h -2.092 c -2.416,0 -2.865,0.365 -6.236,4.615 l -9.223,9.96 v 6.078 c 0,1.555 0.785,2.102 3.033,2.102 h 3.482 v 3.792 h -22.301 v -3.792 h 3.482 c 2.246,0 3.033,-0.547 3.033,-2.102 V 99.791 L 151.793,87.774 c -1.795,-2.101 -1.547,-2.558 -6.545,-2.558 v -3.93 h 20.168 v 3.93 h -1.436 c -1.461,0 -2.08,0.274 -2.08,0.822 0,0.458 0.449,0.823 0.73,1.188 l 5.496,5.99 c 0.653,0.679 1.45,0.767 2.194,-0.084 z M 35.003,81.285 h 4.865 v 10.966 h -4.493 c -0.398,-2.192 -1.77,-3.045 -3.021,-4.195 -2.257,-2.074 -7.145,-3.801 -11.256,-3.801 -5.306,0 -9.784,1.646 -9.784,4.066 0,6.718 30.345,1.372 30.345,14.074 0,6.625 -6.5,10.326 -18.173,10.326 -4.041,0 -10.156,-1.254 -13.764,-3.17 -1.131,-0.653 -1.611,0.618 -1.823,2.211 H 2.911 V 100.43 h 4.512 c 0.995,2.879 2.366,3.472 3.627,4.615 2.188,2.011 7.396,3.474 12.172,3.427 7.201,-0.071 9.677,-1.645 9.677,-3.93 0,-2.284 -2.449,-2.833 -10.34,-4.066 l -6.7,-1.097 C 8.298,98.236 2.793,96.546 2.793,90.515 c 0,-6.26 6.964,-10.19 17.975,-10.19 4.64,0 8.522,0.62 12.248,2.726 1.032,0.671 2,0.751 1.987,-1.766 z m 94.944,18.36 0.096,-12.188 c 0,-1.599 -0.832,-2.147 -3.209,-2.147 h -2.793 v -3.792 h 17.77 v 3.792 h -2.316 c -2.379,0 -3.211,0.549 -3.211,2.147 v 24.537 l -6.955,-0.055 -22.524,-21.329 v 15.49 c 0,1.554 0.832,2.147 3.209,2.147 h 3.092 v 3.747 H 94.651 v -3.747 h 3.058 c 2.377,0 3.209,-0.594 3.209,-2.147 V 87.457 c 0,-1.599 -0.832,-2.147 -3.209,-2.147 h -3.058 v -3.792 h 15.956 z M 70.424,80.095 c -14.162,0 -23.027,6.261 -23.027,16.312 0,9.871 8.742,16.084 22.595,16.084 14.714,0 23.273,-6.122 23.273,-16.586 0.001,-9.412 -9.235,-15.81 -22.841,-15.81 z m -0.322,28.422 c -7.839,0 -12.345,-4.524 -12.345,-12.338 0,-7.63 4.702,-12.154 12.737,-12.154 7.708,0 12.214,4.616 12.214,12.475 0,7.676 -4.572,12.017 -12.606,12.017 z"
       id="path6"
       inkscape:connector-curvature="0" />
  </g>
</svg>
