<?xml version="1.0" encoding="UTF-8" standalone="no"?>
<svg
   xmlns:dc="http://purl.org/dc/elements/1.1/"
   xmlns:cc="http://creativecommons.org/ns#"
   xmlns:rdf="http://www.w3.org/1999/02/22-rdf-syntax-ns#"
   xmlns:svg="http://www.w3.org/2000/svg"
   xmlns="http://www.w3.org/2000/svg"
   xmlns:sodipodi="http://sodipodi.sourceforge.net/DTD/sodipodi-0.dtd"
   xmlns:inkscape="http://www.inkscape.org/namespaces/inkscape"
   width="2350.9773"
   height="641.82178"
   viewBox="0 0 181.26599 49.485999"
   version="1.1"
   id="svg10"
   sodipodi:docname="xerox.svg"
   inkscape:version="0.92.3 (2405546, 2018-03-11)">
  <metadata
     id="metadata16">
    <rdf:RDF>
      <cc:Work
         rdf:about="">
        <dc:format>image/svg+xml</dc:format>
        <dc:type
           rdf:resource="http://purl.org/dc/dcmitype/StillImage" />
        <dc:title></dc:title>
      </cc:Work>
    </rdf:RDF>
  </metadata>
  <defs
     id="defs14" />
  <sodipodi:namedview
     pagecolor="#ffffff"
     bordercolor="#666666"
     borderopacity="1"
     objecttolerance="10"
     gridtolerance="10"
     guidetolerance="10"
     inkscape:pageopacity="0"
     inkscape:pageshadow="2"
     inkscape:window-width="1366"
     inkscape:window-height="715"
     id="namedview12"
     showgrid="false"
     fit-margin-top="0"
     fit-margin-left="0"
     fit-margin-right="0"
     fit-margin-bottom="0"
     inkscape:zoom="0.0944"
     inkscape:cx="1229.7412"
     inkscape:cy="329.43203"
     inkscape:window-x="-8"
     inkscape:window-y="-8"
     inkscape:window-maximized="1"
     inkscape:current-layer="g8" />
  <g
     id="g8"
     style="clip-rule:evenodd;fill-rule:evenodd"
     transform="translate(-1.562,-72.292)">
    <path
       d="M 0,0 H 192.756 V 192.756 H 0 Z"
       id="path2"
       inkscape:connector-curvature="0"
       style="fill:#ffffff" />
    <path
       d="M 23.373,94.194 38.453,121.625 29.563,121.6 18.894,101.897 7.519,121.64 H 1.562 L 16.431,97.092 3.67,72.613 h 8.339 l 8.706,16.404 9.436,-16.422 H 35.1 Z M 69.969,75.969 48.08,75.991 48.087,94.206 h 21.885 v 3.929 H 48.099 l 0.017,19.336 21.764,0.136 0.016,3.999 -29.243,0.009 0.003,-49.034 29.271,0.01 z m 25.433,-3.585 c 2.795,0.504 6.186,0.733 8.02,3.528 2.84,3.666 1.924,8.889 1.648,13.425 -0.459,2.887 -2.199,5.911 -5.086,7.239 -1.559,0.825 -3.528,0.733 -5.269,1.237 l 0.137,0.642 12.968,23.002 H 99.113 L 83.856,94.148 c 4.078,-0.55 9.072,1.374 12.28,-1.65 2.198,-3.024 1.786,-7.515 1.649,-11.088 C 97.51,79.485 96.914,77.424 94.944,76.462 90.82,75.866 86.009,76.233 81.519,76.141 l -0.229,0.321 -0.092,44.995 h -7.79 L 73.5,72.292 Z m 61.01,0.206 9.783,17.068 9.428,-17.068 4.982,-0.006 -11.982,21.793 14.205,27.172 v 0.229 h -8.615 l -10.768,-20.573 -0.092,-0.092 c -1.924,3.208 -9.941,17.091 -12.096,20.665 L 145.62,121.64 160.89,95.993 147.9,72.59 Z"
       id="path4"
       inkscape:connector-curvature="0" />
    <path
       d="m 145.988,78.432 c 4.123,7.194 3.115,16.404 2.932,25.063 -0.596,5.682 -0.869,12.097 -6.369,15.533 -6.367,3.986 -16.266,3.345 -23.643,1.97 -4.949,-1.1 -9.164,-5.864 -9.988,-10.768 -1.008,-9.622 -1.1,-20.069 0.869,-29.279 0.734,-3.344 3.805,-6.277 6.828,-7.79 7.697,-2.245 17.137,-2.107 24.514,0.779 1.971,0.872 3.529,2.796 4.857,4.492 z m -13.654,-2.979 c -4.445,-0.274 -9.531,-0.778 -12.875,2.2 -4.033,5.041 -3.162,12.28 -3.713,18.832 0.223,1.944 -1.684,14.829 4.262,19.795 4.262,2.565 10.492,2.337 15.166,0.87 5.682,-2.611 5.178,-9.301 5.865,-14.524 -0.082,-8.42 1.426,-17.313 -2.748,-23.964 -1.65,-1.88 -3.713,-2.704 -5.957,-3.209 z m 54.848,-3.079 a 4.307,4.307 0 0 1 4.301,4.301 4.307,4.307 0 0 1 -4.301,4.301 4.308,4.308 0 0 1 -4.301,-4.301 4.307,4.307 0 0 1 4.301,-4.301 z m 0.013,7.958 c 1.977,0 3.467,-1.596 3.467,-3.657 0,-2.061 -1.49,-3.658 -3.467,-3.658 -2.002,0 -3.492,1.597 -3.492,3.658 0,2.061 1.49,3.657 3.492,3.657 z m -1.656,-6.184 h 1.93 c 1.154,0 1.727,0.465 1.727,1.418 0,0.81 -0.512,1.394 -1.299,1.394 l 1.43,2.228 h -0.869 l -1.406,-2.228 h -0.689 v 2.228 h -0.822 v -5.04 z m 0.822,2.169 h 0.977 c 0.631,0 1.035,-0.131 1.035,-0.787 0,-0.571 -0.512,-0.738 -1.035,-0.738 h -0.977 z"
       id="path6"
       inkscape:connector-curvature="0" />
  </g>
</svg>
